<svg width="259" height="54" viewBox="0 0 259 54" fill="none" xmlns="http://www.w3.org/2000/svg">
<g filter="url(#filter0_d_8864_14213)">
<rect x="2" y="1" width="255" height="50" rx="8" fill="#071B7B"/>
<rect x="2.5" y="1.5" width="254" height="49" rx="7.5" stroke="#3477E4"/>
<path d="M97.912 26.46H100.816L99.388 22.464H99.364L97.912 26.46ZM98.764 21.432H100.024L103.372 30H102.112L101.176 27.42H97.552L96.592 30H95.428L98.764 21.432ZM108.261 25.788C108.181 25.396 108.013 25.092 107.757 24.876C107.501 24.66 107.157 24.552 106.725 24.552C106.357 24.552 106.049 24.62 105.801 24.756C105.553 24.892 105.353 25.072 105.201 25.296C105.057 25.52 104.953 25.78 104.889 26.076C104.825 26.364 104.793 26.664 104.793 26.976C104.793 27.264 104.825 27.544 104.889 27.816C104.961 28.088 105.069 28.332 105.213 28.548C105.357 28.756 105.545 28.924 105.777 29.052C106.009 29.18 106.285 29.244 106.605 29.244C107.109 29.244 107.501 29.112 107.781 28.848C108.069 28.584 108.245 28.212 108.309 27.732H109.353C109.241 28.5 108.953 29.092 108.489 29.508C108.033 29.924 107.409 30.132 106.617 30.132C106.145 30.132 105.725 30.056 105.357 29.904C104.997 29.752 104.693 29.536 104.445 29.256C104.205 28.976 104.021 28.644 103.893 28.26C103.773 27.868 103.713 27.44 103.713 26.976C103.713 26.512 103.773 26.08 103.893 25.68C104.013 25.272 104.193 24.92 104.433 24.624C104.681 24.32 104.989 24.084 105.357 23.916C105.725 23.74 106.153 23.652 106.641 23.652C106.993 23.652 107.321 23.696 107.625 23.784C107.937 23.864 108.209 23.992 108.441 24.168C108.681 24.344 108.877 24.568 109.029 24.84C109.181 25.104 109.277 25.42 109.317 25.788H108.261ZM114.707 25.788C114.627 25.396 114.459 25.092 114.203 24.876C113.947 24.66 113.603 24.552 113.171 24.552C112.803 24.552 112.495 24.62 112.247 24.756C111.999 24.892 111.799 25.072 111.647 25.296C111.503 25.52 111.399 25.78 111.335 26.076C111.271 26.364 111.239 26.664 111.239 26.976C111.239 27.264 111.271 27.544 111.335 27.816C111.407 28.088 111.515 28.332 111.659 28.548C111.803 28.756 111.991 28.924 112.223 29.052C112.455 29.18 112.731 29.244 113.051 29.244C113.555 29.244 113.947 29.112 114.227 28.848C114.515 28.584 114.691 28.212 114.755 27.732H115.799C115.687 28.5 115.399 29.092 114.935 29.508C114.479 29.924 113.855 30.132 113.063 30.132C112.591 30.132 112.171 30.056 111.803 29.904C111.443 29.752 111.139 29.536 110.891 29.256C110.651 28.976 110.467 28.644 110.339 28.26C110.219 27.868 110.159 27.44 110.159 26.976C110.159 26.512 110.219 26.08 110.339 25.68C110.459 25.272 110.639 24.92 110.879 24.624C111.127 24.32 111.435 24.084 111.803 23.916C112.171 23.74 112.599 23.652 113.087 23.652C113.439 23.652 113.767 23.696 114.071 23.784C114.383 23.864 114.655 23.992 114.887 24.168C115.127 24.344 115.323 24.568 115.475 24.84C115.627 25.104 115.723 25.42 115.763 25.788H114.707ZM121.248 26.304C121.232 26.064 121.176 25.836 121.08 25.62C120.992 25.404 120.868 25.22 120.708 25.068C120.556 24.908 120.372 24.784 120.156 24.696C119.948 24.6 119.716 24.552 119.46 24.552C119.196 24.552 118.956 24.6 118.74 24.696C118.532 24.784 118.352 24.908 118.2 25.068C118.048 25.228 117.928 25.416 117.84 25.632C117.752 25.84 117.7 26.064 117.684 26.304H121.248ZM122.232 28.032C122.096 28.728 121.796 29.252 121.332 29.604C120.868 29.956 120.284 30.132 119.58 30.132C119.084 30.132 118.652 30.052 118.284 29.892C117.924 29.732 117.62 29.508 117.372 29.22C117.124 28.932 116.936 28.588 116.808 28.188C116.688 27.788 116.62 27.352 116.604 26.88C116.604 26.408 116.676 25.976 116.82 25.584C116.964 25.192 117.164 24.852 117.42 24.564C117.684 24.276 117.992 24.052 118.344 23.892C118.704 23.732 119.096 23.652 119.52 23.652C120.072 23.652 120.528 23.768 120.888 24C121.256 24.224 121.548 24.512 121.764 24.864C121.988 25.216 122.14 25.6 122.22 26.016C122.308 26.432 122.344 26.828 122.328 27.204H117.684C117.676 27.476 117.708 27.736 117.78 27.984C117.852 28.224 117.968 28.44 118.128 28.632C118.288 28.816 118.492 28.964 118.74 29.076C118.988 29.188 119.28 29.244 119.616 29.244C120.048 29.244 120.4 29.144 120.672 28.944C120.952 28.744 121.136 28.44 121.224 28.032H122.232ZM123.421 23.796H124.441V24.636H124.465C124.633 24.292 124.897 24.044 125.257 23.892C125.617 23.732 126.013 23.652 126.445 23.652C126.925 23.652 127.341 23.74 127.693 23.916C128.053 24.092 128.349 24.332 128.581 24.636C128.821 24.932 129.001 25.276 129.121 25.668C129.241 26.06 129.301 26.476 129.301 26.916C129.301 27.356 129.241 27.772 129.121 28.164C129.009 28.556 128.833 28.9 128.593 29.196C128.361 29.484 128.065 29.712 127.705 29.88C127.353 30.048 126.941 30.132 126.469 30.132C126.317 30.132 126.145 30.116 125.953 30.084C125.769 30.052 125.585 30 125.401 29.928C125.217 29.856 125.041 29.76 124.873 29.64C124.713 29.512 124.577 29.356 124.465 29.172H124.441V32.364H123.421V23.796ZM128.221 26.844C128.221 26.556 128.181 26.276 128.101 26.004C128.029 25.724 127.913 25.476 127.753 25.26C127.601 25.044 127.401 24.872 127.153 24.744C126.913 24.616 126.629 24.552 126.301 24.552C125.957 24.552 125.665 24.62 125.425 24.756C125.185 24.892 124.989 25.072 124.837 25.296C124.685 25.512 124.573 25.76 124.501 26.04C124.437 26.32 124.405 26.604 124.405 26.892C124.405 27.196 124.441 27.492 124.513 27.78C124.585 28.06 124.697 28.308 124.849 28.524C125.009 28.74 125.213 28.916 125.461 29.052C125.709 29.18 126.009 29.244 126.361 29.244C126.713 29.244 127.005 29.176 127.237 29.04C127.477 28.904 127.669 28.724 127.813 28.5C127.957 28.276 128.061 28.02 128.125 27.732C128.189 27.444 128.221 27.148 128.221 26.844ZM131.914 23.796H133.15V24.696H131.914V28.548C131.914 28.668 131.922 28.764 131.938 28.836C131.962 28.908 132.002 28.964 132.058 29.004C132.114 29.044 132.19 29.072 132.286 29.088C132.39 29.096 132.522 29.1 132.682 29.1H133.15V30H132.37C132.106 30 131.878 29.984 131.686 29.952C131.502 29.912 131.35 29.844 131.23 29.748C131.118 29.652 131.034 29.516 130.978 29.34C130.922 29.164 130.894 28.932 130.894 28.644V24.696H129.838V23.796H130.894V21.936H131.914V23.796ZM138.451 25.716C138.451 26.148 138.507 26.576 138.619 27C138.731 27.416 138.907 27.792 139.147 28.128C139.387 28.464 139.695 28.736 140.071 28.944C140.447 29.144 140.895 29.244 141.415 29.244C141.935 29.244 142.383 29.144 142.759 28.944C143.135 28.736 143.443 28.464 143.683 28.128C143.923 27.792 144.099 27.416 144.211 27C144.323 26.576 144.379 26.148 144.379 25.716C144.379 25.284 144.323 24.86 144.211 24.444C144.099 24.02 143.923 23.64 143.683 23.304C143.443 22.968 143.135 22.7 142.759 22.5C142.383 22.292 141.935 22.188 141.415 22.188C140.895 22.188 140.447 22.292 140.071 22.5C139.695 22.7 139.387 22.968 139.147 23.304C138.907 23.64 138.731 24.02 138.619 24.444C138.507 24.86 138.451 25.284 138.451 25.716ZM137.311 25.716C137.311 25.132 137.395 24.572 137.563 24.036C137.739 23.492 137.999 23.012 138.343 22.596C138.687 22.18 139.115 21.848 139.627 21.6C140.139 21.352 140.735 21.228 141.415 21.228C142.095 21.228 142.691 21.352 143.203 21.6C143.715 21.848 144.143 22.18 144.487 22.596C144.831 23.012 145.087 23.492 145.255 24.036C145.431 24.572 145.519 25.132 145.519 25.716C145.519 26.3 145.431 26.864 145.255 27.408C145.087 27.944 144.831 28.42 144.487 28.836C144.143 29.252 143.715 29.584 143.203 29.832C142.691 30.072 142.095 30.192 141.415 30.192C140.735 30.192 140.139 30.072 139.627 29.832C139.115 29.584 138.687 29.252 138.343 28.836C137.999 28.42 137.739 27.944 137.563 27.408C137.395 26.864 137.311 26.3 137.311 25.716ZM150.533 24.696H148.181V30H147.161V24.696H146.117V23.796H147.161V22.872C147.161 22.368 147.305 21.988 147.593 21.732C147.889 21.468 148.317 21.336 148.877 21.336C148.973 21.336 149.081 21.344 149.201 21.36C149.329 21.376 149.441 21.4 149.537 21.432V22.32C149.449 22.288 149.353 22.268 149.249 22.26C149.145 22.244 149.049 22.236 148.961 22.236C148.713 22.236 148.521 22.284 148.385 22.38C148.249 22.476 148.181 22.66 148.181 22.932V23.796H150.533V22.872C150.533 22.368 150.677 21.988 150.965 21.732C151.261 21.468 151.689 21.336 152.249 21.336C152.345 21.336 152.453 21.344 152.573 21.36C152.701 21.376 152.813 21.4 152.909 21.432V22.32C152.821 22.288 152.725 22.268 152.621 22.26C152.517 22.244 152.421 22.236 152.333 22.236C152.085 22.236 151.893 22.284 151.757 22.38C151.621 22.476 151.553 22.66 151.553 22.932V23.796H152.753V24.696H151.553V30H150.533V24.696ZM157.974 26.304C157.958 26.064 157.902 25.836 157.806 25.62C157.718 25.404 157.594 25.22 157.434 25.068C157.282 24.908 157.098 24.784 156.882 24.696C156.674 24.6 156.442 24.552 156.186 24.552C155.922 24.552 155.682 24.6 155.466 24.696C155.258 24.784 155.078 24.908 154.926 25.068C154.774 25.228 154.654 25.416 154.566 25.632C154.478 25.84 154.426 26.064 154.41 26.304H157.974ZM158.958 28.032C158.822 28.728 158.522 29.252 158.058 29.604C157.594 29.956 157.01 30.132 156.306 30.132C155.81 30.132 155.378 30.052 155.01 29.892C154.65 29.732 154.346 29.508 154.098 29.22C153.85 28.932 153.662 28.588 153.534 28.188C153.414 27.788 153.346 27.352 153.33 26.88C153.33 26.408 153.402 25.976 153.546 25.584C153.69 25.192 153.89 24.852 154.146 24.564C154.41 24.276 154.718 24.052 155.07 23.892C155.43 23.732 155.822 23.652 156.246 23.652C156.798 23.652 157.254 23.768 157.614 24C157.982 24.224 158.274 24.512 158.49 24.864C158.714 25.216 158.866 25.6 158.946 26.016C159.034 26.432 159.07 26.828 159.054 27.204H154.41C154.402 27.476 154.434 27.736 154.506 27.984C154.578 28.224 154.694 28.44 154.854 28.632C155.014 28.816 155.218 28.964 155.466 29.076C155.714 29.188 156.006 29.244 156.342 29.244C156.774 29.244 157.126 29.144 157.398 28.944C157.678 28.744 157.862 28.44 157.95 28.032H158.958ZM160.076 23.796H161.036V25.104H161.06C161.308 24.6 161.612 24.228 161.972 23.988C162.332 23.748 162.788 23.636 163.34 23.652V24.732C162.932 24.732 162.584 24.788 162.296 24.9C162.008 25.012 161.776 25.176 161.6 25.392C161.424 25.608 161.296 25.872 161.216 26.184C161.136 26.488 161.096 26.84 161.096 27.24V30H160.076V23.796Z" fill="white"/>
</g>
<defs>
<filter id="filter0_d_8864_14213" x="0" y="0" width="259" height="54" filterUnits="userSpaceOnUse" color-interpolation-filters="sRGB">
<feFlood flood-opacity="0" result="BackgroundImageFix"/>
<feColorMatrix in="SourceAlpha" type="matrix" values="0 0 0 0 0 0 0 0 0 0 0 0 0 0 0 0 0 0 127 0" result="hardAlpha"/>
<feOffset dy="1"/>
<feGaussianBlur stdDeviation="1"/>
<feColorMatrix type="matrix" values="0 0 0 0 0.0627451 0 0 0 0 0.0941176 0 0 0 0 0.156863 0 0 0 0.05 0"/>
<feBlend mode="normal" in2="BackgroundImageFix" result="effect1_dropShadow_8864_14213"/>
<feBlend mode="normal" in="SourceGraphic" in2="effect1_dropShadow_8864_14213" result="shape"/>
</filter>
</defs>
</svg>
