<svg width="41" height="40" viewBox="0 0 41 40" fill="none" xmlns="http://www.w3.org/2000/svg">
<path d="M28.7075 15V25C28.7075 29 27.7075 30 23.7075 30H17.7075C13.7075 30 12.7075 29 12.7075 25V15C12.7075 11 13.7075 10 17.7075 10H23.7075C27.7075 10 28.7075 11 28.7075 15Z" stroke="#292D32" stroke-width="1.5" stroke-linecap="round" stroke-linejoin="round"/>
<path d="M22.7075 13.5H18.7075" stroke="#292D32" stroke-width="1.5" stroke-linecap="round" stroke-linejoin="round"/>
<path d="M20.7077 27.1C21.5638 27.1 22.2577 26.406 22.2577 25.55C22.2577 24.694 21.5638 24 20.7077 24C19.8517 24 19.1577 24.694 19.1577 25.55C19.1577 26.406 19.8517 27.1 20.7077 27.1Z" stroke="#292D32" stroke-width="1.5" stroke-linecap="round" stroke-linejoin="round"/>
</svg>
