<svg width="100" height="100" viewBox="0 0 100 100" fill="none" xmlns="http://www.w3.org/2000/svg">
<path d="M50 100C77.6142 100 100 77.6142 100 50C100 22.3858 77.6142 0 50 0C22.3858 0 0 22.3858 0 50C0 77.6142 22.3858 100 50 100Z" fill="#F3F5FC"/>
<mask id="mask0_1008_6081" style="mask-type:alpha" maskUnits="userSpaceOnUse" x="0" y="0" width="100" height="100">
<path d="M50 100C77.6142 100 100 77.6142 100 50C100 22.3858 77.6142 0 50 0C22.3858 0 0 22.3858 0 50C0 77.6142 22.3858 100 50 100Z" fill="url(#paint0_linear_1008_6081)"/>
</mask>
<g mask="url(#mask0_1008_6081)">
<path d="M21.9995 70.0003C21.9995 66.3184 24.9843 63.3336 28.6662 63.3336C32.3481 63.3336 35.3328 66.3184 35.3328 70.0003V127.334H21.9995V70.0003Z" fill="#DADCE8"/>
<path d="M40.6665 42.6663C40.6665 38.9844 43.6513 35.9996 47.3332 35.9996C51.0151 35.9996 53.9998 38.9844 53.9998 42.6663V99.9996H40.6665V42.6663Z" fill="#DADCE8"/>
<path d="M59.3335 50.667C59.3335 46.9851 62.3183 44.0004 66.0002 44.0004C69.6821 44.0004 72.6668 46.9851 72.6668 50.667V116.667H59.3335V50.667Z" fill="#DADCE8"/>
</g>
<defs>
<linearGradient id="paint0_linear_1008_6081" x1="50" y1="0" x2="50" y2="100" gradientUnits="userSpaceOnUse">
<stop stop-color="#EAECF0"/>
<stop offset="1" stop-color="#EAECF0"/>
</linearGradient>
</defs>
</svg>
