<svg width="451" height="192" viewBox="0 0 451 192" fill="none" xmlns="http://www.w3.org/2000/svg">
<rect x="1" y="1" width="449" height="190" rx="8" fill="white"/>
<g opacity="0.7">
<g filter="url(#filter0_d_822_3677)">
<path d="M205.981 48.5338L217.63 75.619C218.098 76.5266 217.631 77.5634 216.641 77.9859L190.298 89.0743C189.39 89.5427 188.354 89.0757 187.931 88.0854L173.278 53.1789C172.81 52.2712 173.277 51.2345 174.267 50.8119L193.421 42.7551L205.981 48.5338Z" fill="#EBEDF7"/>
</g>
<path opacity="0.6" d="M192.363 49.302L179.664 54.6762C179.407 54.7497 179.114 54.6949 178.875 54.3465C178.801 54.0898 178.856 53.7962 179.205 53.5575L191.904 48.1833C192.16 48.1098 192.454 48.1646 192.693 48.513C192.803 48.8981 192.666 49.1458 192.363 49.302Z" fill="#00C3F9"/>
<path opacity="0.6" d="M185.838 55.6163L180.978 57.5641C180.721 57.6376 180.428 57.5828 180.189 57.2345C180.033 56.9319 180.17 56.6842 180.519 56.4455L185.378 54.4977C185.635 54.4242 185.929 54.479 186.167 54.8274C186.278 55.2125 186.094 55.5428 185.838 55.6163Z" fill="#FACE2B"/>
<path d="M193.339 42.2852L196.444 49.7305C196.904 50.8491 198.197 51.2426 199.187 50.82L205.945 47.9813" fill="#F9F9F9"/>
<path opacity="0.4" d="M203.749 54.8618L197.202 57.7095L190.316 60.585L183.989 63.2308C183.302 63.4972 182.926 64.3688 183.275 65.1023L188.108 76.637C188.374 77.3247 189.246 77.7001 189.933 77.4336L209.903 69.0736C210.591 68.8072 210.967 67.9356 210.618 67.2021L205.785 55.6675C205.271 54.8424 204.565 54.5585 203.749 54.8618ZM194.964 70.5055L193.806 67.9199L199.876 65.3477L201.034 67.9333L194.964 70.5055ZM201.383 68.6668L202.421 71.0782L196.351 73.6505L195.313 71.239L201.383 68.6668ZM198.498 61.9918L199.656 64.5774L193.586 67.1497L192.428 64.564L198.498 61.9918ZM192.079 63.8305L191.013 61.0798L197.083 58.5075L198.241 61.0931L192.079 63.8305ZM207.147 61.3897L200.389 64.2284L199.232 61.6428L205.989 58.804L207.147 61.3897ZM192.77 67.4529L186.269 70.218L185.111 67.6324L191.612 64.8673L192.77 67.4529ZM186.572 71.0341L193.073 68.269L194.23 70.8546L187.729 73.6197L186.572 71.0341ZM200.738 64.9619L207.496 62.1232L208.653 64.7088L201.896 67.5475L200.738 64.9619ZM204.887 55.9249L205.769 58.0338L199.011 60.8725L197.854 58.2869L204.052 55.6778C204.4 55.4391 204.731 55.6223 204.887 55.9249ZM184.128 63.9553L190.152 61.4656L191.309 64.0512L184.808 66.8164L183.926 64.7075C183.77 64.4049 183.953 64.0746 184.128 63.9553ZM188.759 76.2421L188.033 74.4358L194.534 71.6706L195.572 74.0821L189.502 76.6543C189.245 76.7279 188.832 76.4989 188.759 76.2421ZM209.353 68.1202L203.154 70.7292L202.116 68.3178L208.874 65.479L209.636 67.4138C209.875 67.7621 209.692 68.0924 209.353 68.1202Z" fill="#CFD5E0"/>
<path d="M191.866 69.8532L189.905 65.5316L191.824 64.661C192.298 64.4459 192.711 64.3962 193.064 64.5119C193.417 64.6277 193.685 64.8858 193.867 65.2863C194.046 65.6827 194.065 66.0539 193.921 66.4C193.777 66.746 193.469 67.0266 192.995 67.2417L191.867 67.7535L192.657 69.4944L191.866 69.8532ZM191.583 67.1283L192.619 66.6582C192.88 66.5395 193.051 66.3933 193.13 66.2195C193.207 66.0417 193.197 65.8465 193.1 65.634C193.004 65.4215 192.864 65.2877 192.682 65.2326C192.497 65.1734 192.274 65.2032 192.013 65.3219L190.977 65.7919L191.583 67.1283ZM195.949 68.0007L193.988 63.6791L195.557 62.967C196.051 62.7426 196.507 62.6393 196.924 62.657C197.343 62.6688 197.714 62.7962 198.036 63.0393C198.357 63.2783 198.621 63.6267 198.829 64.0844C199.034 64.538 199.123 64.9661 199.093 65.3687C199.064 65.7713 198.917 66.1363 198.651 66.4637C198.39 66.7892 198.012 67.0642 197.518 67.2886L195.949 68.0007ZM196.442 66.9859L197.171 66.6549C197.694 66.4176 198.026 66.1168 198.166 65.7525C198.306 65.3883 198.262 64.9528 198.032 64.446C197.8 63.9352 197.502 63.6147 197.137 63.4844C196.77 63.3501 196.326 63.4016 195.803 63.639L195.073 63.97L196.442 66.9859ZM200.618 65.8819L198.657 61.5603L201.507 60.2668L201.788 60.886L199.729 61.8206L200.285 63.0466L202.203 62.1759L202.484 62.7951L200.566 63.6657L201.409 65.5231L200.618 65.8819Z" fill="#BAC3D2"/>
<g filter="url(#filter1_d_822_3677)">
<path d="M256.216 83.1386L227.293 98.796C225.621 99.6914 223.546 99.0861 222.633 97.4104L207.685 69.7151C206.791 68.0415 207.396 65.9648 209.07 65.05L237.994 49.3925C239.666 48.4971 241.741 49.1024 242.654 50.7782L257.621 78.4756C258.515 80.1492 257.888 82.2432 256.216 83.1386Z" fill="url(#paint0_linear_822_3677)"/>
</g>
<path d="M252.75 79.5575L227.319 93.3228C226.607 93.7155 225.714 93.4388 225.322 92.7262L212.964 69.825C212.572 69.1123 212.848 68.2186 213.56 67.8259L238.991 54.0607C239.703 53.668 240.596 53.9447 240.988 54.6573L253.346 77.5585C253.739 78.2711 253.462 79.1649 252.75 79.5575Z" fill="#F1F2F9"/>
<path d="M235.864 77.496L226.579 82.5188L228.369 74.7512L235.864 77.496Z" fill="#CDD1DA"/>
<path d="M243.542 73.336L230.177 80.579L232.761 69.3983L243.542 73.336Z" fill="#00C3F9"/>
<path d="M225.033 73.6701C226.127 73.7922 227.112 73.0038 227.234 71.9092C227.356 70.8146 226.569 69.8283 225.476 69.7063C224.382 69.5843 223.397 70.3727 223.275 71.4673C223.153 72.5619 223.94 73.5481 225.033 73.6701Z" fill="#CDD1DA"/>
<g filter="url(#filter2_d_822_3677)">
<path d="M259.758 88.8014L226.875 89.4518C224.979 89.4808 223.413 87.9917 223.37 86.0837L222.786 54.6175C222.759 52.7203 224.25 51.1522 226.157 51.107L259.04 50.4566C260.937 50.4276 262.502 51.9167 262.546 53.8248L263.145 85.3018C263.172 87.199 261.655 88.7725 259.758 88.8014Z" fill="url(#paint1_linear_822_3677)"/>
</g>
<path d="M257.853 84.1252L228.942 84.6958C228.129 84.7183 227.462 84.0631 227.441 83.25L226.96 57.2315C226.939 56.4184 227.594 55.751 228.407 55.7285L257.319 55.1579C258.132 55.1354 258.798 55.7907 258.82 56.6037L259.3 82.6223C259.322 83.4354 258.666 84.1028 257.853 84.1252Z" fill="#F1F2F9"/>
<path d="M243.794 74.5499L233.24 74.7554L238.393 68.6738L243.794 74.5499Z" fill="#B6C1D2"/>
<path d="M252.521 74.3735L237.322 74.6813L244.746 65.9305L252.521 74.3735Z" fill="#00C3F9"/>
<path opacity="0.6" d="M235.92 66.1826C236.835 66.7924 238.073 66.5436 238.683 65.6269C239.294 64.7103 239.046 63.4728 238.131 62.863C237.215 62.2531 235.978 62.5019 235.367 63.4186C234.757 64.3353 235.004 65.5728 235.92 66.1826Z" fill="#FACE2B"/>
<path d="M260.095 89.9703L253.119 92.1211L258.675 100.337L254.148 103.398L248.592 95.1822L243.998 100.854L240.029 77.6391L260.095 89.9703Z" fill="#BAC3D2"/>
</g>
<path d="M126.167 131.886C127.194 131.886 128.094 132.087 128.869 132.488C129.653 132.89 130.255 133.464 130.675 134.21C131.104 134.948 131.319 135.806 131.319 136.786C131.319 137.766 131.104 138.625 130.675 139.362C130.255 140.09 129.653 140.655 128.869 141.056C128.094 141.458 127.194 141.658 126.167 141.658H122.751V131.886H126.167ZM126.097 139.992C127.124 139.992 127.917 139.712 128.477 139.152C129.037 138.592 129.317 137.804 129.317 136.786C129.317 135.769 129.037 134.976 128.477 134.406C127.917 133.828 127.124 133.538 126.097 133.538H124.711V139.992H126.097ZM134.746 135.106C134.998 134.696 135.325 134.374 135.726 134.14C136.137 133.907 136.604 133.79 137.126 133.79V135.848H136.608C135.992 135.848 135.526 135.993 135.208 136.282C134.9 136.572 134.746 137.076 134.746 137.794V141.658H132.786V133.902H134.746V135.106ZM137.942 137.752C137.942 136.968 138.096 136.273 138.404 135.666C138.722 135.06 139.146 134.593 139.678 134.266C140.22 133.94 140.822 133.776 141.484 133.776C142.063 133.776 142.567 133.893 142.996 134.126C143.435 134.36 143.785 134.654 144.046 135.008V133.902H146.02V141.658H144.046V140.524C143.794 140.888 143.444 141.192 142.996 141.434C142.558 141.668 142.049 141.784 141.47 141.784C140.817 141.784 140.22 141.616 139.678 141.28C139.146 140.944 138.722 140.473 138.404 139.866C138.096 139.25 137.942 138.546 137.942 137.752ZM144.046 137.78C144.046 137.304 143.953 136.898 143.766 136.562C143.58 136.217 143.328 135.956 143.01 135.778C142.693 135.592 142.352 135.498 141.988 135.498C141.624 135.498 141.288 135.587 140.98 135.764C140.672 135.942 140.42 136.203 140.224 136.548C140.038 136.884 139.944 137.286 139.944 137.752C139.944 138.219 140.038 138.63 140.224 138.984C140.42 139.33 140.672 139.596 140.98 139.782C141.298 139.969 141.634 140.062 141.988 140.062C142.352 140.062 142.693 139.974 143.01 139.796C143.328 139.61 143.58 139.348 143.766 139.012C143.953 138.667 144.046 138.256 144.046 137.78ZM150.973 133.776C151.551 133.776 152.06 133.893 152.499 134.126C152.937 134.35 153.283 134.644 153.535 135.008V133.902H155.509V141.714C155.509 142.433 155.364 143.072 155.075 143.632C154.785 144.202 154.351 144.65 153.773 144.976C153.194 145.312 152.494 145.48 151.673 145.48C150.571 145.48 149.666 145.224 148.957 144.71C148.257 144.197 147.86 143.497 147.767 142.61H149.713C149.815 142.965 150.035 143.245 150.371 143.45C150.716 143.665 151.131 143.772 151.617 143.772C152.186 143.772 152.648 143.6 153.003 143.254C153.357 142.918 153.535 142.405 153.535 141.714V140.51C153.283 140.874 152.933 141.178 152.485 141.42C152.046 141.663 151.542 141.784 150.973 141.784C150.319 141.784 149.722 141.616 149.181 141.28C148.639 140.944 148.21 140.473 147.893 139.866C147.585 139.25 147.431 138.546 147.431 137.752C147.431 136.968 147.585 136.273 147.893 135.666C148.21 135.06 148.635 134.593 149.167 134.266C149.708 133.94 150.31 133.776 150.973 133.776ZM153.535 137.78C153.535 137.304 153.441 136.898 153.255 136.562C153.068 136.217 152.816 135.956 152.499 135.778C152.181 135.592 151.841 135.498 151.477 135.498C151.113 135.498 150.777 135.587 150.469 135.764C150.161 135.942 149.909 136.203 149.713 136.548C149.526 136.884 149.433 137.286 149.433 137.752C149.433 138.219 149.526 138.63 149.713 138.984C149.909 139.33 150.161 139.596 150.469 139.782C150.786 139.969 151.122 140.062 151.477 140.062C151.841 140.062 152.181 139.974 152.499 139.796C152.816 139.61 153.068 139.348 153.255 139.012C153.441 138.667 153.535 138.256 153.535 137.78ZM168.179 133.902L163.377 145.326H161.291L162.971 141.462L159.863 133.902H162.061L164.063 139.32L166.093 133.902H168.179ZM172.68 141.784C171.933 141.784 171.261 141.621 170.664 141.294C170.066 140.958 169.595 140.487 169.25 139.88C168.914 139.274 168.746 138.574 168.746 137.78C168.746 136.987 168.918 136.287 169.264 135.68C169.618 135.074 170.099 134.607 170.706 134.28C171.312 133.944 171.989 133.776 172.736 133.776C173.482 133.776 174.159 133.944 174.766 134.28C175.372 134.607 175.848 135.074 176.194 135.68C176.548 136.287 176.726 136.987 176.726 137.78C176.726 138.574 176.544 139.274 176.18 139.88C175.825 140.487 175.34 140.958 174.724 141.294C174.117 141.621 173.436 141.784 172.68 141.784ZM172.68 140.076C173.034 140.076 173.366 139.992 173.674 139.824C173.991 139.647 174.243 139.386 174.43 139.04C174.616 138.695 174.71 138.275 174.71 137.78C174.71 137.043 174.514 136.478 174.122 136.086C173.739 135.685 173.268 135.484 172.708 135.484C172.148 135.484 171.676 135.685 171.294 136.086C170.92 136.478 170.734 137.043 170.734 137.78C170.734 138.518 170.916 139.087 171.28 139.488C171.653 139.88 172.12 140.076 172.68 140.076ZM185.485 133.902V141.658H183.511V140.678C183.259 141.014 182.928 141.28 182.517 141.476C182.116 141.663 181.677 141.756 181.201 141.756C180.595 141.756 180.058 141.63 179.591 141.378C179.125 141.117 178.756 140.739 178.485 140.244C178.224 139.74 178.093 139.143 178.093 138.452V133.902H180.053V138.172C180.053 138.788 180.207 139.264 180.515 139.6C180.823 139.927 181.243 140.09 181.775 140.09C182.317 140.09 182.741 139.927 183.049 139.6C183.357 139.264 183.511 138.788 183.511 138.172V133.902H185.485ZM189.379 135.106C189.631 134.696 189.958 134.374 190.359 134.14C190.77 133.907 191.236 133.79 191.759 133.79V135.848H191.241C190.625 135.848 190.158 135.993 189.841 136.282C189.533 136.572 189.379 137.076 189.379 137.794V141.658H187.419V133.902H189.379V135.106ZM199.971 135.512H198.613V141.658H196.625V135.512H195.743V133.902H196.625V133.51C196.625 132.558 196.896 131.858 197.437 131.41C197.979 130.962 198.795 130.752 199.887 130.78V132.432C199.411 132.423 199.08 132.502 198.893 132.67C198.707 132.838 198.613 133.142 198.613 133.58V133.902H199.971V135.512ZM202.235 132.978C201.89 132.978 201.601 132.871 201.367 132.656C201.143 132.432 201.031 132.157 201.031 131.83C201.031 131.504 201.143 131.233 201.367 131.018C201.601 130.794 201.89 130.682 202.235 130.682C202.581 130.682 202.865 130.794 203.089 131.018C203.323 131.233 203.439 131.504 203.439 131.83C203.439 132.157 203.323 132.432 203.089 132.656C202.865 132.871 202.581 132.978 202.235 132.978ZM203.201 133.902V141.658H201.241V133.902H203.201ZM207.098 131.298V141.658H205.138V131.298H207.098ZM216.244 137.612C216.244 137.892 216.226 138.144 216.188 138.368H210.518C210.565 138.928 210.761 139.367 211.106 139.684C211.452 140.002 211.876 140.16 212.38 140.16C213.108 140.16 213.626 139.848 213.934 139.222H216.048C215.824 139.969 215.395 140.585 214.76 141.07C214.126 141.546 213.346 141.784 212.422 141.784C211.676 141.784 211.004 141.621 210.406 141.294C209.818 140.958 209.356 140.487 209.02 139.88C208.694 139.274 208.53 138.574 208.53 137.78C208.53 136.978 208.694 136.273 209.02 135.666C209.347 135.06 209.804 134.593 210.392 134.266C210.98 133.94 211.657 133.776 212.422 133.776C213.16 133.776 213.818 133.935 214.396 134.252C214.984 134.57 215.437 135.022 215.754 135.61C216.081 136.189 216.244 136.856 216.244 137.612ZM214.214 137.052C214.205 136.548 214.023 136.147 213.668 135.848C213.314 135.54 212.88 135.386 212.366 135.386C211.881 135.386 211.47 135.536 211.134 135.834C210.808 136.124 210.607 136.53 210.532 137.052H214.214ZM225.379 133.79C225.967 133.79 226.49 133.921 226.947 134.182C227.404 134.434 227.759 134.812 228.011 135.316C228.272 135.811 228.403 136.408 228.403 137.108V141.658H226.443V137.374C226.443 136.758 226.289 136.287 225.981 135.96C225.673 135.624 225.253 135.456 224.721 135.456C224.18 135.456 223.75 135.624 223.433 135.96C223.125 136.287 222.971 136.758 222.971 137.374V141.658H221.011V131.298H222.971V134.868C223.223 134.532 223.559 134.271 223.979 134.084C224.399 133.888 224.866 133.79 225.379 133.79ZM237.477 137.612C237.477 137.892 237.458 138.144 237.421 138.368H231.751C231.797 138.928 231.993 139.367 232.339 139.684C232.684 140.002 233.109 140.16 233.613 140.16C234.341 140.16 234.859 139.848 235.167 139.222H237.281C237.057 139.969 236.627 140.585 235.993 141.07C235.358 141.546 234.579 141.784 233.655 141.784C232.908 141.784 232.236 141.621 231.639 141.294C231.051 140.958 230.589 140.487 230.253 139.88C229.926 139.274 229.763 138.574 229.763 137.78C229.763 136.978 229.926 136.273 230.253 135.666C230.579 135.06 231.037 134.593 231.625 134.266C232.213 133.94 232.889 133.776 233.655 133.776C234.392 133.776 235.05 133.935 235.629 134.252C236.217 134.57 236.669 135.022 236.987 135.61C237.313 136.189 237.477 136.856 237.477 137.612ZM235.447 137.052C235.437 136.548 235.255 136.147 234.901 135.848C234.546 135.54 234.112 135.386 233.599 135.386C233.113 135.386 232.703 135.536 232.367 135.834C232.04 136.124 231.839 136.53 231.765 137.052H235.447ZM240.867 135.106C241.119 134.696 241.446 134.374 241.847 134.14C242.258 133.907 242.725 133.79 243.247 133.79V135.848H242.729C242.113 135.848 241.647 135.993 241.329 136.282C241.021 136.572 240.867 137.076 240.867 137.794V141.658H238.907V133.902H240.867V135.106ZM251.778 137.612C251.778 137.892 251.759 138.144 251.722 138.368H246.052C246.098 138.928 246.294 139.367 246.64 139.684C246.985 140.002 247.41 140.16 247.914 140.16C248.642 140.16 249.16 139.848 249.468 139.222H251.582C251.358 139.969 250.928 140.585 250.294 141.07C249.659 141.546 248.88 141.784 247.956 141.784C247.209 141.784 246.537 141.621 245.94 141.294C245.352 140.958 244.89 140.487 244.554 139.88C244.227 139.274 244.064 138.574 244.064 137.78C244.064 136.978 244.227 136.273 244.554 135.666C244.88 135.06 245.338 134.593 245.926 134.266C246.514 133.94 247.19 133.776 247.956 133.776C248.693 133.776 249.351 133.935 249.93 134.252C250.518 134.57 250.97 135.022 251.288 135.61C251.614 136.189 251.778 136.856 251.778 137.612ZM249.748 137.052C249.738 136.548 249.556 136.147 249.202 135.848C248.847 135.54 248.413 135.386 247.9 135.386C247.414 135.386 247.004 135.536 246.668 135.834C246.341 136.124 246.14 136.53 246.066 137.052H249.748ZM255.35 139.6L253.712 143.534H252.452L253.362 139.6H255.35ZM263.543 141.784C262.796 141.784 262.124 141.621 261.527 141.294C260.929 140.958 260.458 140.487 260.113 139.88C259.777 139.274 259.609 138.574 259.609 137.78C259.609 136.987 259.781 136.287 260.127 135.68C260.481 135.074 260.962 134.607 261.569 134.28C262.175 133.944 262.852 133.776 263.599 133.776C264.345 133.776 265.022 133.944 265.629 134.28C266.235 134.607 266.711 135.074 267.057 135.68C267.411 136.287 267.589 136.987 267.589 137.78C267.589 138.574 267.407 139.274 267.043 139.88C266.688 140.487 266.203 140.958 265.587 141.294C264.98 141.621 264.299 141.784 263.543 141.784ZM263.543 140.076C263.897 140.076 264.229 139.992 264.537 139.824C264.854 139.647 265.106 139.386 265.293 139.04C265.479 138.695 265.573 138.275 265.573 137.78C265.573 137.043 265.377 136.478 264.985 136.086C264.602 135.685 264.131 135.484 263.571 135.484C263.011 135.484 262.539 135.685 262.157 136.086C261.783 136.478 261.597 137.043 261.597 137.78C261.597 138.518 261.779 139.087 262.143 139.488C262.516 139.88 262.983 140.076 263.543 140.076ZM270.987 135.106C271.239 134.696 271.565 134.374 271.967 134.14C272.377 133.907 272.844 133.79 273.367 133.79V135.848H272.849C272.233 135.848 271.766 135.993 271.449 136.282C271.141 136.572 270.987 137.076 270.987 137.794V141.658H269.027V133.902H270.987V135.106Z" fill="#272848"/>
<path d="M279.983 135.036C280.235 134.663 280.58 134.36 281.019 134.126C281.467 133.893 281.975 133.776 282.545 133.776C283.207 133.776 283.805 133.94 284.337 134.266C284.878 134.593 285.303 135.06 285.611 135.666C285.928 136.264 286.087 136.959 286.087 137.752C286.087 138.546 285.928 139.25 285.611 139.866C285.303 140.473 284.878 140.944 284.337 141.28C283.805 141.616 283.207 141.784 282.545 141.784C281.966 141.784 281.457 141.672 281.019 141.448C280.589 141.215 280.244 140.916 279.983 140.552V141.658H278.023V131.298H279.983V135.036ZM284.085 137.752C284.085 137.286 283.987 136.884 283.791 136.548C283.604 136.203 283.352 135.942 283.035 135.764C282.727 135.587 282.391 135.498 282.027 135.498C281.672 135.498 281.336 135.592 281.019 135.778C280.711 135.956 280.459 136.217 280.263 136.562C280.076 136.908 279.983 137.314 279.983 137.78C279.983 138.247 280.076 138.653 280.263 138.998C280.459 139.344 280.711 139.61 281.019 139.796C281.336 139.974 281.672 140.062 282.027 140.062C282.391 140.062 282.727 139.969 283.035 139.782C283.352 139.596 283.604 139.33 283.791 138.984C283.987 138.639 284.085 138.228 284.085 137.752ZM289.471 135.106C289.723 134.696 290.05 134.374 290.451 134.14C290.862 133.907 291.328 133.79 291.851 133.79V135.848H291.333C290.717 135.848 290.25 135.993 289.933 136.282C289.625 136.572 289.471 137.076 289.471 137.794V141.658H287.511V133.902H289.471V135.106ZM296.615 141.784C295.868 141.784 295.196 141.621 294.599 141.294C294.002 140.958 293.53 140.487 293.185 139.88C292.849 139.274 292.681 138.574 292.681 137.78C292.681 136.987 292.854 136.287 293.199 135.68C293.554 135.074 294.034 134.607 294.641 134.28C295.248 133.944 295.924 133.776 296.671 133.776C297.418 133.776 298.094 133.944 298.701 134.28C299.308 134.607 299.784 135.074 300.129 135.68C300.484 136.287 300.661 136.987 300.661 137.78C300.661 138.574 300.479 139.274 300.115 139.88C299.76 140.487 299.275 140.958 298.659 141.294C298.052 141.621 297.371 141.784 296.615 141.784ZM296.615 140.076C296.97 140.076 297.301 139.992 297.609 139.824C297.926 139.647 298.178 139.386 298.365 139.04C298.552 138.695 298.645 138.275 298.645 137.78C298.645 137.043 298.449 136.478 298.057 136.086C297.674 135.685 297.203 135.484 296.643 135.484C296.083 135.484 295.612 135.685 295.229 136.086C294.856 136.478 294.669 137.043 294.669 137.78C294.669 138.518 294.851 139.087 295.215 139.488C295.588 139.88 296.055 140.076 296.615 140.076ZM312.851 133.902L310.583 141.658H308.469L307.055 136.24L305.641 141.658H303.513L301.231 133.902H303.219L304.591 139.81L306.075 133.902H308.147L309.603 139.796L310.975 133.902H312.851ZM316.879 141.784C316.245 141.784 315.675 141.672 315.171 141.448C314.667 141.215 314.266 140.902 313.967 140.51C313.678 140.118 313.519 139.684 313.491 139.208H315.465C315.503 139.507 315.647 139.754 315.899 139.95C316.161 140.146 316.483 140.244 316.865 140.244C317.239 140.244 317.528 140.17 317.733 140.02C317.948 139.871 318.055 139.68 318.055 139.446C318.055 139.194 317.925 139.008 317.663 138.886C317.411 138.756 317.005 138.616 316.445 138.466C315.867 138.326 315.391 138.182 315.017 138.032C314.653 137.883 314.336 137.654 314.065 137.346C313.804 137.038 313.673 136.623 313.673 136.1C313.673 135.671 313.795 135.279 314.037 134.924C314.289 134.57 314.644 134.29 315.101 134.084C315.568 133.879 316.114 133.776 316.739 133.776C317.663 133.776 318.401 134.01 318.951 134.476C319.502 134.934 319.805 135.554 319.861 136.338H317.985C317.957 136.03 317.827 135.788 317.593 135.61C317.369 135.424 317.066 135.33 316.683 135.33C316.329 135.33 316.053 135.396 315.857 135.526C315.671 135.657 315.577 135.839 315.577 136.072C315.577 136.334 315.708 136.534 315.969 136.674C316.231 136.805 316.637 136.94 317.187 137.08C317.747 137.22 318.209 137.365 318.573 137.514C318.937 137.664 319.25 137.897 319.511 138.214C319.782 138.522 319.922 138.933 319.931 139.446C319.931 139.894 319.805 140.296 319.553 140.65C319.311 141.005 318.956 141.285 318.489 141.49C318.032 141.686 317.495 141.784 316.879 141.784ZM328.75 137.612C328.75 137.892 328.732 138.144 328.694 138.368H323.024C323.071 138.928 323.267 139.367 323.612 139.684C323.958 140.002 324.382 140.16 324.886 140.16C325.614 140.16 326.132 139.848 326.44 139.222H328.554C328.33 139.969 327.901 140.585 327.266 141.07C326.632 141.546 325.852 141.784 324.928 141.784C324.182 141.784 323.51 141.621 322.912 141.294C322.324 140.958 321.862 140.487 321.526 139.88C321.2 139.274 321.036 138.574 321.036 137.78C321.036 136.978 321.2 136.273 321.526 135.666C321.853 135.06 322.31 134.593 322.898 134.266C323.486 133.94 324.163 133.776 324.928 133.776C325.666 133.776 326.324 133.935 326.902 134.252C327.49 134.57 327.943 135.022 328.26 135.61C328.587 136.189 328.75 136.856 328.75 137.612ZM326.72 137.052C326.711 136.548 326.529 136.147 326.174 135.848C325.82 135.54 325.386 135.386 324.872 135.386C324.387 135.386 323.976 135.536 323.64 135.834C323.314 136.124 323.113 136.53 323.038 137.052H326.72Z" fill="#00C3F9"/>
<path d="M97.7774 162.766C97.2734 162.766 96.8214 162.682 96.4214 162.514C96.0214 162.338 95.7054 162.098 95.4734 161.794C95.2414 161.482 95.1134 161.126 95.0894 160.726H96.2174C96.2494 161.054 96.4014 161.322 96.6734 161.53C96.9534 161.738 97.3174 161.842 97.7654 161.842C98.1814 161.842 98.5094 161.75 98.7494 161.566C98.9894 161.382 99.1094 161.15 99.1094 160.87C99.1094 160.582 98.9814 160.37 98.7254 160.234C98.4694 160.09 98.0734 159.95 97.5374 159.814C97.0494 159.686 96.6494 159.558 96.3374 159.43C96.0334 159.294 95.7694 159.098 95.5454 158.842C95.3294 158.578 95.2214 158.234 95.2214 157.81C95.2214 157.474 95.3214 157.166 95.5214 156.886C95.7214 156.606 96.0054 156.386 96.3734 156.226C96.7414 156.058 97.1614 155.974 97.6334 155.974C98.3614 155.974 98.9494 156.158 99.3974 156.526C99.8454 156.894 100.085 157.398 100.117 158.038H99.0254C99.0014 157.694 98.8614 157.418 98.6054 157.21C98.3574 157.002 98.0214 156.898 97.5974 156.898C97.2054 156.898 96.8934 156.982 96.6614 157.15C96.4294 157.318 96.3134 157.538 96.3134 157.81C96.3134 158.026 96.3814 158.206 96.5174 158.35C96.6614 158.486 96.8374 158.598 97.0454 158.686C97.2614 158.766 97.5574 158.858 97.9334 158.962C98.4054 159.09 98.7894 159.218 99.0854 159.346C99.3814 159.466 99.6334 159.65 99.8414 159.898C100.057 160.146 100.169 160.47 100.177 160.87C100.177 161.23 100.077 161.554 99.8774 161.842C99.6774 162.13 99.3934 162.358 99.0254 162.526C98.6654 162.686 98.2494 162.766 97.7774 162.766ZM107.551 156.082V162.658H106.459V161.686C106.251 162.022 105.959 162.286 105.583 162.478C105.215 162.662 104.807 162.754 104.359 162.754C103.847 162.754 103.387 162.65 102.979 162.442C102.571 162.226 102.247 161.906 102.007 161.482C101.775 161.058 101.659 160.542 101.659 159.934V156.082H102.739V159.79C102.739 160.438 102.903 160.938 103.231 161.29C103.559 161.634 104.007 161.806 104.575 161.806C105.159 161.806 105.619 161.626 105.955 161.266C106.291 160.906 106.459 160.382 106.459 159.694V156.082H107.551ZM110.487 157.294C110.703 156.918 111.023 156.606 111.447 156.358C111.879 156.102 112.379 155.974 112.947 155.974C113.531 155.974 114.059 156.114 114.531 156.394C115.011 156.674 115.387 157.07 115.659 157.582C115.931 158.086 116.067 158.674 116.067 159.346C116.067 160.01 115.931 160.602 115.659 161.122C115.387 161.642 115.011 162.046 114.531 162.334C114.059 162.622 113.531 162.766 112.947 162.766C112.387 162.766 111.891 162.642 111.459 162.394C111.035 162.138 110.711 161.822 110.487 161.446V165.778H109.395V156.082H110.487V157.294ZM114.951 159.346C114.951 158.85 114.851 158.418 114.651 158.05C114.451 157.682 114.179 157.402 113.835 157.21C113.499 157.018 113.127 156.922 112.719 156.922C112.319 156.922 111.947 157.022 111.603 157.222C111.267 157.414 110.995 157.698 110.787 158.074C110.587 158.442 110.487 158.87 110.487 159.358C110.487 159.854 110.587 160.29 110.787 160.666C110.995 161.034 111.267 161.318 111.603 161.518C111.947 161.71 112.319 161.806 112.719 161.806C113.127 161.806 113.499 161.71 113.835 161.518C114.179 161.318 114.451 161.034 114.651 160.666C114.851 160.29 114.951 159.85 114.951 159.346ZM118.596 157.294C118.812 156.918 119.132 156.606 119.556 156.358C119.988 156.102 120.488 155.974 121.056 155.974C121.64 155.974 122.168 156.114 122.64 156.394C123.12 156.674 123.496 157.07 123.768 157.582C124.04 158.086 124.176 158.674 124.176 159.346C124.176 160.01 124.04 160.602 123.768 161.122C123.496 161.642 123.12 162.046 122.64 162.334C122.168 162.622 121.64 162.766 121.056 162.766C120.496 162.766 120 162.642 119.568 162.394C119.144 162.138 118.82 161.822 118.596 161.446V165.778H117.504V156.082H118.596V157.294ZM123.06 159.346C123.06 158.85 122.96 158.418 122.76 158.05C122.56 157.682 122.288 157.402 121.944 157.21C121.608 157.018 121.236 156.922 120.828 156.922C120.428 156.922 120.056 157.022 119.712 157.222C119.376 157.414 119.104 157.698 118.896 158.074C118.696 158.442 118.596 158.87 118.596 159.358C118.596 159.854 118.696 160.29 118.896 160.666C119.104 161.034 119.376 161.318 119.712 161.518C120.056 161.71 120.428 161.806 120.828 161.806C121.236 161.806 121.608 161.71 121.944 161.518C122.288 161.318 122.56 161.034 122.76 160.666C122.96 160.29 123.06 159.85 123.06 159.346ZM128.481 162.766C127.865 162.766 127.305 162.626 126.801 162.346C126.305 162.066 125.913 161.67 125.625 161.158C125.345 160.638 125.205 160.038 125.205 159.358C125.205 158.686 125.349 158.094 125.637 157.582C125.933 157.062 126.333 156.666 126.837 156.394C127.341 156.114 127.905 155.974 128.529 155.974C129.153 155.974 129.717 156.114 130.221 156.394C130.725 156.666 131.121 157.058 131.409 157.57C131.705 158.082 131.853 158.678 131.853 159.358C131.853 160.038 131.701 160.638 131.397 161.158C131.101 161.67 130.697 162.066 130.185 162.346C129.673 162.626 129.105 162.766 128.481 162.766ZM128.481 161.806C128.873 161.806 129.241 161.714 129.585 161.53C129.929 161.346 130.205 161.07 130.413 160.702C130.629 160.334 130.737 159.886 130.737 159.358C130.737 158.83 130.633 158.382 130.425 158.014C130.217 157.646 129.945 157.374 129.609 157.198C129.273 157.014 128.909 156.922 128.517 156.922C128.117 156.922 127.749 157.014 127.413 157.198C127.085 157.374 126.821 157.646 126.621 158.014C126.421 158.382 126.321 158.83 126.321 159.358C126.321 159.894 126.417 160.346 126.609 160.714C126.809 161.082 127.073 161.358 127.401 161.542C127.729 161.718 128.089 161.806 128.481 161.806ZM134.381 157.15C134.573 156.774 134.845 156.482 135.197 156.274C135.557 156.066 135.993 155.962 136.505 155.962V157.09H136.217C134.993 157.09 134.381 157.754 134.381 159.082V162.658H133.289V156.082H134.381V157.15ZM139.098 156.982V160.858C139.098 161.178 139.166 161.406 139.302 161.542C139.438 161.67 139.674 161.734 140.01 161.734H140.814V162.658H139.83C139.222 162.658 138.766 162.518 138.462 162.238C138.158 161.958 138.006 161.498 138.006 160.858V156.982H137.154V156.082H138.006V154.426H139.098V156.082H140.814V156.982H139.098ZM144.465 162.766C143.961 162.766 143.509 162.682 143.109 162.514C142.709 162.338 142.393 162.098 142.161 161.794C141.929 161.482 141.801 161.126 141.777 160.726H142.905C142.937 161.054 143.089 161.322 143.361 161.53C143.641 161.738 144.005 161.842 144.453 161.842C144.869 161.842 145.197 161.75 145.437 161.566C145.677 161.382 145.797 161.15 145.797 160.87C145.797 160.582 145.669 160.37 145.413 160.234C145.157 160.09 144.761 159.95 144.225 159.814C143.737 159.686 143.337 159.558 143.025 159.43C142.721 159.294 142.457 159.098 142.233 158.842C142.017 158.578 141.909 158.234 141.909 157.81C141.909 157.474 142.009 157.166 142.209 156.886C142.409 156.606 142.693 156.386 143.061 156.226C143.429 156.058 143.849 155.974 144.321 155.974C145.049 155.974 145.637 156.158 146.085 156.526C146.533 156.894 146.773 157.398 146.805 158.038H145.713C145.689 157.694 145.549 157.418 145.293 157.21C145.045 157.002 144.709 156.898 144.285 156.898C143.893 156.898 143.581 156.982 143.349 157.15C143.117 157.318 143.001 157.538 143.001 157.81C143.001 158.026 143.069 158.206 143.205 158.35C143.349 158.486 143.525 158.598 143.733 158.686C143.949 158.766 144.245 158.858 144.621 158.962C145.093 159.09 145.477 159.218 145.773 159.346C146.069 159.466 146.321 159.65 146.529 159.898C146.745 160.146 146.857 160.47 146.865 160.87C146.865 161.23 146.765 161.554 146.565 161.842C146.365 162.13 146.081 162.358 145.713 162.526C145.353 162.686 144.937 162.766 144.465 162.766ZM148.754 162.73C148.546 162.73 148.37 162.658 148.226 162.514C148.082 162.37 148.01 162.194 148.01 161.986C148.01 161.778 148.082 161.602 148.226 161.458C148.37 161.314 148.546 161.242 148.754 161.242C148.954 161.242 149.122 161.314 149.258 161.458C149.402 161.602 149.474 161.778 149.474 161.986C149.474 162.194 149.402 162.37 149.258 162.514C149.122 162.658 148.954 162.73 148.754 162.73ZM148.754 157.594C148.546 157.594 148.37 157.522 148.226 157.378C148.082 157.234 148.01 157.058 148.01 156.85C148.01 156.642 148.082 156.466 148.226 156.322C148.37 156.178 148.546 156.106 148.754 156.106C148.954 156.106 149.122 156.178 149.258 156.322C149.402 156.466 149.474 156.642 149.474 156.85C149.474 157.058 149.402 157.234 149.258 157.378C149.122 157.522 148.954 157.594 148.754 157.594ZM158.372 154.294V160.474C158.372 161.162 158.16 161.714 157.736 162.13C157.312 162.538 156.752 162.742 156.056 162.742C155.352 162.742 154.788 162.534 154.364 162.118C153.94 161.694 153.728 161.118 153.728 160.39H154.82C154.828 160.798 154.932 161.13 155.132 161.386C155.34 161.642 155.648 161.77 156.056 161.77C156.464 161.77 156.768 161.65 156.968 161.41C157.168 161.162 157.268 160.85 157.268 160.474V154.294H158.372ZM166.116 156.742C166.116 157.438 165.876 158.018 165.396 158.482C164.924 158.938 164.2 159.166 163.224 159.166H161.616V162.658H160.524V154.294H163.224C164.168 154.294 164.884 154.522 165.372 154.978C165.868 155.434 166.116 156.022 166.116 156.742ZM163.224 158.266C163.832 158.266 164.28 158.134 164.568 157.87C164.856 157.606 165 157.23 165 156.742C165 155.71 164.408 155.194 163.224 155.194H161.616V158.266H163.224ZM168.565 155.182V157.978H171.613V158.878H168.565V161.758H171.973V162.658H167.473V154.282H171.973V155.182H168.565ZM179.961 156.718C179.729 156.23 179.393 155.854 178.953 155.59C178.513 155.318 178.001 155.182 177.417 155.182C176.833 155.182 176.305 155.318 175.833 155.59C175.369 155.854 175.001 156.238 174.729 156.742C174.465 157.238 174.333 157.814 174.333 158.47C174.333 159.126 174.465 159.702 174.729 160.198C175.001 160.694 175.369 161.078 175.833 161.35C176.305 161.614 176.833 161.746 177.417 161.746C178.233 161.746 178.905 161.502 179.433 161.014C179.961 160.526 180.269 159.866 180.357 159.034H177.021V158.146H181.521V158.986C181.457 159.674 181.241 160.306 180.873 160.882C180.505 161.45 180.021 161.902 179.421 162.238C178.821 162.566 178.153 162.73 177.417 162.73C176.641 162.73 175.933 162.55 175.293 162.19C174.653 161.822 174.145 161.314 173.769 160.666C173.401 160.018 173.217 159.286 173.217 158.47C173.217 157.654 173.401 156.922 173.769 156.274C174.145 155.618 174.653 155.11 175.293 154.75C175.933 154.382 176.641 154.198 177.417 154.198C178.305 154.198 179.089 154.418 179.769 154.858C180.457 155.298 180.957 155.918 181.269 156.718H179.961ZM184.093 161.146L182.749 164.374H182.017L182.893 161.146H184.093ZM194.135 156.742C194.135 157.438 193.895 158.018 193.415 158.482C192.943 158.938 192.219 159.166 191.243 159.166H189.635V162.658H188.543V154.294H191.243C192.187 154.294 192.903 154.522 193.391 154.978C193.887 155.434 194.135 156.022 194.135 156.742ZM191.243 158.266C191.851 158.266 192.299 158.134 192.587 157.87C192.875 157.606 193.019 157.23 193.019 156.742C193.019 155.71 192.427 155.194 191.243 155.194H189.635V158.266H191.243ZM202.068 162.658H200.976L196.584 155.998V162.658H195.492V154.282H196.584L200.976 160.93V154.282H202.068V162.658ZM210.266 156.718C210.034 156.23 209.698 155.854 209.258 155.59C208.818 155.318 208.306 155.182 207.722 155.182C207.138 155.182 206.61 155.318 206.138 155.59C205.674 155.854 205.306 156.238 205.034 156.742C204.77 157.238 204.638 157.814 204.638 158.47C204.638 159.126 204.77 159.702 205.034 160.198C205.306 160.694 205.674 161.078 206.138 161.35C206.61 161.614 207.138 161.746 207.722 161.746C208.538 161.746 209.21 161.502 209.738 161.014C210.266 160.526 210.574 159.866 210.662 159.034H207.326V158.146H211.826V158.986C211.762 159.674 211.546 160.306 211.178 160.882C210.81 161.45 210.326 161.902 209.726 162.238C209.126 162.566 208.458 162.73 207.722 162.73C206.946 162.73 206.238 162.55 205.598 162.19C204.958 161.822 204.45 161.314 204.074 160.666C203.706 160.018 203.522 159.286 203.522 158.47C203.522 157.654 203.706 156.922 204.074 156.274C204.45 155.618 204.958 155.11 205.598 154.75C206.238 154.382 206.946 154.198 207.722 154.198C208.61 154.198 209.394 154.418 210.074 154.858C210.762 155.298 211.262 155.918 211.574 156.718H210.266ZM214.398 161.146L213.054 164.374H212.322L213.198 161.146H214.398ZM224.44 156.742C224.44 157.438 224.2 158.018 223.72 158.482C223.248 158.938 222.524 159.166 221.548 159.166H219.94V162.658H218.848V154.294H221.548C222.492 154.294 223.208 154.522 223.696 154.978C224.192 155.434 224.44 156.022 224.44 156.742ZM221.548 158.266C222.156 158.266 222.604 158.134 222.892 157.87C223.18 157.606 223.324 157.23 223.324 156.742C223.324 155.71 222.732 155.194 221.548 155.194H219.94V158.266H221.548ZM228.401 154.294C229.313 154.294 230.101 154.466 230.765 154.81C231.437 155.146 231.949 155.63 232.301 156.262C232.661 156.894 232.841 157.638 232.841 158.494C232.841 159.35 232.661 160.094 232.301 160.726C231.949 161.35 231.437 161.83 230.765 162.166C230.101 162.494 229.313 162.658 228.401 162.658H225.797V154.294H228.401ZM228.401 161.758C229.481 161.758 230.305 161.474 230.873 160.906C231.441 160.33 231.725 159.526 231.725 158.494C231.725 157.454 231.437 156.642 230.861 156.058C230.293 155.474 229.473 155.182 228.401 155.182H226.889V161.758H228.401ZM239.009 154.294V155.182H235.373V158.002H238.325V158.89H235.373V162.658H234.281V154.294H239.009ZM246.732 155.962C247.532 155.962 248.18 156.206 248.676 156.694C249.172 157.174 249.42 157.87 249.42 158.782V162.658H248.34V158.938C248.34 158.282 248.176 157.782 247.848 157.438C247.52 157.086 247.072 156.91 246.504 156.91C245.928 156.91 245.468 157.09 245.124 157.45C244.788 157.81 244.62 158.334 244.62 159.022V162.658H243.528V156.082H244.62V157.018C244.836 156.682 245.128 156.422 245.496 156.238C245.872 156.054 246.284 155.962 246.732 155.962ZM254.071 162.766C253.455 162.766 252.895 162.626 252.391 162.346C251.895 162.066 251.503 161.67 251.215 161.158C250.935 160.638 250.795 160.038 250.795 159.358C250.795 158.686 250.939 158.094 251.227 157.582C251.523 157.062 251.923 156.666 252.427 156.394C252.931 156.114 253.495 155.974 254.119 155.974C254.743 155.974 255.307 156.114 255.811 156.394C256.315 156.666 256.711 157.058 256.999 157.57C257.295 158.082 257.443 158.678 257.443 159.358C257.443 160.038 257.291 160.638 256.987 161.158C256.691 161.67 256.287 162.066 255.775 162.346C255.263 162.626 254.695 162.766 254.071 162.766ZM254.071 161.806C254.463 161.806 254.831 161.714 255.175 161.53C255.519 161.346 255.795 161.07 256.003 160.702C256.219 160.334 256.327 159.886 256.327 159.358C256.327 158.83 256.223 158.382 256.015 158.014C255.807 157.646 255.535 157.374 255.199 157.198C254.863 157.014 254.499 156.922 254.107 156.922C253.707 156.922 253.339 157.014 253.003 157.198C252.675 157.374 252.411 157.646 252.211 158.014C252.011 158.382 251.911 158.83 251.911 159.358C251.911 159.894 252.007 160.346 252.199 160.714C252.399 161.082 252.663 161.358 252.991 161.542C253.319 161.718 253.679 161.806 254.071 161.806ZM260.211 156.982V160.858C260.211 161.178 260.279 161.406 260.415 161.542C260.551 161.67 260.787 161.734 261.123 161.734H261.927V162.658H260.943C260.335 162.658 259.879 162.518 259.575 162.238C259.271 161.958 259.119 161.498 259.119 160.858V156.982H258.267V156.082H259.119V154.426H260.211V156.082H261.927V156.982H260.211ZM274.357 155.962C274.869 155.962 275.325 156.07 275.725 156.286C276.125 156.494 276.441 156.81 276.673 157.234C276.905 157.658 277.021 158.174 277.021 158.782V162.658H275.941V158.938C275.941 158.282 275.777 157.782 275.449 157.438C275.129 157.086 274.693 156.91 274.141 156.91C273.573 156.91 273.121 157.094 272.785 157.462C272.449 157.822 272.281 158.346 272.281 159.034V162.658H271.201V158.938C271.201 158.282 271.037 157.782 270.709 157.438C270.389 157.086 269.953 156.91 269.401 156.91C268.833 156.91 268.381 157.094 268.045 157.462C267.709 157.822 267.541 158.346 267.541 159.034V162.658H266.449V156.082H267.541V157.03C267.757 156.686 268.045 156.422 268.405 156.238C268.773 156.054 269.177 155.962 269.617 155.962C270.169 155.962 270.657 156.086 271.081 156.334C271.505 156.582 271.821 156.946 272.029 157.426C272.213 156.962 272.517 156.602 272.941 156.346C273.365 156.09 273.837 155.962 274.357 155.962ZM281.681 162.766C281.065 162.766 280.505 162.626 280.001 162.346C279.505 162.066 279.113 161.67 278.825 161.158C278.545 160.638 278.405 160.038 278.405 159.358C278.405 158.686 278.549 158.094 278.837 157.582C279.133 157.062 279.533 156.666 280.037 156.394C280.541 156.114 281.105 155.974 281.729 155.974C282.353 155.974 282.917 156.114 283.421 156.394C283.925 156.666 284.321 157.058 284.609 157.57C284.905 158.082 285.053 158.678 285.053 159.358C285.053 160.038 284.901 160.638 284.597 161.158C284.301 161.67 283.897 162.066 283.385 162.346C282.873 162.626 282.305 162.766 281.681 162.766ZM281.681 161.806C282.073 161.806 282.441 161.714 282.785 161.53C283.129 161.346 283.405 161.07 283.613 160.702C283.829 160.334 283.937 159.886 283.937 159.358C283.937 158.83 283.833 158.382 283.625 158.014C283.417 157.646 283.145 157.374 282.809 157.198C282.473 157.014 282.109 156.922 281.717 156.922C281.317 156.922 280.949 157.014 280.613 157.198C280.285 157.374 280.021 157.646 279.821 158.014C279.621 158.382 279.521 158.83 279.521 159.358C279.521 159.894 279.617 160.346 279.809 160.714C280.009 161.082 280.273 161.358 280.601 161.542C280.929 161.718 281.289 161.806 281.681 161.806ZM287.58 157.15C287.772 156.774 288.044 156.482 288.396 156.274C288.756 156.066 289.192 155.962 289.704 155.962V157.09H289.416C288.192 157.09 287.58 157.754 287.58 159.082V162.658H286.488V156.082H287.58V157.15ZM296.965 159.118C296.965 159.326 296.953 159.546 296.929 159.778H291.673C291.713 160.426 291.933 160.934 292.333 161.302C292.741 161.662 293.233 161.842 293.809 161.842C294.281 161.842 294.673 161.734 294.985 161.518C295.305 161.294 295.529 160.998 295.657 160.63H296.833C296.657 161.262 296.305 161.778 295.777 162.178C295.249 162.57 294.593 162.766 293.809 162.766C293.185 162.766 292.625 162.626 292.129 162.346C291.641 162.066 291.257 161.67 290.977 161.158C290.697 160.638 290.557 160.038 290.557 159.358C290.557 158.678 290.693 158.082 290.965 157.57C291.237 157.058 291.617 156.666 292.105 156.394C292.601 156.114 293.169 155.974 293.809 155.974C294.433 155.974 294.985 156.11 295.465 156.382C295.945 156.654 296.313 157.03 296.569 157.51C296.833 157.982 296.965 158.518 296.965 159.118ZM295.837 158.89C295.837 158.474 295.745 158.118 295.561 157.822C295.377 157.518 295.125 157.29 294.805 157.138C294.493 156.978 294.145 156.898 293.761 156.898C293.209 156.898 292.737 157.074 292.345 157.426C291.961 157.778 291.741 158.266 291.685 158.89H295.837ZM302.938 156.982V160.858C302.938 161.178 303.006 161.406 303.142 161.542C303.278 161.67 303.514 161.734 303.85 161.734H304.654V162.658H303.67C303.062 162.658 302.606 162.518 302.302 162.238C301.998 161.958 301.846 161.498 301.846 160.858V156.982H300.994V156.082H301.846V154.426H302.938V156.082H304.654V156.982H302.938ZM309.241 155.962C309.737 155.962 310.185 156.07 310.585 156.286C310.985 156.494 311.297 156.81 311.521 157.234C311.753 157.658 311.869 158.174 311.869 158.782V162.658H310.789V158.938C310.789 158.282 310.625 157.782 310.297 157.438C309.969 157.086 309.521 156.91 308.953 156.91C308.377 156.91 307.917 157.09 307.573 157.45C307.237 157.81 307.069 158.334 307.069 159.022V162.658H305.977V153.778H307.069V157.018C307.285 156.682 307.581 156.422 307.957 156.238C308.341 156.054 308.769 155.962 309.241 155.962ZM313.245 159.346C313.245 158.674 313.381 158.086 313.653 157.582C313.925 157.07 314.297 156.674 314.769 156.394C315.249 156.114 315.781 155.974 316.365 155.974C316.941 155.974 317.441 156.098 317.865 156.346C318.289 156.594 318.605 156.906 318.813 157.282V156.082H319.917V162.658H318.813V161.434C318.597 161.818 318.273 162.138 317.841 162.394C317.417 162.642 316.921 162.766 316.353 162.766C315.769 162.766 315.241 162.622 314.769 162.334C314.297 162.046 313.925 161.642 313.653 161.122C313.381 160.602 313.245 160.01 313.245 159.346ZM318.813 159.358C318.813 158.862 318.713 158.43 318.513 158.062C318.313 157.694 318.041 157.414 317.697 157.222C317.361 157.022 316.989 156.922 316.581 156.922C316.173 156.922 315.801 157.018 315.465 157.21C315.129 157.402 314.861 157.682 314.661 158.05C314.461 158.418 314.361 158.85 314.361 159.346C314.361 159.85 314.461 160.29 314.661 160.666C314.861 161.034 315.129 161.318 315.465 161.518C315.801 161.71 316.173 161.806 316.581 161.806C316.989 161.806 317.361 161.71 317.697 161.518C318.041 161.318 318.313 161.034 318.513 160.666C318.713 160.29 318.813 159.854 318.813 159.358ZM324.966 155.962C325.766 155.962 326.414 156.206 326.91 156.694C327.406 157.174 327.654 157.87 327.654 158.782V162.658H326.574V158.938C326.574 158.282 326.41 157.782 326.082 157.438C325.754 157.086 325.306 156.91 324.738 156.91C324.162 156.91 323.702 157.09 323.358 157.45C323.022 157.81 322.854 158.334 322.854 159.022V162.658H321.762V156.082H322.854V157.018C323.07 156.682 323.362 156.422 323.73 156.238C324.106 156.054 324.518 155.962 324.966 155.962ZM332.433 156.166C332.489 155.43 332.773 154.854 333.285 154.438C333.797 154.022 334.461 153.814 335.277 153.814C335.821 153.814 336.289 153.914 336.681 154.114C337.081 154.306 337.381 154.57 337.581 154.906C337.789 155.242 337.893 155.622 337.893 156.046C337.893 156.542 337.749 156.97 337.461 157.33C337.181 157.69 336.813 157.922 336.357 158.026V158.086C336.877 158.214 337.289 158.466 337.593 158.842C337.897 159.218 338.049 159.71 338.049 160.318C338.049 160.774 337.945 161.186 337.737 161.554C337.529 161.914 337.217 162.198 336.801 162.406C336.385 162.614 335.885 162.718 335.301 162.718C334.453 162.718 333.757 162.498 333.213 162.058C332.669 161.61 332.365 160.978 332.301 160.162H333.357C333.413 160.642 333.609 161.034 333.945 161.338C334.281 161.642 334.729 161.794 335.289 161.794C335.849 161.794 336.273 161.65 336.561 161.362C336.857 161.066 337.005 160.686 337.005 160.222C337.005 159.622 336.805 159.19 336.405 158.926C336.005 158.662 335.401 158.53 334.593 158.53H334.317V157.618H334.605C335.341 157.61 335.897 157.49 336.273 157.258C336.649 157.018 336.837 156.65 336.837 156.154C336.837 155.73 336.697 155.39 336.417 155.134C336.145 154.878 335.753 154.75 335.241 154.75C334.745 154.75 334.345 154.878 334.041 155.134C333.737 155.39 333.557 155.734 333.501 156.166H332.433ZM348.187 154.354V162.658H347.095V156.466L344.335 162.658H343.567L340.795 156.454V162.658H339.703V154.354H340.879L343.951 161.218L347.023 154.354H348.187ZM354.227 158.35C354.531 158.398 354.807 158.522 355.055 158.722C355.311 158.922 355.511 159.17 355.655 159.466C355.807 159.762 355.883 160.078 355.883 160.414C355.883 160.838 355.775 161.222 355.559 161.566C355.343 161.902 355.027 162.17 354.611 162.37C354.203 162.562 353.719 162.658 353.159 162.658H350.039V154.294H353.039C353.607 154.294 354.091 154.39 354.491 154.582C354.891 154.766 355.191 155.018 355.391 155.338C355.591 155.658 355.691 156.018 355.691 156.418C355.691 156.914 355.555 157.326 355.283 157.654C355.019 157.974 354.667 158.206 354.227 158.35ZM351.131 157.906H352.967C353.479 157.906 353.875 157.786 354.155 157.546C354.435 157.306 354.575 156.974 354.575 156.55C354.575 156.126 354.435 155.794 354.155 155.554C353.875 155.314 353.471 155.194 352.943 155.194H351.131V157.906ZM353.063 161.758C353.607 161.758 354.031 161.63 354.335 161.374C354.639 161.118 354.791 160.762 354.791 160.306C354.791 159.842 354.631 159.478 354.311 159.214C353.991 158.942 353.563 158.806 353.027 158.806H351.131V161.758H353.063Z" fill="#BAC3D2"/>
<rect x="1" y="1" width="449" height="190" rx="8" stroke="#DEDFEC" stroke-width="2" stroke-linecap="round" stroke-linejoin="round" stroke-dasharray="8 8"/>
<defs>
<filter id="filter0_d_822_3677" x="153.096" y="27.7549" width="84.7168" height="86.502" filterUnits="userSpaceOnUse" color-interpolation-filters="sRGB">
<feFlood flood-opacity="0" result="BackgroundImageFix"/>
<feColorMatrix in="SourceAlpha" type="matrix" values="0 0 0 0 0 0 0 0 0 0 0 0 0 0 0 0 0 0 127 0" result="hardAlpha"/>
<feOffset dy="5"/>
<feGaussianBlur stdDeviation="10"/>
<feColorMatrix type="matrix" values="0 0 0 0 0.0509804 0 0 0 0 0.6 0 0 0 0 1 0 0 0 0.11 0"/>
<feBlend mode="normal" in2="BackgroundImageFix" result="effect1_dropShadow_822_3677"/>
<feBlend mode="normal" in="SourceGraphic" in2="effect1_dropShadow_822_3677" result="shape"/>
</filter>
<filter id="filter1_d_822_3677" x="187.273" y="33.9795" width="90.7549" height="90.2295" filterUnits="userSpaceOnUse" color-interpolation-filters="sRGB">
<feFlood flood-opacity="0" result="BackgroundImageFix"/>
<feColorMatrix in="SourceAlpha" type="matrix" values="0 0 0 0 0 0 0 0 0 0 0 0 0 0 0 0 0 0 127 0" result="hardAlpha"/>
<feOffset dy="5"/>
<feGaussianBlur stdDeviation="10"/>
<feColorMatrix type="matrix" values="0 0 0 0 0.0509804 0 0 0 0 0.6 0 0 0 0 1 0 0 0 0.11 0"/>
<feBlend mode="normal" in2="BackgroundImageFix" result="effect1_dropShadow_822_3677"/>
<feBlend mode="normal" in="SourceGraphic" in2="effect1_dropShadow_822_3677" result="shape"/>
</filter>
<filter id="filter2_d_822_3677" x="192.786" y="31.4561" width="100.359" height="98.9961" filterUnits="userSpaceOnUse" color-interpolation-filters="sRGB">
<feFlood flood-opacity="0" result="BackgroundImageFix"/>
<feColorMatrix in="SourceAlpha" type="matrix" values="0 0 0 0 0 0 0 0 0 0 0 0 0 0 0 0 0 0 127 0" result="hardAlpha"/>
<feOffset dy="11"/>
<feGaussianBlur stdDeviation="15"/>
<feColorMatrix type="matrix" values="0 0 0 0 0 0 0 0 0 0 0 0 0 0 0 0 0 0 0.08 0"/>
<feBlend mode="normal" in2="BackgroundImageFix" result="effect1_dropShadow_822_3677"/>
<feBlend mode="normal" in="SourceGraphic" in2="effect1_dropShadow_822_3677" result="shape"/>
</filter>
<linearGradient id="paint0_linear_822_3677" x1="235.622" y1="47.3119" x2="229.715" y2="100.242" gradientUnits="userSpaceOnUse">
<stop stop-color="#F1F2F9"/>
<stop offset="0.9964" stop-color="white"/>
</linearGradient>
<linearGradient id="paint1_linear_822_3677" x1="257.886" y1="47.5199" x2="228.364" y2="91.8476" gradientUnits="userSpaceOnUse">
<stop stop-color="#F1F2F9"/>
<stop offset="0.9964" stop-color="#DBDFE8"/>
</linearGradient>
</defs>
</svg>
