<svg width="204" height="50" viewBox="0 0 204 50" fill="none" xmlns="http://www.w3.org/2000/svg">
<g clip-path="url(#clip0_1922_703)">
<path d="M20.8479 1.41317V15.3262C20.8491 15.7587 20.7339 16.1835 20.5143 16.556C20.2947 16.9286 19.979 17.2352 19.6 17.4436L15.6044 19.6653L0.0217603 28.361L0 10.8827L18.6435 0.239254C18.7234 0.185495 18.8095 0.141698 18.9 0.108824C19.0668 0.0346077 19.2479 -0.00247923 19.4305 0.000128585C19.6166 -0.00102103 19.801 0.034704 19.9733 0.105255C20.1454 0.175806 20.3019 0.279789 20.4337 0.411174C20.5655 0.542561 20.67 0.698743 20.741 0.87073C20.8121 1.04271 20.8485 1.22708 20.8479 1.41317Z" fill="url(#paint0_radial_1922_703)"/>
<path d="M26.8697 47.1131V27.7436C26.8672 27.1998 26.7192 26.6666 26.4409 26.1994C26.1626 25.7322 25.7641 25.3481 25.2871 25.0871L0.0348902 10.8828V33.2654C0.0278516 33.8909 0.188153 34.507 0.49929 35.0498C0.810425 35.5925 1.2611 36.0422 1.80449 36.3523L24.2348 48.687C24.5075 48.8313 24.8127 48.9026 25.121 48.8948C25.4292 48.8865 25.7302 48.7991 25.9949 48.6413C26.2596 48.4831 26.4792 48.2591 26.6324 47.9917C26.7856 47.7239 26.8673 47.4213 26.8697 47.1131Z" fill="url(#paint1_radial_1922_703)"/>
<path d="M96.6346 31.561C96.6346 33.1262 95.4911 38.8088 85.8041 38.8088H75.6172V10.8828H85.8041C94.3868 10.8828 95.4172 16.9697 95.4172 18.1697C95.4172 22.0219 92.8607 23.7784 90.5694 24.5784C93.3172 25.2306 96.6346 26.9436 96.6346 31.561ZM85.1911 12.2262H79.8128V23.748H85.9911C86.6928 23.7499 87.3876 23.6113 88.0346 23.3403C88.682 23.0692 89.2681 22.6713 89.7589 22.17C90.2494 21.6687 90.635 21.0741 90.892 20.4214C91.1494 19.7687 91.2733 19.0711 91.2563 18.3697C91.2563 14.4306 88.6998 12.2262 85.1911 12.2262ZM92.0215 31.3567C92.0215 25.5958 85.9346 25.061 84.7737 25.061H79.8128V37.3088H85.8041C85.8041 37.3088 92.0215 37.1697 92.0215 31.3567Z" fill="#4B4A94"/>
<path d="M99.687 33.0956L99.7261 19.7043H103.544V32.8651C103.544 36.4912 105.678 37.5608 107.317 37.5608C109.609 37.5608 111.17 36.8738 112.165 35.6521V19.6956H115.978V38.826H112.165V37.339C110.861 38.6229 109.108 39.3481 107.278 39.3608C101.861 39.3434 99.687 36.139 99.687 33.0956Z" fill="#4B4A94"/>
<path d="M123.8 14.1652C123.797 14.6374 123.653 15.0981 123.388 15.4888C123.122 15.8794 122.747 16.1827 122.31 16.36C121.872 16.5373 121.391 16.5808 120.929 16.485C120.467 16.3892 120.043 16.1583 119.711 15.8216C119.381 15.485 119.157 15.0576 119.068 14.5937C118.98 14.1297 119.031 13.65 119.216 13.2152C119.401 12.7805 119.71 12.4102 120.105 12.1514C120.5 11.8924 120.963 11.7566 121.435 11.7608C121.748 11.7625 122.058 11.8262 122.347 11.9481C122.636 12.07 122.898 12.2478 123.118 12.4712C123.337 12.6947 123.511 12.9594 123.628 13.2501C123.745 13.5408 123.804 13.8518 123.8 14.1652ZM123.305 38.8087H119.487V19.6783H123.305V38.8087Z" fill="#4B4A94"/>
<path d="M130.665 38.8088H126.852V10.8828H130.665V38.8088Z" fill="#4B4A94"/>
<path d="M141.996 19.7349C143.195 19.6943 144.387 19.9314 145.479 20.4277C146.571 20.924 147.534 21.666 148.291 22.5958V10.8828H152.104V38.8088H148.296V36.5219C147.187 37.9697 145.252 39.3436 142 39.3436C136.126 39.3436 133.739 35.148 133.739 29.5784C133.739 24.0088 136.122 19.7349 141.996 19.7349ZM148.296 34.6132V24.5045C143.87 18.1349 137.918 20.6132 137.918 29.5784C137.861 38.6175 143.865 40.948 148.296 34.6132Z" fill="#4B4A94"/>
<path d="M172.83 33.8393C172.83 36.8393 171.526 39.0958 168.374 39.0958C166.635 39.0958 165.583 38.3567 165.009 37.5784V38.8089H162.957V23.7784H165.009V30.0828C165.41 29.5807 165.924 29.1798 166.508 28.9124C167.093 28.6451 167.732 28.5188 168.374 28.5437C171.535 28.5437 172.83 30.8437 172.83 33.8393ZM170.57 33.8393C170.57 29.0176 167.391 27.6828 165.009 31.1089V36.5741C167.391 39.9567 170.591 38.7045 170.57 33.8393Z" fill="#4B4A94"/>
<path d="M182.604 31.5609V38.8088H180.548V37.2914C179.461 38.974 174.083 40.7696 174.083 36.2001C174.083 32.6305 177.8 33 180.548 31.9739V30.9653C180.548 29.6913 180.017 29.0783 178.661 29.0783C177.961 29.0783 176.465 29.0174 175.439 30.5131L174.861 30.3523C175.765 28.7088 177.365 28.4392 178.622 28.4392C181.556 28.4392 182.604 29.6522 182.604 31.5609ZM180.53 36.7348V32.5696C178.456 33.2261 176.304 33.2261 176.304 36.0174C176.304 38.8087 178.683 38.8913 180.53 36.7348Z" fill="#4B4A94"/>
<path d="M193.018 31.8915L192.996 38.8089H190.944V32.0133C190.944 30.0611 189.796 29.2002 188.909 29.2002C188.403 29.2032 187.905 29.3224 187.453 29.5485C187 29.7747 186.606 30.1018 186.3 30.5046V38.8002H184.248V28.522H186.3V29.6176C186.995 28.9291 187.931 28.5378 188.909 28.5263C191.848 28.522 193.018 30.2481 193.018 31.8915Z" fill="#4B4A94"/>
<path d="M198.787 33.0958L203.243 38.8045H200.635L196.722 33.7958V38.8045H194.669V23.7784H196.722V33.6784L201.448 29.3654H202.8L198.787 33.0958Z" fill="#4B4A94"/>
<path d="M43.8697 48.2565V34.3435C43.8697 33.914 43.9845 33.4923 44.2023 33.1222C44.4202 32.7522 44.7332 32.4473 45.1089 32.2392L49.1002 30.0174L64.7523 21.3217V38.8L46.0567 49.4435C45.9762 49.4961 45.8902 49.54 45.8002 49.5739C45.6332 49.6478 45.4523 49.6848 45.2697 49.6826C45.0841 49.6813 44.9002 49.6435 44.7293 49.5713C44.5584 49.4987 44.4032 49.3935 44.2732 49.2608C44.1428 49.1282 44.0406 48.9713 43.971 48.7991C43.9019 48.6265 43.8676 48.4422 43.8697 48.2565Z" fill="url(#paint2_radial_1922_703)"/>
<path d="M37.8608 2.55635V21.9259C37.8628 22.4693 38.0102 23.0022 38.2878 23.4694C38.5653 23.9365 38.9628 24.3209 39.4391 24.5824L64.7521 38.7868V16.3694C64.7517 15.7475 64.5843 15.1372 64.2677 14.6019C63.9512 14.0666 63.4969 13.626 62.9521 13.3259L40.5218 0.991131C40.2489 0.841114 39.9417 0.764601 39.6304 0.769109C39.3191 0.773618 39.0144 0.858992 38.746 1.01684C38.4777 1.1747 38.255 1.39961 38.0998 1.66951C37.9446 1.93941 37.8623 2.24502 37.8608 2.55635Z" fill="url(#paint3_radial_1922_703)"/>
</g>
<defs>
<radialGradient id="paint0_radial_1922_703" cx="0" cy="0" r="1" gradientUnits="userSpaceOnUse" gradientTransform="translate(21.5175 20.1393) scale(29.9914 29.9913)">
<stop stop-color="#9796F8"/>
<stop offset="0.19" stop-color="#9796F8"/>
<stop offset="0.4" stop-color="#7D7CF6"/>
<stop offset="0.63" stop-color="#6463C5"/>
<stop offset="0.85" stop-color="#4B4A94"/>
<stop offset="1" stop-color="#323262"/>
</radialGradient>
<radialGradient id="paint1_radial_1922_703" cx="0" cy="0" r="1" gradientUnits="userSpaceOnUse" gradientTransform="translate(22.1045 37.6697) rotate(-90) scale(40.5696 40.5696)">
<stop stop-color="#00C9F7"/>
<stop offset="0.13" stop-color="#00C3F5"/>
<stop offset="0.29" stop-color="#00B3ED"/>
<stop offset="0.48" stop-color="#0098E2"/>
<stop offset="0.68" stop-color="#0073D1"/>
<stop offset="0.89" stop-color="#0044BD"/>
<stop offset="1" stop-color="#0029B1"/>
</radialGradient>
<radialGradient id="paint2_radial_1922_703" cx="0" cy="0" r="1" gradientUnits="userSpaceOnUse" gradientTransform="translate(43.2046 29.5304) rotate(180) scale(29.9913 29.9913)">
<stop stop-color="#9796F8"/>
<stop offset="0.19" stop-color="#9796F8"/>
<stop offset="0.4" stop-color="#7D7CF6"/>
<stop offset="0.63" stop-color="#6463C5"/>
<stop offset="0.85" stop-color="#4B4A94"/>
<stop offset="1" stop-color="#323262"/>
</radialGradient>
<radialGradient id="paint3_radial_1922_703" cx="0" cy="0" r="1" gradientUnits="userSpaceOnUse" gradientTransform="translate(42.6174 11.9998) rotate(90) scale(40.5696 40.5696)">
<stop stop-color="#00C9F7"/>
<stop offset="0.13" stop-color="#00C3F5"/>
<stop offset="0.29" stop-color="#00B3ED"/>
<stop offset="0.48" stop-color="#0098E2"/>
<stop offset="0.68" stop-color="#0073D1"/>
<stop offset="0.89" stop-color="#0044BD"/>
<stop offset="1" stop-color="#0029B1"/>
</radialGradient>
<clipPath id="clip0_1922_703">
<rect width="203.478" height="50" fill="white"/>
</clipPath>
</defs>
</svg>
