<svg width="165" height="35" viewBox="0 0 165 35" fill="none" xmlns="http://www.w3.org/2000/svg">
<g clip-path="url(#clip0_4702_1168)">
<path d="M37.9399 13.7175H46.6566C51.7666 13.7175 53.4335 15.4815 53.4335 18.9306C53.4335 20.3187 52.9789 21.4219 52.1 22.2584C53.4578 23.1373 54.1912 24.4224 54.1912 26.1136C54.1912 29.5627 52.4515 31.3509 46.9112 31.3509H37.946V13.7236L37.9399 13.7175ZM46.5051 20.8945C48.5963 20.8945 49.7056 20.4399 49.7056 18.9306C49.7056 17.597 48.5963 16.9908 46.5293 16.9908H41.5406V20.8945H46.499H46.5051ZM46.9354 28.0715C49.3055 28.0715 50.4633 27.5684 50.4633 26.1076C50.4633 24.8225 49.1055 24.1678 46.9354 24.1678H41.5466V28.0715H46.9354Z" fill="#071439"/>
<path d="M59.1434 18.7548V25.3802C59.1434 27.3441 59.7253 28.5262 62.0409 28.5262C64.1079 28.5262 65.2172 27.3441 65.2172 25.0528V18.7548H68.6663V31.3448H65.2172V29.6294C64.3867 30.9387 63.0229 31.7207 61.0104 31.7207C57.5068 31.7207 55.6943 30.1871 55.6943 25.7014V18.7487H59.1434V18.7548Z" fill="#071439"/>
<path d="M72.8916 12.8386C74.3767 12.8386 75.0071 13.5175 75.0071 14.9299C75.0071 16.3423 74.3767 17.0212 72.8916 17.0212C71.4065 17.0212 70.8003 16.3423 70.8003 14.9299C70.8003 13.5175 71.4307 12.8386 72.8916 12.8386ZM71.1761 18.7548H74.6252V31.3449H71.1761V18.7548Z" fill="#071439"/>
<path d="M77.1465 31.3509V12.4628H80.5956V31.3509H77.1465Z" fill="#071439"/>
<path d="M92.6402 29.4839C91.9613 30.8417 90.749 31.7267 88.6335 31.7267C85.1844 31.7267 82.6143 29.4354 82.6143 25.0528C82.6143 20.6703 84.8571 18.379 88.5304 18.379C90.6944 18.379 91.9553 19.1609 92.6342 20.543V12.4567H96.0833V31.3448H92.6342V29.4839H92.6402ZM89.3912 28.5262C91.5552 28.5262 92.6402 27.3138 92.6402 25.0528C92.6402 22.7919 91.5552 21.5795 89.3912 21.5795C86.9726 21.5795 86.1906 22.7615 86.1906 25.0528C86.1906 27.3442 87.2757 28.5262 89.3912 28.5262Z" fill="#071439"/>
<path d="M105.151 13.7175H113.813C118.523 13.7175 120.384 15.4027 120.384 18.6517C120.384 20.3126 119.833 21.5734 118.596 22.4281C120.233 23.2586 121.142 24.5679 121.142 26.3561C121.142 29.6536 119.402 31.3448 114.141 31.3448H105.151V13.7175ZM113.892 21.3976C116.159 21.3976 117.82 20.8945 117.82 18.6517C117.82 16.8393 116.208 15.9846 113.989 15.9846H107.594V21.3976H113.892ZM114.195 29.0778C116.941 29.0778 118.578 28.4474 118.578 26.3561C118.578 24.5679 116.438 23.6586 114.147 23.6586H107.6V29.0717H114.201L114.195 29.0778Z" fill="#071439"/>
<path d="M128.653 20.446C127.016 20.446 125.028 20.6218 125.028 23.1131H122.84C122.84 19.761 125.082 18.379 128.634 18.379C132.738 18.379 134.757 19.8398 134.757 23.5677V31.3509H132.387V29.6112C131.884 30.872 130.647 31.7267 127.78 31.7267C124.482 31.7267 122.161 30.8963 122.161 27.8473C122.161 25.3802 124.1 24.2467 127.925 23.8163L132.381 23.3374V23.2889C132.381 20.6218 130.162 20.4399 128.653 20.4399V20.446ZM128.15 25.556C126.289 25.7802 124.622 26.3379 124.622 27.7988C124.622 28.9081 125.349 29.6597 128.022 29.6597C131.199 29.6597 132.253 28.1988 132.381 27.1684V25.1013L128.15 25.556Z" fill="#071439"/>
<path d="M147.262 31.3509V24.4225C147.262 22.1312 146.528 20.5915 143.485 20.5915C140.764 20.5915 139.357 22.1312 139.357 25.0226V31.3449H137.018V18.7548H139.357V20.5672C140.212 19.1791 141.673 18.3729 144.043 18.3729C147.844 18.3729 149.608 20.1611 149.608 24.2649V31.3449H147.268L147.262 31.3509Z" fill="#071439"/>
<path d="M151.869 31.3509V12.4628H154.208V31.3509H151.869ZM164.538 31.3509H161.367L154.215 25.0528L161.367 18.7548H164.538L157.385 25.0528L164.538 31.3509Z" fill="#071439"/>
<path d="M22.6888 11.3959L9.54105 7.98926V13.0386C9.54105 14.9723 10.8443 16.6574 12.7174 17.1424L16.4453 18.1062V24.5436L12.2991 23.592C10.7837 23.2464 9.3107 23.7556 8.32265 24.7619V0L0 4.27953V35L7.94077 30.9144L19.1488 33.5573C21.9614 34.2847 24.7073 32.1631 24.7073 29.2535V13.9964C24.7073 12.7658 23.8769 11.6929 22.6888 11.3899V11.3959Z" fill="url(#paint0_linear_4702_1168)"/>
</g>
<defs>
<linearGradient id="paint0_linear_4702_1168" x1="23.598" y1="7.09214" x2="3.24299" y2="26.35" gradientUnits="userSpaceOnUse">
<stop stop-color="#24B2FF"/>
<stop offset="1" stop-color="#003DCA"/>
</linearGradient>
<clipPath id="clip0_4702_1168">
<rect width="164.538" height="35" fill="white"/>
</clipPath>
</defs>
</svg>
