<svg width="319" height="88" viewBox="0 0 319 88" fill="none" xmlns="http://www.w3.org/2000/svg">
<rect width="319" height="88" rx="5" fill="#3477E4" fill-opacity="0.11"/>
<path d="M90.368 38.16C89.568 38.16 88.8213 38.0107 88.128 37.712C87.4347 37.4133 86.8267 37.0027 86.304 36.48C85.7813 35.9467 85.3707 35.3333 85.072 34.64C84.784 33.936 84.64 33.184 84.64 32.384C84.64 31.584 84.784 30.8373 85.072 30.144C85.3707 29.4507 85.776 28.8427 86.288 28.32C86.8107 27.7867 87.4133 27.376 88.096 27.088C88.7893 26.7893 89.536 26.64 90.336 26.64C91.136 26.64 91.8773 26.7893 92.56 27.088C93.2533 27.376 93.8613 27.7867 94.384 28.32C94.9067 28.8427 95.312 29.456 95.6 30.16C95.8987 30.8533 96.048 31.6 96.048 32.4C96.048 33.2 95.8987 33.952 95.6 34.656C95.312 35.3493 94.9067 35.9573 94.384 36.48C93.872 37.0027 93.2693 37.4133 92.576 37.712C91.8933 38.0107 91.1573 38.16 90.368 38.16ZM90.336 36.4C91.0933 36.4 91.7547 36.2293 92.32 35.888C92.896 35.5467 93.344 35.0773 93.664 34.48C93.9947 33.872 94.16 33.1733 94.16 32.384C94.16 31.7973 94.064 31.264 93.872 30.784C93.6907 30.2933 93.4293 29.872 93.088 29.52C92.7467 29.1573 92.3413 28.88 91.872 28.688C91.4133 28.496 90.9013 28.4 90.336 28.4C89.5893 28.4 88.928 28.5707 88.352 28.912C87.7867 29.2427 87.3387 29.7067 87.008 30.304C86.688 30.9013 86.528 31.5947 86.528 32.384C86.528 32.9707 86.6187 33.5147 86.8 34.016C86.992 34.5067 87.2533 34.928 87.584 35.28C87.9253 35.632 88.3307 35.9093 88.8 36.112C89.2693 36.304 89.7813 36.4 90.336 36.4ZM98.7351 38V29.312C98.7351 28.7253 98.8631 28.208 99.1191 27.76C99.3858 27.312 99.7485 26.96 100.207 26.704C100.676 26.448 101.215 26.32 101.823 26.32C102.292 26.32 102.692 26.4 103.023 26.56C103.354 26.72 103.663 26.9493 103.951 27.248L102.815 28.384C102.687 28.256 102.548 28.1547 102.399 28.08C102.25 28.0053 102.058 27.968 101.823 27.968C101.396 27.968 101.066 28.0853 100.831 28.32C100.607 28.544 100.495 28.8693 100.495 29.296V38H98.7351ZM96.8951 31.92V30.32H102.815V31.92H96.8951ZM104.735 38V29.312C104.735 28.7253 104.863 28.208 105.119 27.76C105.386 27.312 105.748 26.96 106.207 26.704C106.676 26.448 107.215 26.32 107.823 26.32C108.292 26.32 108.692 26.4 109.023 26.56C109.354 26.72 109.663 26.9493 109.951 27.248L108.815 28.384C108.687 28.256 108.548 28.1547 108.399 28.08C108.25 28.0053 108.058 27.968 107.823 27.968C107.396 27.968 107.066 28.0853 106.831 28.32C106.607 28.544 106.495 28.8693 106.495 29.296V38H104.735ZM102.895 31.92V30.32H108.815V31.92H102.895ZM113.31 38.16C112.542 38.16 111.848 37.9893 111.23 37.648C110.622 37.296 110.136 36.816 109.774 36.208C109.422 35.6 109.246 34.9173 109.246 34.16C109.246 33.4027 109.422 32.7253 109.774 32.128C110.126 31.52 110.6 31.04 111.198 30.688C111.806 30.336 112.478 30.16 113.214 30.16C113.928 30.16 114.558 30.3253 115.102 30.656C115.656 30.9867 116.088 31.44 116.398 32.016C116.718 32.592 116.878 33.248 116.878 33.984C116.878 34.112 116.867 34.2453 116.846 34.384C116.835 34.512 116.814 34.656 116.782 34.816H110.478V33.376H115.87L115.214 33.952C115.192 33.4827 115.102 33.088 114.942 32.768C114.782 32.448 114.552 32.2027 114.254 32.032C113.966 31.8613 113.608 31.776 113.182 31.776C112.734 31.776 112.344 31.872 112.014 32.064C111.683 32.256 111.427 32.528 111.246 32.88C111.064 33.2213 110.974 33.632 110.974 34.112C110.974 34.592 111.07 35.0133 111.262 35.376C111.454 35.7387 111.726 36.0213 112.078 36.224C112.43 36.416 112.835 36.512 113.294 36.512C113.688 36.512 114.051 36.4427 114.382 36.304C114.723 36.1653 115.011 35.9627 115.246 35.696L116.366 36.832C115.992 37.2693 115.539 37.6 115.006 37.824C114.472 38.048 113.907 38.16 113.31 38.16ZM118.289 38V30.32H120.049V38H118.289ZM120.049 33.728L119.441 33.424C119.441 32.4533 119.654 31.6693 120.081 31.072C120.518 30.464 121.174 30.16 122.049 30.16C122.433 30.16 122.779 30.2293 123.089 30.368C123.398 30.5067 123.686 30.7307 123.953 31.04L122.801 32.224C122.662 32.0747 122.507 31.968 122.337 31.904C122.166 31.84 121.969 31.808 121.745 31.808C121.254 31.808 120.849 31.9627 120.529 32.272C120.209 32.5813 120.049 33.0667 120.049 33.728ZM128.529 38V26.8H130.369V38H128.529ZM129.793 38V36.32H135.649V38H129.793ZM140.388 38.16C139.62 38.16 138.926 37.9893 138.308 37.648C137.7 37.296 137.214 36.816 136.852 36.208C136.5 35.6 136.324 34.9173 136.324 34.16C136.324 33.4027 136.5 32.7253 136.852 32.128C137.204 31.52 137.678 31.04 138.276 30.688C138.884 30.336 139.556 30.16 140.292 30.16C141.006 30.16 141.636 30.3253 142.18 30.656C142.734 30.9867 143.166 31.44 143.476 32.016C143.796 32.592 143.956 33.248 143.956 33.984C143.956 34.112 143.945 34.2453 143.924 34.384C143.913 34.512 143.892 34.656 143.86 34.816H137.556V33.376H142.948L142.292 33.952C142.27 33.4827 142.18 33.088 142.02 32.768C141.86 32.448 141.63 32.2027 141.332 32.032C141.044 31.8613 140.686 31.776 140.26 31.776C139.812 31.776 139.422 31.872 139.092 32.064C138.761 32.256 138.505 32.528 138.324 32.88C138.142 33.2213 138.052 33.632 138.052 34.112C138.052 34.592 138.148 35.0133 138.34 35.376C138.532 35.7387 138.804 36.0213 139.156 36.224C139.508 36.416 139.913 36.512 140.372 36.512C140.766 36.512 141.129 36.4427 141.46 36.304C141.801 36.1653 142.089 35.9627 142.324 35.696L143.444 36.832C143.07 37.2693 142.617 37.6 142.084 37.824C141.55 38.048 140.985 38.16 140.388 38.16ZM146.332 38V27.12H148.092V38H146.332ZM144.492 31.92V30.32H149.932V31.92H144.492ZM152.113 38V27.12H153.873V38H152.113ZM150.273 31.92V30.32H155.713V31.92H150.273ZM160.341 38.16C159.573 38.16 158.88 37.9893 158.261 37.648C157.653 37.296 157.168 36.816 156.805 36.208C156.453 35.6 156.277 34.9173 156.277 34.16C156.277 33.4027 156.453 32.7253 156.805 32.128C157.157 31.52 157.632 31.04 158.229 30.688C158.837 30.336 159.509 30.16 160.245 30.16C160.96 30.16 161.589 30.3253 162.133 30.656C162.688 30.9867 163.12 31.44 163.429 32.016C163.749 32.592 163.909 33.248 163.909 33.984C163.909 34.112 163.898 34.2453 163.877 34.384C163.866 34.512 163.845 34.656 163.813 34.816H157.509V33.376H162.901L162.245 33.952C162.224 33.4827 162.133 33.088 161.973 32.768C161.813 32.448 161.584 32.2027 161.285 32.032C160.997 31.8613 160.64 31.776 160.213 31.776C159.765 31.776 159.376 31.872 159.045 32.064C158.714 32.256 158.458 32.528 158.277 32.88C158.096 33.2213 158.005 33.632 158.005 34.112C158.005 34.592 158.101 35.0133 158.293 35.376C158.485 35.7387 158.757 36.0213 159.109 36.224C159.461 36.416 159.866 36.512 160.325 36.512C160.72 36.512 161.082 36.4427 161.413 36.304C161.754 36.1653 162.042 35.9627 162.277 35.696L163.397 36.832C163.024 37.2693 162.57 37.6 162.037 37.824C161.504 38.048 160.938 38.16 160.341 38.16ZM165.32 38V30.32H167.08V38H165.32ZM167.08 33.728L166.472 33.424C166.472 32.4533 166.685 31.6693 167.112 31.072C167.549 30.464 168.205 30.16 169.08 30.16C169.464 30.16 169.81 30.2293 170.12 30.368C170.429 30.5067 170.717 30.7307 170.984 31.04L169.832 32.224C169.693 32.0747 169.538 31.968 169.368 31.904C169.197 31.84 169 31.808 168.776 31.808C168.285 31.808 167.88 31.9627 167.56 32.272C167.24 32.5813 167.08 33.0667 167.08 33.728Z" fill="#181D27"/>
<path d="M89.558 64.14C88.858 64.14 88.2093 64.014 87.612 63.762C87.0147 63.5007 86.492 63.1413 86.044 62.684C85.6053 62.2267 85.2647 61.6947 85.022 61.088C84.7793 60.4813 84.658 59.8327 84.658 59.142C84.658 58.442 84.7793 57.7887 85.022 57.182C85.2647 56.5753 85.6053 56.048 86.044 55.6C86.492 55.1427 87.01 54.788 87.598 54.536C88.1953 54.2747 88.844 54.144 89.544 54.144C90.3093 54.144 90.9813 54.2747 91.56 54.536C92.1387 54.7973 92.652 55.152 93.1 55.6L92.19 56.51C91.882 56.1647 91.504 55.894 91.056 55.698C90.6173 55.502 90.1133 55.404 89.544 55.404C89.0307 55.404 88.5593 55.4973 88.13 55.684C87.7007 55.8613 87.3273 56.118 87.01 56.454C86.6927 56.79 86.4453 57.1867 86.268 57.644C86.1 58.1013 86.016 58.6007 86.016 59.142C86.016 59.6833 86.1 60.1827 86.268 60.64C86.4453 61.0973 86.6927 61.494 87.01 61.83C87.3273 62.166 87.7007 62.4273 88.13 62.614C88.5593 62.7913 89.0307 62.88 89.544 62.88C90.1507 62.88 90.678 62.782 91.126 62.586C91.574 62.3807 91.952 62.1053 92.26 61.76L93.17 62.656C92.722 63.1227 92.1947 63.4867 91.588 63.748C90.9907 64.0093 90.314 64.14 89.558 64.14ZM94.5627 64V54.004H95.8227V64H94.5627ZM97.6802 64V57.35H98.9402V64H97.6802ZM98.3102 56.02C98.0769 56.02 97.8855 55.9453 97.7362 55.796C97.5869 55.6373 97.5122 55.4413 97.5122 55.208C97.5122 54.984 97.5869 54.7973 97.7362 54.648C97.8855 54.4893 98.0769 54.41 98.3102 54.41C98.5435 54.41 98.7349 54.4893 98.8842 54.648C99.0335 54.7973 99.1082 54.984 99.1082 55.208C99.1082 55.4413 99.0335 55.6373 98.8842 55.796C98.7349 55.9453 98.5435 56.02 98.3102 56.02ZM103.835 64.14C103.182 64.14 102.589 63.986 102.057 63.678C101.534 63.37 101.119 62.9547 100.811 62.432C100.512 61.9 100.363 61.312 100.363 60.668C100.363 60.0147 100.512 59.4267 100.811 58.904C101.119 58.3813 101.534 57.9707 102.057 57.672C102.589 57.364 103.182 57.21 103.835 57.21C104.348 57.21 104.824 57.308 105.263 57.504C105.702 57.6907 106.08 57.966 106.397 58.33L105.557 59.17C105.352 58.9273 105.1 58.7453 104.801 58.624C104.512 58.4933 104.19 58.428 103.835 58.428C103.415 58.428 103.042 58.526 102.715 58.722C102.388 58.9087 102.132 59.17 101.945 59.506C101.758 59.842 101.665 60.2293 101.665 60.668C101.665 61.1067 101.758 61.494 101.945 61.83C102.132 62.166 102.388 62.432 102.715 62.628C103.042 62.824 103.415 62.922 103.835 62.922C104.19 62.922 104.512 62.8613 104.801 62.74C105.1 62.6093 105.356 62.4227 105.571 62.18L106.397 63.02C106.089 63.3747 105.711 63.65 105.263 63.846C104.824 64.042 104.348 64.14 103.835 64.14ZM111.903 64L108.795 60.598L111.875 57.35H113.401L109.971 60.934L110.027 60.206L113.527 64H111.903ZM107.647 64V54.004H108.907V64H107.647ZM118.553 64V54.564H119.813V64H118.553ZM116.915 58.498V57.35H121.451V58.498H116.915ZM125.519 64.14C124.865 64.14 124.277 63.986 123.755 63.678C123.232 63.37 122.817 62.9547 122.509 62.432C122.201 61.9 122.047 61.3073 122.047 60.654C122.047 60.01 122.201 59.4313 122.509 58.918C122.817 58.3953 123.232 57.98 123.755 57.672C124.277 57.364 124.865 57.21 125.519 57.21C126.163 57.21 126.746 57.364 127.269 57.672C127.801 57.9707 128.221 58.3813 128.529 58.904C128.837 59.4267 128.991 60.01 128.991 60.654C128.991 61.3073 128.837 61.9 128.529 62.432C128.221 62.9547 127.801 63.37 127.269 63.678C126.746 63.986 126.163 64.14 125.519 64.14ZM125.519 62.922C125.939 62.922 126.312 62.824 126.639 62.628C126.965 62.432 127.222 62.166 127.409 61.83C127.595 61.4847 127.689 61.0927 127.689 60.654C127.689 60.2247 127.591 59.842 127.395 59.506C127.208 59.17 126.951 58.9087 126.625 58.722C126.307 58.526 125.939 58.428 125.519 58.428C125.099 58.428 124.725 58.526 124.399 58.722C124.072 58.9087 123.815 59.17 123.629 59.506C123.442 59.842 123.349 60.2247 123.349 60.654C123.349 61.0927 123.442 61.4847 123.629 61.83C123.815 62.166 124.072 62.432 124.399 62.628C124.725 62.824 125.099 62.922 125.519 62.922ZM135.604 64L132.552 57.35H133.952L136.402 62.964H135.59L138.054 57.35H139.398L136.346 64H135.604ZM140.487 64V57.35H141.747V64H140.487ZM141.117 56.02C140.883 56.02 140.692 55.9453 140.543 55.796C140.393 55.6373 140.319 55.4413 140.319 55.208C140.319 54.984 140.393 54.7973 140.543 54.648C140.692 54.4893 140.883 54.41 141.117 54.41C141.35 54.41 141.541 54.4893 141.691 54.648C141.84 54.7973 141.915 54.984 141.915 55.208C141.915 55.4413 141.84 55.6373 141.691 55.796C141.541 55.9453 141.35 56.02 141.117 56.02ZM146.684 64.14C146.021 64.14 145.424 63.9907 144.892 63.692C144.36 63.384 143.94 62.9687 143.632 62.446C143.324 61.9233 143.17 61.3307 143.17 60.668C143.17 60.0147 143.319 59.4267 143.618 58.904C143.926 58.3813 144.336 57.9707 144.85 57.672C145.372 57.364 145.956 57.21 146.6 57.21C147.216 57.21 147.757 57.35 148.224 57.63C148.7 57.91 149.068 58.2973 149.33 58.792C149.6 59.2867 149.736 59.8467 149.736 60.472C149.736 60.5653 149.731 60.668 149.722 60.78C149.712 60.8827 149.694 61.004 149.666 61.144H144.052V60.094H148.994L148.532 60.5C148.532 60.052 148.452 59.674 148.294 59.366C148.135 59.0487 147.911 58.806 147.622 58.638C147.332 58.4607 146.982 58.372 146.572 58.372C146.142 58.372 145.764 58.4653 145.438 58.652C145.111 58.8387 144.859 59.1 144.682 59.436C144.504 59.772 144.416 60.1687 144.416 60.626C144.416 61.0927 144.509 61.5033 144.696 61.858C144.882 62.2033 145.148 62.474 145.494 62.67C145.839 62.8567 146.236 62.95 146.684 62.95C147.057 62.95 147.398 62.8847 147.706 62.754C148.023 62.6233 148.294 62.4273 148.518 62.166L149.33 62.992C149.012 63.3653 148.62 63.65 148.154 63.846C147.696 64.042 147.206 64.14 146.684 64.14ZM152.932 64L150.3 57.35H151.616L153.52 62.53H153.1L154.99 57.35H155.718L157.608 62.53H157.188L159.092 57.35H160.408L157.79 64H157.048L155.13 58.974H155.592L153.66 64H152.932Z" fill="#555555"/>
<circle cx="44" cy="44" r="24" fill="white"/>
<path fill-rule="evenodd" clip-rule="evenodd" d="M46.737 34.7617H40.084C38.025 34.7617 36.25 36.4307 36.25 38.4907V49.2037C36.25 51.3797 37.909 53.1147 40.084 53.1147H48.073C50.133 53.1147 51.802 51.2647 51.802 49.2037V40.0377L46.737 34.7617Z" stroke="#3477E4" stroke-opacity="0.11" stroke-linecap="round" stroke-linejoin="round"/>
<path d="M46.4746 34.75V37.659C46.4746 39.079 47.6236 40.231 49.0426 40.234C50.3596 40.237 51.7066 40.238 51.7976 40.232" stroke="#3477E4" stroke-opacity="0.11" stroke-linecap="round" stroke-linejoin="round"/>
<path opacity="0.4" d="M46.2837 47.5586H40.8867" stroke="#3477E4" stroke-opacity="0.11" stroke-linecap="round" stroke-linejoin="round"/>
<path opacity="0.4" d="M44.2427 42.6055H40.8867" stroke="#3477E4" stroke-opacity="0.11" stroke-linecap="round" stroke-linejoin="round"/>
<path d="M288 38L294 44L288 50" stroke="black" stroke-width="2" stroke-linecap="round" stroke-linejoin="round"/>
</svg>
