<svg width="41" height="40" viewBox="0 0 41 40" fill="none" xmlns="http://www.w3.org/2000/svg">
<path d="M22.252 15H12.252" stroke="#292D32" stroke-width="1.5" stroke-linecap="round" stroke-linejoin="round"/>
<path d="M37.2521 18.2833V21.7167C37.2521 22.6334 36.5188 23.3833 35.5855 23.4167H32.3188C30.5188 23.4167 28.8688 22.1 28.7188 20.3C28.6188 19.25 29.0188 18.2667 29.7188 17.5833C30.3354 16.95 31.1855 16.5834 32.1188 16.5834H35.5855C36.5188 16.6167 37.2521 17.3666 37.2521 18.2833Z" stroke="#292D32" stroke-width="1.5" stroke-linecap="round" stroke-linejoin="round"/>
<path d="M29.7189 17.5833C29.0189 18.2666 28.619 19.25 28.719 20.3C28.869 22.1 30.5189 23.4166 32.3189 23.4166H35.5856V25.8333C35.5856 30.8333 32.2523 34.1666 27.2523 34.1666H12.2523C7.25228 34.1666 3.91895 30.8333 3.91895 25.8333V14.1666C3.91895 9.63331 6.65228 6.46664 10.9023 5.93331C11.3356 5.86664 11.7856 5.83331 12.2523 5.83331H27.2523C27.6856 5.83331 28.1023 5.84996 28.5023 5.91663C32.8023 6.41663 35.5856 9.59998 35.5856 14.1666V16.5833H32.1189C31.1856 16.5833 30.3356 16.95 29.7189 17.5833Z" stroke="#292D32" stroke-width="1.5" stroke-linecap="round" stroke-linejoin="round"/>
</svg>
