<svg width="41" height="40" viewBox="0 0 41 40" fill="none" xmlns="http://www.w3.org/2000/svg">
<path d="M37.252 9.99998V14.0333C37.252 16.6666 35.5853 18.3333 32.952 18.3333H27.252V6.68331C27.252 4.83331 28.7686 3.33331 30.6186 3.33331C32.4353 3.34998 34.102 4.08331 35.302 5.28331C36.502 6.49998 37.252 8.16665 37.252 9.99998Z" stroke="#292D32" stroke-width="1.5" stroke-miterlimit="10" stroke-linecap="round" stroke-linejoin="round"/>
<path d="M3.91895 11.6666V35C3.91895 36.3833 5.48561 37.1667 6.58561 36.3333L9.43561 34.2C10.1023 33.7 11.0356 33.7667 11.6356 34.3667L14.4023 37.15C15.0523 37.8 16.1189 37.8 16.7689 37.15L19.5689 34.35C20.1523 33.7666 21.0856 33.7 21.7356 34.2L24.5856 36.3333C25.6856 37.15 27.2523 36.3666 27.2523 35V6.66665C27.2523 4.83331 28.7523 3.33331 30.5856 3.33331H12.2523H10.5856C5.58561 3.33331 3.91895 6.31665 3.91895 9.99998V11.6666Z" stroke="#292D32" stroke-width="1.5" stroke-miterlimit="10" stroke-linecap="round" stroke-linejoin="round"/>
<path d="M15.5854 21.6833H20.5854" stroke="#292D32" stroke-width="1.5" stroke-linecap="round" stroke-linejoin="round"/>
<path d="M15.5854 15.0167H20.5854" stroke="#292D32" stroke-width="1.5" stroke-linecap="round" stroke-linejoin="round"/>
<path d="M10.5781 21.6667H10.5931" stroke="#292D32" stroke-width="2" stroke-linecap="round" stroke-linejoin="round"/>
<path d="M10.5781 15H10.5931" stroke="#292D32" stroke-width="2" stroke-linecap="round" stroke-linejoin="round"/>
</svg>
