<svg width="41" height="40" viewBox="0 0 41 40" fill="none" xmlns="http://www.w3.org/2000/svg">
<path d="M21.5407 36.6669H7.50739C5.57406 36.6669 3.99072 35.1169 3.99072 33.2169V8.48353C3.99072 4.11686 7.24072 2.13353 11.2241 4.08353L18.6241 7.71686C20.2241 8.50019 21.5407 10.5835 21.5407 12.3502V36.6669Z" stroke="#292D32" stroke-width="1.5" stroke-linecap="round" stroke-linejoin="round"/>
<path d="M37.3243 25.1002V31.4002C37.3243 35.0002 35.6577 36.6668 32.0577 36.6668H21.541V17.3668L22.3243 17.5335L29.8243 19.2168L33.2077 19.9668C35.4077 20.4502 37.2077 21.5835 37.3077 24.7835C37.3243 24.8835 37.3243 24.9835 37.3243 25.1002Z" stroke="#292D32" stroke-width="1.5" stroke-linecap="round" stroke-linejoin="round"/>
<path d="M9.87402 15.0002H15.6574" stroke="#292D32" stroke-width="1.5" stroke-linecap="round" stroke-linejoin="round"/>
<path d="M9.87402 21.6669H15.6574" stroke="#292D32" stroke-width="1.5" stroke-linecap="round" stroke-linejoin="round"/>
<path d="M29.8242 19.2168V24.5835C29.8242 26.6502 28.1409 28.3335 26.0742 28.3335C24.0076 28.3335 22.3242 26.6502 22.3242 24.5835V17.5335L29.8242 19.2168Z" stroke="#292D32" stroke-width="1.5" stroke-linecap="round" stroke-linejoin="round"/>
<path d="M37.3076 24.7835C37.2076 26.7502 35.5742 28.3335 33.5742 28.3335C31.5076 28.3335 29.8242 26.6502 29.8242 24.5835V19.2169L33.2076 19.9669C35.4076 20.4502 37.2076 21.5835 37.3076 24.7835Z" stroke="#292D32" stroke-width="1.5" stroke-linecap="round" stroke-linejoin="round"/>
</svg>
