<?xml version="1.0" encoding="UTF-8"?>
<svg version="1.1" viewBox="0 0 2048 2048" width="1280" height="1280" xmlns="http://www.w3.org/2000/svg">
<path transform="translate(0)" d="m0 0h2048v2048h-2048z" fill="#FBFBFB"/>
<path transform="translate(733,555)" d="m0 0h570l26 1 9 2 8 3 10 4 10 5 14 10 12 11 11 13 9 15 5 9 6 19 2 5 2 16 1 3v59h76l9 3 8 5 7 7 4 8 1 3v133l-2 260-4 11-6 8-5 4-12 6h-77v263h202l8 5 5 6 3 6v18l-3 9-9 9-6 1-62 2-268 1h-689l-137-1-12-1-27-1-8-3-6-5-5-10v-18l3-7 5-6 9-5 199-1 1-238-5-2-4-3v-115l6-5 2-1v-34l-7-4v-118l5-4h3v-62l-6-1-2-3v-57l5-6 3-1 1-116 2-17 6-20 7-16 7-10 4-6 11-13 11-10 15-10 11-6 15-5z" fill="#3A8FDB"/>
<path transform="translate(739,601)" d="m0 0h379l202 1 9 2 12 4 10 6 10 8 8 9 6 10 5 10 4 14 1 6v36l-1 22h-155l-101-1h-50l-63-1-126-1h-92l-10 4-8 6-7 11-1 3-1 13-1 92-1 149v142l3 8 7 9 9 6 12 3 57 1 527 4 1 1v263h-710v-738l1-42 3-11 8-16 7-9 7-7 12-8 13-6 12-2z" fill="#FBFBFB"/>
<path transform="translate(733,555)" d="m0 0h570l26 1 9 2 8 3 10 4 10 5 14 10 12 11 11 13 9 15 5 9 6 19 2 5 2 16v61h-42l-1-58-4-17-5-12-6-9-7-9-8-7-13-8-14-5-7-1-202-1h-379l-10 2-11 4-11 6-10 8-8 9-7 12-3 7-3 11-1 42-1 738h710v-179l1-84h41v263h203l8 5 5 6 3 6v18l-3 9-9 9-6 1-62 2-268 1h-689l-137-1-12-1-27-1-8-3-6-5-5-10v-18l3-7 5-6 9-5 199-1 1-238-5-2-4-3v-115l6-5 2-1v-34l-7-4v-118l5-4h3v-62l-6-1-2-3v-57l5-6 3-1 1-116 2-17 6-20 7-16 7-10 4-6 11-13 11-10 15-10 11-6 15-5z" fill="#383D50"/>
<path transform="translate(1427,671)" d="m0 0h1v59h76l9 3 8 5 7 7 4 8 1 3v133l-1 119h-1v-22l-24 5-21 3-15 1h-16l-29-3-29-6-23-7-27-11-23-11-20-12-20-14-18-14-8-7-2-1v-2l-4-2-15-14-17-17-7-8-9-10-10-13-12-16-10-15-12-19-9-16-8-16-12-28-1-5h99l155 1v-22h1v22h42z" fill="#60A5E3"/>
<path transform="translate(816,1255)" d="m0 0h261l14 3 11 6 9 7 9 12 6 15 1 7v10l-5 16-7 12-8 8-10 6-9 4-11 2h-263l-12-3-13-7-11-11-7-12-4-13v-17l5-15 8-11 8-8h2v-2l6-3 9-4z" fill="#25B962"/>
<path transform="translate(772,888)" d="m0 0 4 1 11 9 10 11 5 10 2 6 4 34 4 41 4 22 4 14 5 13 7 12 9 10 8 8 11 9 14 10 15 10 15 9 25 14 29 17 11 8 8 8 3 5-2 5h-122l-57-1-12-3-9-6-6-7-4-7-1-4v-142h1l1 10 1-84 1-41z" fill="#60A5E3"/>
<path transform="translate(429,1494)" d="m0 0 30 1 12 1 152 1h687l255-1 26-1h36v1l-16 2-18 6-13 3-23 2h-186l-16 1-5 1-34 1h-33l-154-1h-196l-277 1-52-1-105-1-26-3-16-4-10-3-17-4z" fill="#AFAFAF"/>
<path transform="translate(430,1496)" d="m0 0 12 2 13 3 12 4 20 3 14 1 109 1 48 1 289-1h203l158 1h19l23-1 5-1 16-1h190l19-2 19-5 12-4h12l-1 2-5 1v2l-4 3-10 3 1 3h-2v-2l-15 4-3 2-7 1-1-1h-9l-8 1-1 2-3-1h-54l1 2h-10l-2-2h-104l-2 1v-2h-31-3-7l-1 3-16 8-17 10-13 8-16 9-2-1 5-5 7-1v-2h3l1-3 7-2v-2h3v-2l12-6 2-2-3-2-49-2-19-1h-115l-157-1-199 1h-32l-58 1-30 1-19 1-12-3-10-4-13-1-15 1h-8l-4 1-2-1h-29l-30-1h-10l-21-2-8-1h-3l1-2-11-1-14-4-12-6-3-3-3-1z" fill="#E5E6E6"/>
<path transform="translate(847,863)" d="m0 0h95l9 2 5 4 2 4v69l-6 7-4 2-6 1h-37l-56-1-8-3-5-6v-69l6-7h2v-2z" fill="#FDD680"/>
<path transform="translate(1220,1254)" d="m0 0h12l8 2 8 3 12 7 9 9 7 11 4 12 1 15-2 13-7 13-8 10-13 9-12 5-7 1h-15l-10-3-13-7-10-10-7-11-5-14v-19l3-12 6-10 9-10 11-8 6-3z" fill="#23B960"/>
<path transform="translate(291,627)" d="m0 0h15l10 3 11 6 11 11 7 14 2 9v11l-3 12-6 11-9 10-12 7-11 3h-16l-13-4-11-7-8-9-7-14-2-9v-9l2-10 5-12 11-12 8-6 11-4z" fill="#FAFBFB"/>
<path transform="translate(430,1496)" d="m0 0 12 2 13 3 12 4 20 3 14 1 109 1 48 1 289-1h203l158 1h19l23-1 5-1 16-1h190l19-2 19-5 12-4h12l-1 2-5 1v2l-4 3-10 3 1 3h-2v-2l-15 4-3 2-7 1-1-1h-9l-8 1-1 2-3-1h-54l1 2h-10l-2-2h-104l-2 1v-2h-31-3l-9 2-4 1-2-1v-2h-21l-24 1-31-1h-29l-53-1h-424l-11 1h-68l-16 1-12-1-5 1-10-1h-9l-10-1-52-1h-52l-25-2-17-3-11-3-11-4-7-3-7-1z" fill="#CCF4FD"/>
<path transform="translate(429,1494)" d="m0 0 30 1 12 1 152 1h687l255-1 26-1h36v1l-31 1-20 2-22 1h-195l-20 1-67 1-436-1-77 1h-50l-125-1h-92l-34-3-7-1-21-1z" fill="#3A8FDA"/>
<path transform="translate(1702,1629)" d="m0 0h14l10 4 8 6 6 8 3 7v15l-4 10-9 10-12 6-5 1-13-1-10-5-8-7-6-12-1-4v-9l3-10 6-9 8-6z" fill="#3B8FDB"/>
<path transform="translate(1079,727)" d="m0 0h49v1h-47l11 27 18 36 10 17 12 19 11 16 9 12 18 22 16 17 14 15 16 15 10 9 14 11 13 10 17 11 18 11 24 13 23 11 12 5 12 7 3 9v25l-3 7-5 4h-12l-5-5-1-4v-30l3-5 4-3h2v-2l-9-2-16-7-32-16-20-12-20-14-10-8-16-13-12-11-8-7-24-24-7-8-12-14-11-14-12-16-16-25-9-15-10-18-11-23-11-26-1-7z" fill="#61A6E4"/>
<path transform="translate(850,1277)" d="m0 0h26l8 2 5 4 3 8v35l-4 9-5 4-4 2h-29z" fill="#F5F8F9"/>
<path transform="translate(915,1276)" d="m0 0h17l5 3v2l3 1 4 9v36l-5 10-5 4-4 1h-15l-7-3-5-7-2-9v-28l3-10 6-7z" fill="#F4F7F8"/>
<path transform="translate(291,627)" d="m0 0h15l10 3 11 6 11 11 7 14 2 9v11l-3 12-6 11-9 10-12 7-11 3h-16l-13-4-11-7-8-9-7-14-2-9v-9l2-10 5-12 11-12 8-6 11-4zm-2 9-12 5-10 9-6 9-3 9v17l4 9 6 9 8 7 12 5 5 1h11l10-3 10-6 8-9 4-8 2-7v-16l-4-10-6-9-9-7-9-4-4-1z" fill="#3E91DB"/>
<path transform="translate(459,1819)" d="m0 0h8l9 3 9 7 5 9 1 5v9l-5 10-7 7-9 4h-13l-10-5-5-4-5-8-1-4v-12l4-9 7-7 8-4z" fill="#FAFAFA"/>
<path transform="translate(1902,551)" d="m0 0h9l14 3 12 6 9 8 7 10 4 9 2 9v14l-4 14-6 10-9 10-9 6-10 4-5 1h-18l-13-4-8-4-10-9-6-9-5-13-1-4v-19l4-12 6-10 9-9 16-8zm-3 8-10 3-9 5-6 5-6 9-5 12-1 6v8l3 12 6 11 4 5 11 8 10 4 4 1h15l12-4 9-7 7-8 7-14 1-4v-16l-4-12-7-10-9-8-11-5-4-1z" fill="#FED780"/>
<path transform="translate(955,1277)" d="m0 0h16l2 1 5 19 5 21 3 8v-49h11l1 2v61l-1 1h-18l-5-18-4-17-3-10-1-1-1 46h-11v-63z" fill="#F2F4F6"/>
<path transform="translate(403,482)" d="m0 0h12l10 5 7 8 3 8v8l-6 12-9 7-9 2-11-2-7-4-6-9-2-5v-12l4-8 8-7z" fill="#FED780"/>
<path transform="translate(1009,1277)" d="m0 0h34v11h-22l1 14h15l5 2v9h-21v17l23 1v10l-7 1h-26l-3-2v-62z" fill="#EFF4F6"/>
<path transform="translate(1256,1280)" d="m0 0 4 2 6 6v4l-8 7-33 33-5 6h-5l-9-10-17-16-2-3 1-5 5-4 3-3 10 9 10 11 4-1 15-16 5-5z" fill="#F3F6F8"/>
<path transform="translate(1061,508)" d="m0 0h6l5 5 3 2-2 6-3 1-1 2-1 1-2 4 2 1-7 3-2 2 1 2-3 3h-12l-7 2h-15l-24 1h-15l4-3 2-7 10-5 2 2v3h6v-2l9 1h21l3-2-3-4 2-4 7-3 6-3v-1l-7-1v-2l5-1h9z" fill="#E5E6E6"/>
<path transform="translate(1377,1010)" d="m0 0h11l5 4 3 6v22l-2 9-4 5-5 2h-7l-5-2-4-8v-30l3-5z" fill="#CCF4FD"/>
<path transform="translate(845,1006)" d="m0 0h11l5 4 2 5v29l-5 8-5 2h-8l-6-5-2-4-1-6v-15l2-11 5-6z" fill="#CCF4FD"/>
<path transform="translate(1213,1008)" d="m0 0 9 1 5 5 2 5v26l-3 7-3 3-3 1h-10l-5-4-3-9v-20l3-10 5-4z" fill="#CEF3FB"/>
<path transform="translate(1411,1010)" d="m0 0h8l5 3 4 6 1 6v18l-2 8-5 6-4 1h-8l-6-5-2-6v-27l4-7z" fill="#CCF4FD"/>
<path transform="translate(1181,1008)" d="m0 0 10 2 4 5 1 5v23l-2 7-5 5-2 1h-11l-5-5-2-10v-15l2-11 4-5z" fill="#DEE9EB"/>
<path transform="translate(1345,1009)" d="m0 0h9l5 3 3 9v25l-3 7-5 4h-12l-5-5-1-4v-30l3-5z" fill="#CCF5FE"/>
<path transform="translate(1012,1007)" d="m0 0h8l5 3 4 6 1 9v14l-2 10-5 5-3 1h-10l-5-5-2-6v-23l3-9 4-4z" fill="#CCF4FD"/>
<path transform="translate(913,1006)" d="m0 0 10 1 5 5 2 9v19l-3 9-6 5h-11l-5-5-2-8v-19l2-9 5-6z" fill="#CCF5FE"/>
<path transform="translate(944,1007)" d="m0 0h10l5 3 3 4 1 7v19l-2 8-5 6h-13l-5-5-1-2-1-9v-14l2-11 4-5z" fill="#DEE9EB"/>
<path transform="translate(1617,1497)" d="m0 0h6l-1 2-5 1v2l-4 3-10 3 1 3h-2v-2l-15 4-3 2-7 1-1-1h-9l-8 1-1 2-3-1h-54l1 2h-10l-2-2h-104l-2 1v-2h-31-3-5l4-3 3-1 215-1 14-2 16-3 12-5z" fill="#E5E6E6"/>
<path transform="translate(879,1006)" d="m0 0h9l6 4 2 4v31l-4 6-5 3h-10l-5-6-2-7v-22l3-9z" fill="#CCF4FD"/>
<path transform="translate(1278,1009)" d="m0 0h8l6 3 3 6v28l-4 8-6 3h-8l-5-3-3-8v-24l2-7 5-5z" fill="#CCF5FE"/>
<path transform="translate(1244,1009)" d="m0 0h10l6 4 2 5v29l-4 6-4 3-9 1-5-2-3-5-1-4v-27l3-6z" fill="#CCF4FD"/>
<path transform="translate(1047,1007)" d="m0 0 9 1 5 5 1 3 1 24-2 9-7 6h-10l-4-2-3-5-1-5v-19l2-10 4-5z" fill="#CCF5FE"/>
<path transform="translate(1445,1010)" d="m0 0 9 1 6 5 2 13-1 19-3 7-5 3h-11l-4-4-2-5-1-6v-18l2-8 5-6z" fill="#CCF5FE"/>
<path transform="translate(1082,1007)" d="m0 0 8 2 4 4 2 10v17l-2 9-4 5-6 2-8-1-5-5-1-4v-28l3-6 5-4z" fill="#CCF5FE"/>
<path transform="translate(1111,1008)" d="m0 0h9l5 3 3 4 1 22-1 11-4 6-6 2h-7l-5-3-3-9v-23l3-9z" fill="#DEE9EC"/>
<path transform="translate(459,1819)" d="m0 0h8l9 3 9 7 5 9 1 5v9l-5 10-7 7-9 4h-13l-10-5-5-4-5-8-1-4v-12l4-9 7-7 8-4zm0 6-8 4-7 8-2 7 1 9 4 7 7 6 3 1h13l6-3 7-8 2-5v-8l-4-10-7-6-4-2z" fill="#FED780"/>
<path transform="translate(920,1285)" d="m0 0h6l4 5 1 2 1 30-2 7-5 4-7-1-4-6v-34l4-6z" fill="#24B960"/>
<path transform="translate(586,1026)" d="m0 0 3 4-1 11v6l3 8-1 2 2 1-5 4 3 4h5v-2h2v3l-5 5 1 4 7-2 1-4-3 1-1-3h4v-4l4-3-1 7-1 5 5 2v6l-3 9-3-1v4h2v-2l2 1 1 9-1 7-2 1v-4h-2l-2 4-3 2-4-5-2-4-2-1-1-5-2-1 2-1-1-10 1-4-1-10-2-7-1-5h2v-18l-2-1 2-5z" fill="#E6E7E7"/>
<path transform="translate(1435,863)" d="m0 0h5l6 7 8 16 3 10 1 7v18l-3 14-5 13-7 11-2 3-5-1-2-1 1-5 6-8 6-13 3-12v-21l-4-14-7-13-5-7z" fill="#DDEAED"/>
<path transform="translate(863,1286)" d="m0 0h9l5 3 2 4v32l-3 5-9 2h-5v-45z" fill="#27B867"/>
<path transform="translate(1539,914)" d="m0 0h1v20l-2 22-1 17-1 2 3 17v11l-1 18 2 1 2-2 1 5-1 10-3-2-2 1v-4l-4 1-1-1v-90l1-16 4 1v-5z" fill="#E8E9E9"/>
<path transform="translate(1425,872)" d="m0 0 3 1 9 14 4 12 1 6v14l-3 12-8 16-5 6-6-3 1-4 7-11 5-12 1-7v-9l-3-12-9-16-2-4z" fill="#CCF5FE"/>
<path transform="translate(939,864)" d="m0 0h10l7 5 2 4v69l-6 7-4 2-6 1h-37l-56-1-8-3-5-6v-69l6-7 2 1-4 4-1 4v65l1 4 16 4 80 1 10-1 6-3 2-4 1-6v-61l-2-6-6-2-8-1z" fill="#E5E6E6"/>
<path transform="translate(1454,1188)" d="m0 0h6l-2 1 4 4 6 3h6l6 2 1 4 1-4 5-1-1-3 2-1-1-3-3-2h7l6 3-2 6-5 3-2 1 1 8-5 1-3-1 1-3-3-1-1 5-6 2-3 5h-2l1 5-6 2-7 5h-5v-3h2l2-4 6-3 4-5h2l-2-5-6-3 2-2-2-1 1-3 4 1 3 2 4 1 3 3-2-4-3-3 4-1h-8l-6-2-7-1-1-3 1-4z" fill="#E5E6E6"/>
<path transform="translate(579,1145)" d="m0 0h1l1 11v12l-1 14v22l1 4v10l1 7 1 9 2 15v7l1 3 1 20v27l-3 24-2 12-6 15-3 3 2-9 4-14 3-20 2-17v-19l-2-18v-11l-2-7-2-11-1-8v-10l-1-3 1-12v-24l1-15 1-4z" fill="#E5E6E6"/>
<path transform="translate(963,1537)" d="m0 0 11 1h21l11-1 16 2v3h-2v2l-6 1h-13l-3 4h-2l-1-2-7-1-1-1h-9l-2 4h-2l-2-3-11-2-4 1h-2v2l-3 1-3-2v-2l-6 1-2-4 4-2h11z" fill="#E5E6E6"/>
<path transform="translate(1038,766)" d="m0 0h9l5 2 2 5v15l-3 5-3 2h-12l-1-7v-14l2-7z" fill="#DDEAEC"/>
<path transform="translate(907,765)" d="m0 0h10l4 2 3 6v9l-2 8-4 4h-12l-1-1v-24z" fill="#CCF5FE"/>
<path transform="translate(1411,882)" d="m0 0 4 2 7 11 2 6 1 14-2 11-4 8-6 8-6-1-1-4 6-8 4-9v-15l-4-10-6-8 1-3z" fill="#CCF5FE"/>
<path transform="translate(1415,769)" d="m0 0 7 1 1 3 1 15 1 2 3-13 3-8h6l2 2v26l-5 1-1-4v-19l-4 22-1 1h-5l-3-9-2-14v21l-1 2-5-1 1-26z" fill="#CDF4FC"/>
<path transform="translate(734,1530)" d="m0 0h54l-3 2-19 1h-11l-5 1-1 2-12 2v3l18 2 13 2 7 2v2l9-1 3 1v3h10l7 3-1 2-5-2-13-1-10-3-17-4-10-2-13-1-14-3-1-2 1-4 6-1 3-3z" fill="#E5E6E6"/>
<path transform="translate(1266,768)" d="m0 0h11l4 2 1 2v20l-2 4-4 1h-9l-2-4z" fill="#CCF5FE"/>
<path transform="translate(1544,1043)" d="m0 0 6 2 1 4 6-1 5 3-2 2v1l-2 4-1 6-4 2h10v3l-5 5-5 1-1-3h-2l-2-2-2 5-2 24 1 6-1 6h-2v-20l1-24 1-9z" fill="#E5E6E6"/>
<path transform="translate(862,765)" d="m0 0h13l4 3 1 25-5 1-1-1-1-10-6-1v11l-5 1-1-1v-27z" fill="#CCF5FE"/>
<path transform="translate(1013,766)" d="m0 0h12l5 4v25l-5-1v-11h-7l-1 12-5-1v-27z" fill="#CBF4FD"/>
<path transform="translate(702,1561)" d="m0 0 8 1 7 3v2l9 1 12 5 5 2v2l9 2 10 3 5 2 13 4 21 6 15 4 32 8 12 2 10 2 9 2v1l-16-1-12-3-6-1-23-5-26-7-26-8-30-10-16-6-11-5-10-4z" fill="#E5E6E6"/>
<path transform="translate(1015,1012)" d="m0 0 5 1 1 1v33l-3 3h-6l-2-4v-25l2-7z" fill="#3F92DC"/>
<path transform="translate(1180,1014)" d="m0 0h6l2 3v28l-2 5-7 1-2-2v-32z" fill="#4293DC"/>
<path transform="translate(1213,1014)" d="m0 0h6l2 4v29l-1 3-7 1-3-3v-30z" fill="#4193DC"/>
<path transform="translate(1247,1014)" d="m0 0h5l2 2v32l-2 3h-7l-2-5v-24l2-7z" fill="#4193DC"/>
<path transform="translate(1080,1013)" d="m0 0h6l1 1 1 8v22l-2 6h-7l-2-2v-31l1-3z" fill="#4193DC"/>
<path transform="translate(947,1012)" d="m0 0h6l2 2 1 7-1 24-1 3-2 1h-6l-1-1-1-17v-14l1-4z" fill="#3F92DC"/>
<path transform="translate(1445,1016)" d="m0 0h7l2 5-1 30-2 2h-6l-2-2v-32z" fill="#3C90DB"/>
<path transform="translate(1047,1013)" d="m0 0h6l1 1 1 17-1 17-2 2h-6l-2-2v-32z" fill="#3F92DC"/>
<path transform="translate(1113,1013)" d="m0 0h6l2 2v33l-2 2h-7l-1-1v-34z" fill="#4193DC"/>
<path transform="translate(1311,768)" d="m0 0h5l3 8 5 15-1-22 4-1 1 1v28h-7l-3-7-4-15v22h-5v-27z" fill="#CCF5FE"/>
<path transform="translate(1414,1015)" d="m0 0 5 1 1 1v33l-1 2-6 1-3-2v-32z" fill="#3C90DB"/>
<path transform="translate(882,1011)" d="m0 0 5 1 1 2v32l-3 3-5-1-2-2v-31z" fill="#4294DC"/>
<path transform="translate(1367,769)" d="m0 0h6l4 7 1 4v13h2l1-24h4v27l-1 1h-7l-3-8-3-13v21h-5v-20z" fill="#CCF4FD"/>
<path transform="translate(1530,1015)" d="m0 0h1v6l-13 3-36 6-7 1h-13v14h-1v-25h1v7l37-5z" fill="#61A6E4"/>
<path transform="translate(848,1011)" d="m0 0h5l2 3v29l-2 5h-7l-1-1-1-14 1-20z" fill="#4294DC"/>
<path transform="translate(1381,1015)" d="m0 0 5 1 1 1v32l-2 3h-7l-1-1v-33z" fill="#3B90DB"/>
<path transform="translate(1346,1015)" d="m0 0h6l2 3v30l-3 4h-6l-1-1v-34z" fill="#4093DC"/>
<path transform="translate(1295,768)" d="m0 0 5 2 3 10 2 11v6h-5l-1-4v-2h-7v5l-6 1 1-11 3-14 2-3z" fill="#CCF5FE"/>
<path transform="translate(576 1e3)" d="m0 0h1v13l-1 5-1 23v69l1 2 3 22v7h-1l-4-14-3-19v-28l1-12-1-2 1-17v-14l1-12 1-20z" fill="#E5E6E6"/>
<path transform="translate(1281,1014)" d="m0 0 5 1 1 1v33l-2 2h-6l-2-2v-31z" fill="#4293DC"/>
<path transform="translate(914,1012)" d="m0 0h6l2 4v24l-1 7-2 2h-6l-1-1v-35z" fill="#3F92DC"/>
<path transform="translate(1396,769)" d="m0 0h6l3 8 3 15v5l-5 1-1-4v-2l-7-2v6l-2 2-4-1 2-15 4-12z" fill="#CCF4FD"/>
<path transform="translate(995,766)" d="m0 0h6l3 6 4 18v4h-6v-6l-8-1v7l-6 1 1-7 4-18z" fill="#CCF5FE"/>
<path transform="translate(1396,892)" d="m0 0 5 1 6 7 3 8-1 11-4 8-7 7-5-1v-5l6-7 2-6v-8l-3-6-4-4 1-4z" fill="#CCF4FD"/>
<path transform="translate(1539,914)" d="m0 0h1v20l-2 22-1 17-1 2v5l-2-1-2 2v-41l1-16 4 1v-5z" fill="#E5E6E6"/>
<path transform="translate(569,1156)" d="m0 0h1v35l-2 41 1 6v6l2 5 2 12v48l-2 4-1-41-2-16-1-5-1-16v-18l1-21z" fill="#E5E6E6"/>
<path transform="translate(1223,1011)" d="m0 0h2l4 8v26l-3 7h-3v-2h-3v-35z" fill="#CCF5FE"/>
<path transform="translate(845,764)" d="m0 0 8 1 3 4v6l-4-1-2-5h-5v19h5l2-6 4-1v8l-5 5h-8l-3-2-2-9v-8l2-7z" fill="#D0F2F9"/>
<path transform="translate(1191,1011)" d="m0 0 4 4 1 5v23l-2 7-3 3-3-3-5 1 3-2 1-4v-30l3-1z" fill="#CCF5FE"/>
<path transform="translate(886,765)" d="m0 0h13l1 4-5 1-4 1v6l8-1v6h-9l1 6h9v5l-1 1h-12l-2-1v-27z" fill="#CCF5FE"/>
<path transform="translate(1429,1090)" d="m0 0h13v5h-9l-1 3 10 2 1 4v8l-2 5-4 2-8-1-3-6 1-4 4 1 1 5h5v-10h-5l-5 1v-12z" fill="#DEE9EC"/>
<path transform="translate(911,1013)" d="m0 0h1l1 35 4 2h-3v2l-5-1-4-4h-1l-1-6v-19l1-7h1l1 5z" fill="#CCF5FE"/>
<path transform="translate(1059,1012)" d="m0 0 2 1 1 3 1 24-2 9-4 3-5-2 1-2 1-23v-11l2 2h3z" fill="#CCF5FE"/>
<path transform="translate(1448,769)" d="m0 0h10l1 5-8 1-1 6 8-1 1 5-1 1h-9l2 7h8l1 5-9 1-6-1v-27z" fill="#CEF3FC"/>
<path transform="translate(1450,922)" d="m0 0h1v7l5-1-1 7-5 13-7 11-2 3-5-1-2-1 1-5 6-8 6-13z" fill="#CCF5FE"/>
<path transform="translate(1645,796)" d="m0 0 4 2 4 8 2 3v15l-2 6-4 2-3-4-2-27-1-3z" fill="#E5E6E6"/>
<path transform="translate(973,765)" d="m0 0h7l4 3 1 9-7-7h-3l-1 2-1 13 1 5 5-1 4-6 2-1v8l-6 5h-7l-4-4v-20z" fill="#DDEAED"/>
<path transform="translate(1141,1531)" d="m0 0h78l17 2 9 2-1 5-6-1-1 3-8 1-1-2v-6h-20l-13-2h-58z" fill="#E5E6E6"/>
<path transform="translate(1376,1089)" d="m0 0h7l5 4v6l-5 8-5 4v2l10-1v5l-1 1h-14l-1-1 1-8 8-8 1-7h-4l-2 5-4-1 1-6z" fill="#CCF4FD"/>
<path transform="translate(1654,842)" d="m0 0 4 4 3 2 1 5v18l-1 2 2 5v6l-9-4 2-4-1-9-2-10v-10z" fill="#E5E6E6"/>
<path transform="translate(1411,1089)" d="m0 0 9 1 3 4-1 7-6 8-2 2-1 4 9-2 1 4-1 1h-15v-6l6-8 3-3 1-7-3-1-3 5-4 1 1-7z" fill="#CCF5FE"/>
<path transform="translate(1289,1011)" d="m0 0 4 2 2 5v28l-2 5h-1l-1-5-2-1-2 4v-33l1 2h4l-2-5z" fill="#CCF5FE"/>
<path transform="translate(1105,1013)" d="m0 0 2 1 6-1-1 2v34l7 1v1h-8l-2-1-3-10-1 4h-2v-23z" fill="#CCF5FE"/>
<path transform="translate(1449,1253)" d="m0 0 6 1 1 5-3 3-4-2-1 5v6l-1 3v6l5 7 2 1-1 4-6 1-2-7h-4l1-20 1-6 4-3z" fill="#E5E6E6"/>
<path transform="translate(1440,922)" d="m0 0 1 3-5 13-8 13-3 2-5-3 1-4 7-11 6-12h5z" fill="#CCF5FE"/>
<path transform="translate(1454,1029)" d="m0 0h2l3 6 1 6v11l-5 5-2 1h-11l-4-4v-7h3l3 6h8l1-2z" fill="#E2E7E8"/>
<path transform="translate(975,769)" d="m0 0 4 1 5 6 2-2v15h-1l-1-6-5 7-5 1-2-6 1-13z" fill="#4293DC"/>
<path transform="translate(969,526)" d="m0 0h6v2l-9 3-4 3h-2v2l-6 3-6 1 6 1-4 2-11-2h-6v-2l4-2 10-2 2-2 10-6 6 1z" fill="#E5E6E6"/>
<path transform="translate(845,769)" d="m0 0h5l3 5 3 1v-5h1v19h-1l-1-7h-3l-1 6-1 1h-5l-1-1v-17z" fill="#4495DD"/>
<path transform="translate(935,766)" d="m0 0h20l-1 4h-6v24h-5v-24l-7-1z" fill="#CFF3FA"/>
<path transform="translate(1035,512)" d="m0 0 6 2 2 3-4 1v3l-6 1-2 1-2 5h-5l-6-5-1-5h6l6-1v-2z" fill="#E5E6E6"/>
<path transform="translate(1e3 1024)" d="m0 0 3 3 1 7v12h2l2 4 7 1 1 2-1 2h-10l-5-5-1-2v-23z" fill="#E3E7E7"/>
<path transform="translate(1010,475)" d="m0 0 4 1-4 5-12 2v2l-11 6-4 1-4-1-4 1v3l-6 1 1-4 14-7 10-3 6-2 6-3z" fill="#E5E6E6"/>
<path transform="translate(1041,770)" d="m0 0h5l3 4v13l-3 4h-5l-1-2v-18z" fill="#4193DC"/>
<path transform="translate(1445,1016)" d="m0 0h7l2 5-1 10h-9v20h-1v-32z" fill="#3F92DC"/>
<path transform="translate(1337,1029)" d="m0 0 3 4 2 17 2 2h8 4v4l-2 1h-12l-5-5-1-4v-13z" fill="#E2E7E8"/>
<path transform="translate(1311,768)" d="m0 0h5l2 4-1 7-2-1-1-3v22h-5v-27z" fill="#CCF4FD"/>
<path transform="translate(911,769)" d="m0 0h5l2 2 1 11-2 6-2 2-5-1v-19z" fill="#3D91DB"/>
<path transform="translate(1077,1014)" d="m0 0 1 3v31l1 2-3-1-1-12-3-2-1 11h-1v-28l2-3v4z" fill="#CCF5FE"/>
<path transform="translate(607,797)" d="m0 0h1l-1 16-2 2h-3v9l-5-1 1-8h2l-3-5h-5l1-7 3-1 2 3-1 2 4-2h3l2-5z" fill="#E5E6E6"/>
<path transform="translate(1359,1090)" d="m0 0h4v15l-1 13h-4l-1-21-5 1-1-4z" fill="#D0F2F9"/>
<path transform="translate(1431,769)" d="m0 0h6l2 2v26l-5 1-1-4 1-21-3 1z" fill="#CCF5FE"/>
<path transform="translate(1554,969)" d="m0 0h7l5 7 3 2 6 2 2 1v6l-6 1-3-2v-2l-6-1-1-5-1-2-4-1v-2h-2l-1-3z" fill="#E5E6E6"/>
<path transform="translate(939,864)" d="m0 0h10l7 5 2 4v61h-2l-1-60-2-6-6-2-8-1z" fill="#ECEDED"/>
<path transform="translate(1072,1035)" d="m0 0 4 2 1 12h13l-1 4-5 3-8-1-5-5v-13z" fill="#E1E7E9"/>
<path transform="translate(1348,768)" d="m0 0 4 1-4 7-2 3 1 7 5 9v2h-5l-7-12v-6l6-10z" fill="#CCF4FD"/>
<path transform="translate(1537 1e3)" d="m0 0 2 1-1 18 2 1 2-2 1 5-1 10-3-2-2 1v-4l-4 1-1-1v-18h5z" fill="#E5E6E6"/>
<path transform="translate(956,934)" d="m0 0h2v8l-6 7-4 2-6 1h-37v-1h8v-2h23l10-1 6-3 2-4z" fill="#D8DDDF"/>
<path transform="translate(485,1287)" d="m0 0 12 2 5 4 10 2 9 5-4 1-9-1-6-3-9-3-12-5z" fill="#E5E6E6"/>
<path transform="translate(1624,1038)" d="m0 0 7 2 5-1 2 2 2 5 1 5v4l-4-1-3-4v-4l-11-1-3-4 4-1z" fill="#E5E6E6"/>
<path transform="translate(551,968)" d="m0 0 3 3 2 13v23l-2 20h-1v-14z" fill="#E5E6E6"/>
<path transform="translate(913,1006)" d="m0 0 10 1 4 4v2l-5 1-2-1h-9l-2 5-4 3v-8l5-6z" fill="#DFE9EB"/>
<path transform="translate(930,765)" d="m0 0 4 1v27l-5 1v-28z" fill="#CCF4FD"/>
<path transform="translate(550,884)" d="m0 0 3 2v2l3 1v2l4 2 3 5 3 3 5 13 1 6-2 1-3-3v-7l-4-7v-2l-4-2-3-5-8-5z" fill="#E5E6E6"/>
<path transform="translate(1429,1090)" d="m0 0h13v5h-9l-1 3 8 1-3 4-6 2h-4v-12z" fill="#CDF4FC"/>
<path transform="translate(1335,768)" d="m0 0 4 1v28h-5v-28z" fill="#CCF4FD"/>
<path transform="translate(1238,1037)" d="m0 0 4 1v8h2l2 6 8-1 2 4-5 2-9-1-4-4z" fill="#E2E7E8"/>
<path transform="translate(1208,1041)" d="m0 0h1v7h2v2h12l1 4-4 2h-10l-5-4-1-6 1-3z" fill="#E0E8EA"/>
<path transform="translate(1082,1007)" d="m0 0 8 2 3 2v5l-4 1-3-3-9 1-3 4h-2v-6l6-5z" fill="#E0E8E9"/>
<path transform="translate(1542,1115)" d="m0 0h1l4 16 1 6h2v5l3 6 1 6-2 2-2-2 2-3h-2v2h-2l-2-11-3-8-1-10z" fill="#E5E6E6"/>
<path transform="translate(1408,892)" d="m0 0 2 2 1 3 2 1 3 7v10l-5-3-6-14-2-2 1-3z" fill="#3D91DB"/>
<path transform="translate(1035,774)" d="m0 0 1 4h4l1 13 6-2 2-2 1 7-2 1h-12l-1-7z" fill="#CCF5FE"/>
<path transform="translate(617,681)" d="m0 0 1 3-1 4-3 3-6 1v2l-5 3-3 4-10 4-2-1 4-2 1-3h2l1-3 1 2-1 2 3-2 3-6h2l1-2 7-6h4z" fill="#E5E6E6"/>
<path transform="translate(1453,1018)" d="m0 0 2 1v4l4-1 2-3 1 10-1 19h-1l-2-13-2-3v-3h-2v22h-1z" fill="#CCF5FE"/>
<path transform="translate(861,528)" d="m0 0 3 2h-2l1 3 4 1v2l-13 5-10 1 2-4 8-4h2l1-4z" fill="#E5E6E6"/>
<path transform="translate(562,1062)" d="m0 0h1v7l-1 3-1 12v20l3 16h-2l-4-11v-27l2-15z" fill="#E5E6E6"/>
<path transform="translate(1414,1015)" d="m0 0 5 1 1 1v12h-10v-10z" fill="#3E91DC"/>
<path transform="translate(1376,1089)" d="m0 0h7l5 4v6l-3 3-5 2 2-5v-5h-4l-2 5-4-1 1-6z" fill="#DBEEF2"/>
<path transform="translate(1541,849)" d="m0 0h1l1 13v9l-1 4v16l-1 22h-2v-31l1-13v-16z" fill="#E5E6E6"/>
<path transform="translate(1497,731)" d="m0 0h12l11 6 8 8 4 8v6l-2-3-7-11-2-1v-2l-4-2-9-6-11-2z" fill="#4092DC"/>
<path transform="translate(952,499)" d="m0 0h5l1 3-11 1-6 3-4 3-20 7-3 1-1-2 6-3 7-2 3-3h3v-2l10-3z" fill="#E5E6E6"/>
<path transform="translate(1047,1007)" d="m0 0 9 1 3 3 1 5-4 1-1-3-11-1v2l-4 1v-5l4-3z" fill="#E0E8EA"/>
<path transform="translate(1188,1545)" d="m0 0 6 1v2l-6 2-8-1-8 3-3 1-23 1-7 1 3-2 8-1 12-1 9-2 3-2h11z" fill="#E5E6E6"/>
<path transform="translate(1541,1306)" d="m0 0 4 2h-2v3h-2v3l-3 3-1 3h-2v3h-2l-2 6h-2v3h-2l-2 4h-2l1-5 5-7 3-6 5-5z" fill="#E5E6E6"/>
<path transform="translate(1040,1043)" d="m0 0 3 1v4l13 2v4l-2 1h-10l-4-2-2-3 1-6z" fill="#E0E9EA"/>
<path transform="translate(1480,1240)" d="m0 0 2 1v10l-4 1-1 3-1-2 1-2h-2v-2l-4 1-4-4 1-2 8-1z" fill="#E5E6E6"/>
<path transform="translate(1403,1088)" d="m0 0 1 4-6 17-4 12-4 1 3-10 8-23z" fill="#CCF5FE"/>
<path transform="translate(879,1006)" d="m0 0h9l5 3v2l-5 1-6-2v2l-8 3-1-5z" fill="#DFE9EB"/>
<path transform="translate(1446,904)" d="m0 0 3 3 1 8-2 7-3 1-2-2v-12l1-3h2z" fill="#3A8FDB"/>
<path transform="translate(1496,1187)" d="m0 0h18l3 3h3l5 1-3 3-5 1-2 2h-2l-5-8-12-1z" fill="#E5E6E6"/>
<path transform="translate(1544,968)" d="m0 0 3 3 1 3-3 5h-2l1 11h2v8l-2 5h-1l-1-7v-19l1-8z" fill="#E5E6E6"/>
<path transform="translate(586,918)" d="m0 0 2 1 1 4-1 7 1 9-1 3h2l1 6-4 1-2-9v-11l-1-1v-6z" fill="#E5E6E6"/>
<path transform="translate(586,1026)" d="m0 0 3 4-1 11v6l3 8-1 2 2 1-5 4-1 2-2-3v-3h2v-18l-2-1 2-5z" fill="#E5E6E6"/>
<path transform="translate(1413,771)" d="m0 0h1l1 9 2-1 1 17-1 2-5-1z" fill="#CCF5FE"/>
<path transform="translate(768,1140)" d="m0 0h1l2 10 6 9 9 7 11 4v1h-7l-10-5-8-9-4-7z" fill="#4494DC"/>
<path transform="translate(946,772)" d="m0 0 2 1v21h-5l1-20z" fill="#E4E6E6"/>
<path transform="translate(845,764)" d="m0 0 8 1 3 4v6l-4-1-2-5h-5v2h-2l-1-5z" fill="#D5EFF5"/>
<path transform="translate(1524,1201)" d="m0 0h7l-1 3h-2v3l-3 1-3 3-11 1 5-5 7-4z" fill="#E5E6E6"/>
<path transform="translate(1532,1168)" d="m0 0v3l-6 9-3 1-1 2-11 2h-7l4-2 9-3 6-3 3-3h2l2-4z" fill="#E5E6E6"/>
<path transform="translate(907,765)" d="m0 0h10l4 2 1 5-5-1-1-1h-7l-1 4-2-2v-6z" fill="#D6EEF3"/>
<path transform="translate(1217,1541)" d="m0 0h3l1 3-2 3h-9l-1 1h-7l-4-1v-2l7-2 7 1z" fill="#E5E6E6"/>
<path transform="translate(1608,1158)" d="m0 0 5 1-3 10-4 5-2-3v-6l2-4h2z" fill="#E5E6E6"/>
<path transform="translate(1455,1361)" d="m0 0h5l-2 6-4 2 1 4-5-1-2-6 4-2z" fill="#E5E6E6"/>
<path transform="translate(1367,772)" d="m0 0h1v13l3-3v15h-5v-20z" fill="#CCF5FE"/>
<path transform="translate(1411,1089)" d="m0 0 9 1 2 2-1 3-4-1-3-1-3 5-4 1 1-7z" fill="#D1F1F8"/>
<path transform="translate(1435,904)" d="m0 0 4 1 1 18-5 1z" fill="#E5E6E6"/>
<path transform="translate(944,1013)" d="m0 0 1 4v31l-1-2h-2l1-14-3-12 2-4h2z" fill="#CCF5FE"/>
<path transform="translate(1048,525)" d="m0 0h9l3 3-8 4h-6l-1-4z" fill="#FCFCFC"/>
<path transform="translate(1381,1015)" d="m0 0 5 1 1 1v32h-1v-28l-7-2-2 3 1-5z" fill="#61A6E4"/>
<path transform="translate(1288,1044)" d="m0 0 4 2v7l-4 3h-7l2-4h2l1-3h2z" fill="#E0E8EA"/>
<path transform="translate(1443,1019)" d="m0 0h1v8h9v4h-9v20h-1z" fill="#61A6E4"/>
<path transform="translate(854,543)" d="m0 0 9 1v3h-24l-3-3z" fill="#E5E6E6"/>
<path transform="translate(464,1370)" d="m0 0 6 3 4 4h2l2-4 6 4-4 1v2l-5 2-5-5-6-5z" fill="#E5E6E6"/>
<path transform="translate(1576,1144)" d="m0 0h4l2 4-6 8-4-2 2-7z" fill="#E5E6E6"/>
<path transform="translate(1629,967)" d="m0 0 4 1 2 5-12 1-2-5z" fill="#E5E6E6"/>
<path transform="translate(586,897)" d="m0 0h2l1 6v6l1 4-3 3-1-5-3-9z" fill="#E5E6E6"/>
<path transform="translate(1546,803)" d="m0 0 1 4v14l-1 7v9l-2 9-1-4 1-19 1-9-1-3z" fill="#E5E6E6"/>
<path transform="translate(1018,769)" d="m0 0 5 1 2 3-1 5-6 1-1-1v-8z" fill="#4595DD"/>
<path transform="translate(1510,1353)" d="m0 0 2 1-8 11-8 10-1-4 5-6h2l1-4 5-7z" fill="#E5E6E6"/>
<path transform="translate(1565,1162)" d="m0 0 3 1v2h2l1 7h-8l-1-4 2-5z" fill="#E5E6E6"/>
<path transform="translate(1359,1101)" d="m0 0h3v17h-4v-12z" fill="#E3E6E7"/>
<path transform="translate(389,939)" d="m0 0 1 4-8 17-3 2-1-2 2-6-1-2 2-2 3 1 2-5z" fill="#E5E6E6"/>
<path transform="translate(579,872)" d="m0 0h2l1 7 1 5 2 5-1 3 1 6-5-5-1-5-1-3 2-2z" fill="#E5E6E6"/>
<path transform="translate(1348,768)" d="m0 0 4 1-4 7-2 3h-2v2h-2l1-7 3-5z" fill="#D9EDF1"/>
<path transform="translate(1417,774)" d="m0 0 2 1 2 14v8h-2l-2-6z" fill="#4E9ADF"/>
<path transform="translate(1453,1013)" d="m0 0 5 1 2 2v6l-5 1-2-5-1-4z" fill="#E3E7E7"/>
<path transform="translate(571,938)" d="m0 0 2 4 2 13 1 7-1 3-2-3-2-14-1-2v-6z" fill="#E5E6E6"/>
<path transform="translate(1379,770)" d="m0 0h1v23h-2l-1-13-1-9 3 1z" fill="#4997DE"/>
<path transform="translate(1383,454)" d="m0 0 10 3 4 5 4 1 2 1-2 4-9-6-1-2-4-1-1-2-3-1z" fill="#E5E6E6"/>
<path transform="translate(831,1557)" d="m0 0h8l16 2 1 2-5 1-15-2-9-1z" fill="#E5E6E6"/>
<path transform="translate(905,1045)" d="m0 0 4 5 5 2v-2l9 1v2l-2 1h-11l-5-5z" fill="#DFE9EB"/>
<path transform="translate(1410,1019)" d="m0 0 2 4 8-1v7h-10z" fill="#61A6E4"/>
<path transform="translate(984,782)" d="m0 0h1v8l-5 4-7-1v-3l6-1 4-6z" fill="#CCF5FE"/>
<path transform="translate(1370,775)" d="m0 0 2 1 2 7v13l-2 1-1-3z" fill="#4394DD"/>
<path transform="translate(867,769)" d="m0 0h6l1 1-1 7-5 1-1-1z" fill="#4394DD"/>
<path transform="translate(585,817)" d="m0 0 3 1 1 6 2 1-3 3-1-4-5 1-2-2 2-5z" fill="#E5E6E6"/>
<path transform="translate(1318,773)" d="m0 0 4 3 2-3 1 19-2-1-5-15z" fill="#61A6E4"/>
<path transform="translate(1128,1554)" d="m0 0h9v2l-17 2-2 1h-7l2-2z" fill="#E5E6E6"/>
<path transform="translate(1551,1290)" d="m0 0h3l-2 6-4 6-1 3-4 1 2-6 4-8h2z" fill="#E5E6E6"/>
<path transform="translate(1500,1208)" d="m0 0 8 1 2 4-5 1-12-2-1-2 7 1z" fill="#E5E6E6"/>
<path transform="translate(1539,1162)" d="m0 0 2 3v13l-1 10-2 1v-24z" fill="#E5E6E6"/>
<path transform="translate(1589,1112)" d="m0 0h5l-2 5-3 5h-5l-1-2h2l1-5h2z" fill="#E5E6E6"/>
<path transform="translate(1584,986)" d="m0 0h3l1 3-5 5-3-1-1-2-3-1v-2z" fill="#E5E6E6"/>
<path transform="translate(1541,1011)" d="m0 0h1l-1 21h-1l-1-6h-1l-1-11 4-1z" fill="#F6F6F6"/>
<path transform="translate(579,854)" d="m0 0 2 3 1 4-2 10-2-2v-5l1-5-5 2v-5z" fill="#E5E6E6"/>
<path transform="translate(1427,1108)" d="m0 0 4 1 1 5 3 1-3 3-4-1-2-5z" fill="#CCF4FD"/>
<path transform="translate(1536,998)" d="m0 0h1v14h-5v-8l2-2z" fill="#FBFBFB"/>
<path transform="translate(872,1041)" d="m0 0 4 1 2 10 2 1-5-1-3-4z" fill="#E3E6E7"/>
<path transform="translate(584,795)" d="m0 0 2 1 2 10-7-1-1-3 2-5z" fill="#E5E6E6"/>
<path transform="translate(1271,784)" d="m0 0h5l1 1v5l-2 2-5-1z" fill="#4A98DE"/>
<path transform="translate(1037,767)" d="m0 0h4l-1 11-2 1-2-1v-10z" fill="#E1E7E9"/>
<path transform="translate(1008,521)" d="m0 0 4 1v3 3l-6 2-2-7z" fill="#E5E6E6"/>
<path transform="translate(1560,1185)" d="m0 0 3 1-1 8-6 3 1-6z" fill="#E5E6E6"/>
<path transform="translate(840,945)" d="m0 0 10 2 7 2v1h-12l-5-3z" fill="#EAEBEB"/>
<path transform="translate(1455,1244)" d="m0 0h8v3l-1 2-6 1v2l-2-1z" fill="#E5E6E6"/>
<path transform="translate(536,874)" d="m0 0 7 2 4 5-6 2-2-2v-3h-2z" fill="#E5E6E6"/>
<path transform="translate(998,771)" d="m0 0 2 1v11l-2 1-3-3 2-9z" fill="#4998DE"/>
<path transform="translate(1367,770)" d="m0 0h5l1 2-2 2-2-1 1 6v9l-3-2z" fill="#E5E6E6"/>
<path transform="translate(1551,916)" d="m0 0 2 2v2l-8 8-1-4 2-3-1-2 4-1z" fill="#E5E6E6"/>
<path transform="translate(1398,774)" d="m0 0h2l1 11-5 1 1-10z" fill="#539DE0"/>
<path transform="translate(1431,769)" d="m0 0h6l1 1v8l-3-1-1-3h-3z" fill="#E0E8EA"/>
<path transform="translate(855,781)" d="m0 0h1v8l-3 3-1-3-2-1 2-6z" fill="#CCF4FD"/>
<path transform="translate(1294,774)" d="m0 0h3v11l-3 1-1-1v-7z" fill="#509CE0"/>
<path transform="translate(942,1593)" d="m0 0 4 1-3 5h-6v-5z" fill="#E5E6E6"/>
<path transform="translate(1443,1214)" d="m0 0h3v6l-4 7h-1l1-11z" fill="#E5E6E6"/>
<path transform="translate(1359,1012)" d="m0 0h7l1 5h-5l-1 4z" fill="#61A6E4"/>
<path transform="translate(921,1591)" d="m0 0 7 1-4 4-4 1-2-1 1-4z" fill="#E5E6E6"/>
<path transform="translate(809,1553)" d="m0 0 7 1 6 3-4 1-6-1-5-2z" fill="#E5E6E6"/>
<path transform="translate(1519,1339)" d="m0 0h3l-2 5-1 2h-2l-1 4h-2l-1 2v-5h2l2-5z" fill="#E5E6E6"/>
<path transform="translate(1386,1093)" d="m0 0h2v6l-3 3-5 2 4-10z" fill="#DEE9EC"/>
<path transform="translate(1642,1091)" d="m0 0 2 2v6l-2 1v-2l-6 5 2-6z" fill="#E5E6E6"/>
<path transform="translate(1333,434)" d="m0 0 9 1 6 1v2l-7 2-3-3v-2l-5 1z" fill="#E5E6E6"/>
<path transform="translate(1346,789)" d="m0 0 5 3 1 5h-5l-2-3z" fill="#DAECEF"/>
<path transform="translate(1339,786)" d="m0 0h3l3 6v4l-5-1z" fill="#3E91DB"/>
<path transform="translate(1271,772)" d="m0 0h5v6l-2 2h-3z" fill="#4495DD"/>
<path transform="translate(995,766)" d="m0 0h6l1 5-8 1z" fill="#E1E8E9"/>
<path transform="translate(723,1545)" d="m0 0h8l5 2-3 1-2-1-1 2-4 1-3-3z" fill="#E5E6E6"/>
<path transform="translate(939,864)" d="m0 0h10l7 5 2 5h-3l-2-6-6-2-8-1z" fill="#DBDAD8"/>
<path transform="translate(442,850)" d="m0 0h2l-3 9-4 4h-2l1-3 2-1 2-7z" fill="#E5E6E6"/>
<path transform="translate(1292,790)" d="m0 0h7v4l-7 1-1-4z" fill="#4394DD"/>
<path transform="translate(963,1592)" d="m0 0 5 3-4 2-4 1-4-2 1-2z" fill="#E5E6E6"/>
<path transform="translate(433,863)" d="m0 0h2l-1 5-5 7h-2l1-4z" fill="#E5E6E6"/>
<path transform="translate(1434,790)" d="m0 0h4v8l-5-1z" fill="#E0E9EA"/>
<path transform="translate(376,1064)" d="m0 0 3 1v8l-1 2h-2l-1-2v-7z" fill="#E5E6E6"/>
<path transform="translate(1544,968)" d="m0 0 3 3 1 3-2 4-3-1v-8z" fill="#E6E7E7"/>
<path transform="translate(459,828)" d="m0 0 3 2v2l-4 1v3l-5 3 1-4z" fill="#E5E6E6"/>
<path transform="translate(912,516)" d="m0 0 1 2-16 8-2-1 5-4z" fill="#E5E6E6"/>
<path transform="translate(1444,1234)" d="m0 0h2l1 6-1 3-4 1 1-8z" fill="#E5E6E6"/>
<path transform="translate(1315,784)" d="m0 0 3 1v10l-3 1z" fill="#3E91DC"/>
<path transform="translate(836,544)" d="m0 0h15v2l-9 1-5-1z" fill="#E7E8E8"/>
<path transform="translate(1022,1568)" d="m0 0 1 3-5 1h-13l1-3h15z" fill="#E5E6E6"/>
<path transform="translate(1455,1282)" d="m0 0h3l-1 6 2 5-1 3-4-8z" fill="#E5E6E6"/>
<path transform="translate(1647,957)" d="m0 0 4 1 2-1-1 6h-5l-1-5z" fill="#E5E6E6"/>
<path transform="translate(1660,930)" d="m0 0h1v6l-3-1-4 4-2-4 4-3 4 1z" fill="#E5E6E6"/>
<path transform="translate(1038,766)" d="m0 0h9l3 2-4 3-5-1v-3z" fill="#CCF4FD"/>
<path transform="translate(1429,1026)" d="m0 0h6v15h-1v-11h-5z" fill="#61A6E4"/>
<path transform="translate(1287,1011)" d="m0 0 4 2 1 5h-4v-2h-2z" fill="#E4E6E6"/>
<path transform="translate(1396,791)" d="m0 0h6v4l-1 1h-5z" fill="#4092DC"/>
<path transform="translate(1410,575)" d="m0 0 5 1 3 6v2l-4-1-4-7z" fill="#E5E6E6"/>
<path transform="translate(1193,442)" d="m0 0 7 1-1 4-7-1-1-3z" fill="#E5E6E6"/>
<path transform="translate(596,1180)" d="m0 0 5 2v2h-3v3l-5 1 2-6z" fill="#E5E6E6"/>
<path transform="translate(1533,1171)" d="m0 0 1 4-2 9h-3l2-9z" fill="#E5E6E6"/>
<path transform="translate(1324,768)" d="m0 0h3v11h-2l-2-10z" fill="#E0E8EA"/>
<path transform="translate(892,1564)" d="m0 0 5 1v2h7l1 2h-8l-5-2z" fill="#E5E6E6"/>
<path transform="translate(1548,1035)" d="m0 0 4 1v2h2l-1 6-4-1 1-5-2-1z" fill="#E5E6E6"/>
<path transform="translate(897,1587)" d="m0 0 5 2-1 3-5 1-1-3z" fill="#E5E6E6"/>
<path transform="translate(1410,1091)" d="m0 0 2 3-1 4-4 1 1-7z" fill="#DFE9EB"/>
<path transform="translate(1433,774)" d="m0 0h1v12h-3v-7z" fill="#61A6E4"/>
</svg>
