<?xml version="1.0" encoding="UTF-8"?>
<svg version="1.1" viewBox="0 0 2048 800" width="1280" height="1280" xmlns="http://www.w3.org/2000/svg">
<path transform="translate(403,105)" d="m0 0 3 1-10 16-13 18-14 19-16 21-14 19-26 36-11 16-16 24-12 19-13 22-12 22-12 24-11 27-8 26-5 25-1 10v20l3 19 6 17 8 16 8 7 8 3h16l16-4 16-7 12-7 10-8 14-14 11-16 8-16 5-16 3-17v-35l-4-24-6-22-7-20-11-25-5-12 1-10 5-12 9-14 8-10 11-12 12-11 13-9 3-2 5 1 11 11 12 17 11 18 9 14 12 23 8 21 5 17 5 28 1 11v43l-3 27-6 31-10 30-10 21-11 18-10 13-12 14-9 9-11 9-12 9-18 11-21 10-21 7-23 5-9 1h-33l-22-4-15-5-16-8-11-7-12-11-7-7-10-15-7-15-5-16-3-18v-36l5-32 6-25 8-23 13-27 14-24 14-22 20-30 15-25 9-19 2-6-10 1-23 5-18 6-21 11-12 9-10 9-10 11-9 13-9 16-8 20-6 20-5 25-3 25-1 19-1 37-3 39v32l3 22 1 19 3 103v104h-100v-417l2-109 1-99 8-2 15-2 15-1h43l13 2 6 5 3 8 1 6 2 41 10-5 10-9 7-7 10-8 10-9 13-9 12-7 20-8 16-4 14-2h39l41 4h14l14-3 8-5 8-9 10-14 13-15 12-10z" fill="#F5801E"/>
<path transform="translate(1244,160)" d="m0 0h35l22 3 19 5 20 8 15 9 9 7 10 9 9 10 10 15 7 15 6 18 4 24v17h-5l-1-1-2-18-4-15-9-19-9-12-8-9-13-10-14-8-12-5-13-4-19-3h-31l-19 3-18 6-12 7-10 9-8 14-3 11-1 14 2 14 5 12 7 11 7 8 14 11 14 9 18 10 56 28 19 10 19 12 12 9 14 12 11 12 9 13 8 16 6 18 3 21v20l-3 21-6 20-10 19-9 12-10 11-14 11-13 8-17 8-21 7-20 4-17 2h-44l-27-4-22-6-18-8-16-9-14-11-13-13-10-14-8-14-7-18-5-22-1-7-1-19h4l1 3 2 17 4 14 6 14 8 12 9 10 8 8 13 9 19 10 21 7 21 4 8 1h40l18-3 16-5 15-8 11-10 7-11 4-10 3-16v-13l-3-15-5-12-9-13-10-10-15-11-21-12-26-13-28-13-26-13-20-12-12-9-13-11-11-12-7-10-9-17-5-16-3-18v-24l3-20 7-21 8-15 10-13 14-14 16-11 16-8 16-6 15-4 17-3z" fill="#00ACEF"/>
<path transform="translate(626,255)" d="m0 0h15l18 3 15 5 13 7 12 9 7 6 7 8 5 6v-20l2-11 6-5 18-1h27l7 3 3 4v252h-62l-1-29-9 7-10 9-11 9-14 7-12 3-18 2h-33l-15-3-13-5-11-6-10-8-11-11-9-13-9-17-6-16-5-20-3-21-1-15v-14l2-21 5-21 6-15 8-15 9-12 11-12 16-12 17-9 15-5zm14 55-15 4-12 6-10 8-9 11-8 16-4 13-2 13v22l3 18 5 15 8 15 11 12 9 7 10 4 5 1h37l11-4 10-6 12-11 8-9 8-16 4-15 2-14v-18l-3-19-5-15-7-12-9-10-7-6-14-7-13-3z" fill="#56585B"/>
<path transform="translate(1912,281)" d="m0 0h20l18 2 19 5 15 6 14 9 13 11 8 10 8 13 6 15 4 15 1 7v15h-4l-3-18-4-12-7-13-11-12-10-8-14-7-13-4-13-2h-16l-14 2-15 5-11 7-7 8-5 12-1 6v8l3 10 6 10 7 7 15 11 26 15 26 14 21 13 16 12 13 12 10 12 9 17 4 13 2 13v13l-2 16-5 16-8 16-9 11-7 7-14 10-16 8-17 6-25 5-9 1h-40l-19-3-20-6-16-8-12-8-12-11-9-11-8-14-5-11-5-18-2-17v-6l4-1 3 18 4 12 7 13 9 11 10 9 13 8 11 5 13 4 11 2h31l18-4 16-8 9-9 6-12 2-9v-15l-4-13-6-10-10-10-10-7-21-12-29-14-23-12-18-12-12-11-7-7-9-14-5-12-3-11-1-7v-22l4-17 5-12 8-12 11-12 10-8 15-9 20-8 22-5z" fill="#00ACEF"/>
<path transform="translate(1439,293)" d="m0 0h158l-1 5-11 6-7 6-5 9-1 4v15l5 16 18 41 20 45 19 43 18 41 2 5 2-3 15-38 16-41 18-46 16-41 3-9v-17l-4-12-8-11-9-8-11-6v-4h93l-1 4-13 7-10 8-10 11-11 18-12 29-15 38-84 212-14 36-11 29-11 22-12 18-11 13-9 9-14 10-13 6-16 4h-20l-15-4-15-8-12-10 3-10 14-38 5 1 1 3 4 2 10 8 10 6 16 6 12 2h8l14-3 12-5 12-9 9-10 8-13 10-22 3-9-18-42-16-38-95-225-10-21-9-13-7-8-13-10z" fill="#00ACEF"/>
<path transform="translate(824,263)" d="m0 0h62l6 20 10 26 14 39 15 44 9 31 3 14v6h2l2-5 8-16 16-35 18-39 15-33 24-52h62l-8 18-20 40-11 23-15 30-11 23-13 26-11 23-15 30-11 23-14 28-11 23-13 26-11 23-21 42h-58l2-8 9-21 17-33 12-22 15-29 8-20 2-10-4-16-14-37-17-41-20-48-13-32-13-34-7-22z" fill="#56585B"/>
<path transform="translate(472)" d="m0 0h94l52 4-2 4-9 9-14 11-19 14-33 22-21 13-22 13-23 13-10 5 1-6 6-11 11-15 5-12 2-9v-19l-4-11-6-11-8-13z" fill="#00ACEF"/>
<path transform="translate(407,101)" d="m0 0 3 3-4-1z" fill="#F8B57D"/>
</svg>
