<svg width="242" height="54" viewBox="0 0 242 54" fill="none" xmlns="http://www.w3.org/2000/svg">
<g filter="url(#filter0_d_8864_14221)">
<rect x="2" y="1" width="238" height="50" rx="8" fill="#E43434"/>
<rect x="2.5" y="1.5" width="237" height="49" rx="7.5" stroke="#E43434"/>
<path d="M89.936 21.432H93.968C94.784 21.432 95.42 21.632 95.876 22.032C96.34 22.432 96.572 22.98 96.572 23.676C96.572 24.196 96.452 24.652 96.212 25.044C95.98 25.436 95.604 25.704 95.084 25.848V25.872C95.332 25.92 95.532 26 95.684 26.112C95.844 26.224 95.968 26.36 96.056 26.52C96.152 26.672 96.22 26.844 96.26 27.036C96.308 27.228 96.344 27.428 96.368 27.636C96.384 27.844 96.396 28.056 96.404 28.272C96.412 28.488 96.432 28.7 96.464 28.908C96.496 29.116 96.54 29.316 96.596 29.508C96.66 29.692 96.752 29.856 96.872 30H95.6C95.52 29.912 95.464 29.792 95.432 29.64C95.408 29.488 95.392 29.32 95.384 29.136C95.376 28.944 95.368 28.74 95.36 28.524C95.352 28.308 95.328 28.096 95.288 27.888C95.256 27.68 95.216 27.484 95.168 27.3C95.12 27.108 95.044 26.944 94.94 26.808C94.836 26.664 94.7 26.552 94.532 26.472C94.364 26.384 94.14 26.34 93.86 26.34H91.076V30H89.936V21.432ZM93.452 25.38C93.716 25.38 93.968 25.36 94.208 25.32C94.448 25.28 94.656 25.204 94.832 25.092C95.016 24.972 95.16 24.816 95.264 24.624C95.376 24.424 95.432 24.168 95.432 23.856C95.432 23.424 95.312 23.072 95.072 22.8C94.832 22.528 94.444 22.392 93.908 22.392H91.076V25.38H93.452ZM102.291 26.304C102.275 26.064 102.219 25.836 102.123 25.62C102.035 25.404 101.911 25.22 101.751 25.068C101.599 24.908 101.415 24.784 101.199 24.696C100.991 24.6 100.759 24.552 100.503 24.552C100.239 24.552 99.9988 24.6 99.7828 24.696C99.5748 24.784 99.3948 24.908 99.2428 25.068C99.0908 25.228 98.9708 25.416 98.8828 25.632C98.7948 25.84 98.7428 26.064 98.7268 26.304H102.291ZM103.275 28.032C103.139 28.728 102.839 29.252 102.375 29.604C101.911 29.956 101.327 30.132 100.623 30.132C100.127 30.132 99.6948 30.052 99.3268 29.892C98.9668 29.732 98.6628 29.508 98.4148 29.22C98.1668 28.932 97.9788 28.588 97.8508 28.188C97.7308 27.788 97.6628 27.352 97.6468 26.88C97.6468 26.408 97.7188 25.976 97.8628 25.584C98.0068 25.192 98.2068 24.852 98.4628 24.564C98.7268 24.276 99.0348 24.052 99.3868 23.892C99.7468 23.732 100.139 23.652 100.563 23.652C101.115 23.652 101.571 23.768 101.931 24C102.299 24.224 102.591 24.512 102.807 24.864C103.031 25.216 103.183 25.6 103.263 26.016C103.351 26.432 103.387 26.828 103.371 27.204H98.7268C98.7188 27.476 98.7508 27.736 98.8228 27.984C98.8948 28.224 99.0108 28.44 99.1708 28.632C99.3308 28.816 99.5348 28.964 99.7828 29.076C100.031 29.188 100.323 29.244 100.659 29.244C101.091 29.244 101.443 29.144 101.715 28.944C101.995 28.744 102.179 28.44 102.267 28.032H103.275ZM105.508 22.68H104.488V21.432H105.508V22.68ZM105.508 30.78C105.508 31.332 105.372 31.732 105.1 31.98C104.836 32.236 104.476 32.364 104.02 32.364C103.836 32.364 103.664 32.348 103.504 32.316V31.44C103.544 31.448 103.58 31.452 103.612 31.452C103.636 31.46 103.664 31.464 103.696 31.464H103.912C104.136 31.464 104.288 31.4 104.368 31.272C104.448 31.152 104.488 30.932 104.488 30.612V23.796H105.508V30.78ZM111.396 26.304C111.38 26.064 111.324 25.836 111.228 25.62C111.14 25.404 111.016 25.22 110.856 25.068C110.704 24.908 110.52 24.784 110.304 24.696C110.096 24.6 109.864 24.552 109.608 24.552C109.344 24.552 109.104 24.6 108.888 24.696C108.68 24.784 108.5 24.908 108.348 25.068C108.196 25.228 108.076 25.416 107.988 25.632C107.9 25.84 107.848 26.064 107.832 26.304H111.396ZM112.38 28.032C112.244 28.728 111.944 29.252 111.48 29.604C111.016 29.956 110.432 30.132 109.728 30.132C109.232 30.132 108.8 30.052 108.432 29.892C108.072 29.732 107.768 29.508 107.52 29.22C107.272 28.932 107.084 28.588 106.956 28.188C106.836 27.788 106.768 27.352 106.752 26.88C106.752 26.408 106.824 25.976 106.968 25.584C107.112 25.192 107.312 24.852 107.568 24.564C107.832 24.276 108.14 24.052 108.492 23.892C108.852 23.732 109.244 23.652 109.668 23.652C110.22 23.652 110.676 23.768 111.036 24C111.404 24.224 111.696 24.512 111.912 24.864C112.136 25.216 112.288 25.6 112.368 26.016C112.456 26.432 112.492 26.828 112.476 27.204H107.832C107.824 27.476 107.856 27.736 107.928 27.984C108 28.224 108.116 28.44 108.276 28.632C108.436 28.816 108.64 28.964 108.888 29.076C109.136 29.188 109.428 29.244 109.764 29.244C110.196 29.244 110.548 29.144 110.82 28.944C111.1 28.744 111.284 28.44 111.372 28.032H112.38ZM117.746 25.788C117.666 25.396 117.498 25.092 117.242 24.876C116.986 24.66 116.642 24.552 116.21 24.552C115.842 24.552 115.534 24.62 115.286 24.756C115.038 24.892 114.838 25.072 114.686 25.296C114.542 25.52 114.438 25.78 114.374 26.076C114.31 26.364 114.278 26.664 114.278 26.976C114.278 27.264 114.31 27.544 114.374 27.816C114.446 28.088 114.554 28.332 114.698 28.548C114.842 28.756 115.03 28.924 115.262 29.052C115.494 29.18 115.77 29.244 116.09 29.244C116.594 29.244 116.986 29.112 117.266 28.848C117.554 28.584 117.73 28.212 117.794 27.732H118.838C118.726 28.5 118.438 29.092 117.974 29.508C117.518 29.924 116.894 30.132 116.102 30.132C115.63 30.132 115.21 30.056 114.842 29.904C114.482 29.752 114.178 29.536 113.93 29.256C113.69 28.976 113.506 28.644 113.378 28.26C113.258 27.868 113.198 27.44 113.198 26.976C113.198 26.512 113.258 26.08 113.378 25.68C113.498 25.272 113.678 24.92 113.918 24.624C114.166 24.32 114.474 24.084 114.842 23.916C115.21 23.74 115.638 23.652 116.126 23.652C116.478 23.652 116.806 23.696 117.11 23.784C117.422 23.864 117.694 23.992 117.926 24.168C118.166 24.344 118.362 24.568 118.514 24.84C118.666 25.104 118.762 25.42 118.802 25.788H117.746ZM121.395 23.796H122.631V24.696H121.395V28.548C121.395 28.668 121.403 28.764 121.419 28.836C121.443 28.908 121.483 28.964 121.539 29.004C121.595 29.044 121.671 29.072 121.767 29.088C121.871 29.096 122.003 29.1 122.163 29.1H122.631V30H121.851C121.587 30 121.359 29.984 121.167 29.952C120.983 29.912 120.831 29.844 120.711 29.748C120.599 29.652 120.515 29.516 120.459 29.34C120.403 29.164 120.375 28.932 120.375 28.644V24.696H119.319V23.796H120.375V21.936H121.395V23.796ZM127.932 25.716C127.932 26.148 127.988 26.576 128.1 27C128.212 27.416 128.388 27.792 128.628 28.128C128.868 28.464 129.176 28.736 129.552 28.944C129.928 29.144 130.376 29.244 130.896 29.244C131.416 29.244 131.864 29.144 132.24 28.944C132.616 28.736 132.924 28.464 133.164 28.128C133.404 27.792 133.58 27.416 133.692 27C133.804 26.576 133.86 26.148 133.86 25.716C133.86 25.284 133.804 24.86 133.692 24.444C133.58 24.02 133.404 23.64 133.164 23.304C132.924 22.968 132.616 22.7 132.24 22.5C131.864 22.292 131.416 22.188 130.896 22.188C130.376 22.188 129.928 22.292 129.552 22.5C129.176 22.7 128.868 22.968 128.628 23.304C128.388 23.64 128.212 24.02 128.1 24.444C127.988 24.86 127.932 25.284 127.932 25.716ZM126.792 25.716C126.792 25.132 126.876 24.572 127.044 24.036C127.22 23.492 127.48 23.012 127.824 22.596C128.168 22.18 128.596 21.848 129.108 21.6C129.62 21.352 130.216 21.228 130.896 21.228C131.576 21.228 132.172 21.352 132.684 21.6C133.196 21.848 133.624 22.18 133.968 22.596C134.312 23.012 134.568 23.492 134.736 24.036C134.912 24.572 135 25.132 135 25.716C135 26.3 134.912 26.864 134.736 27.408C134.568 27.944 134.312 28.42 133.968 28.836C133.624 29.252 133.196 29.584 132.684 29.832C132.172 30.072 131.576 30.192 130.896 30.192C130.216 30.192 129.62 30.072 129.108 29.832C128.596 29.584 128.168 29.252 127.824 28.836C127.48 28.42 127.22 27.944 127.044 27.408C126.876 26.864 126.792 26.3 126.792 25.716ZM140.013 24.696H137.661V30H136.641V24.696H135.597V23.796H136.641V22.872C136.641 22.368 136.785 21.988 137.073 21.732C137.369 21.468 137.797 21.336 138.357 21.336C138.453 21.336 138.561 21.344 138.681 21.36C138.809 21.376 138.921 21.4 139.017 21.432V22.32C138.929 22.288 138.833 22.268 138.729 22.26C138.625 22.244 138.529 22.236 138.441 22.236C138.193 22.236 138.001 22.284 137.865 22.38C137.729 22.476 137.661 22.66 137.661 22.932V23.796H140.013V22.872C140.013 22.368 140.157 21.988 140.445 21.732C140.741 21.468 141.169 21.336 141.729 21.336C141.825 21.336 141.933 21.344 142.053 21.36C142.181 21.376 142.293 21.4 142.389 21.432V22.32C142.301 22.288 142.205 22.268 142.101 22.26C141.997 22.244 141.901 22.236 141.813 22.236C141.565 22.236 141.373 22.284 141.237 22.38C141.101 22.476 141.033 22.66 141.033 22.932V23.796H142.233V24.696H141.033V30H140.013V24.696ZM147.455 26.304C147.439 26.064 147.383 25.836 147.287 25.62C147.199 25.404 147.075 25.22 146.915 25.068C146.763 24.908 146.579 24.784 146.363 24.696C146.155 24.6 145.923 24.552 145.667 24.552C145.403 24.552 145.163 24.6 144.947 24.696C144.739 24.784 144.559 24.908 144.407 25.068C144.255 25.228 144.135 25.416 144.047 25.632C143.959 25.84 143.907 26.064 143.891 26.304H147.455ZM148.439 28.032C148.303 28.728 148.003 29.252 147.539 29.604C147.075 29.956 146.491 30.132 145.787 30.132C145.291 30.132 144.859 30.052 144.491 29.892C144.131 29.732 143.827 29.508 143.579 29.22C143.331 28.932 143.143 28.588 143.015 28.188C142.895 27.788 142.827 27.352 142.811 26.88C142.811 26.408 142.883 25.976 143.027 25.584C143.171 25.192 143.371 24.852 143.627 24.564C143.891 24.276 144.199 24.052 144.551 23.892C144.911 23.732 145.303 23.652 145.727 23.652C146.279 23.652 146.735 23.768 147.095 24C147.463 24.224 147.755 24.512 147.971 24.864C148.195 25.216 148.347 25.6 148.427 26.016C148.515 26.432 148.551 26.828 148.535 27.204H143.891C143.883 27.476 143.915 27.736 143.987 27.984C144.059 28.224 144.175 28.44 144.335 28.632C144.495 28.816 144.699 28.964 144.947 29.076C145.195 29.188 145.487 29.244 145.823 29.244C146.255 29.244 146.607 29.144 146.879 28.944C147.159 28.744 147.343 28.44 147.431 28.032H148.439ZM149.556 23.796H150.516V25.104H150.54C150.788 24.6 151.092 24.228 151.452 23.988C151.812 23.748 152.268 23.636 152.82 23.652V24.732C152.412 24.732 152.064 24.788 151.776 24.9C151.488 25.012 151.256 25.176 151.08 25.392C150.904 25.608 150.776 25.872 150.696 26.184C150.616 26.488 150.576 26.84 150.576 27.24V30H149.556V23.796Z" fill="white"/>
</g>
<defs>
<filter id="filter0_d_8864_14221" x="0" y="0" width="242" height="54" filterUnits="userSpaceOnUse" color-interpolation-filters="sRGB">
<feFlood flood-opacity="0" result="BackgroundImageFix"/>
<feColorMatrix in="SourceAlpha" type="matrix" values="0 0 0 0 0 0 0 0 0 0 0 0 0 0 0 0 0 0 127 0" result="hardAlpha"/>
<feOffset dy="1"/>
<feGaussianBlur stdDeviation="1"/>
<feColorMatrix type="matrix" values="0 0 0 0 0.0627451 0 0 0 0 0.0941176 0 0 0 0 0.156863 0 0 0 0.05 0"/>
<feBlend mode="normal" in2="BackgroundImageFix" result="effect1_dropShadow_8864_14221"/>
<feBlend mode="normal" in="SourceGraphic" in2="effect1_dropShadow_8864_14221" result="shape"/>
</filter>
</defs>
</svg>
