<svg width="560" height="54" viewBox="0 0 560 54" fill="none" xmlns="http://www.w3.org/2000/svg">
<g filter="url(#filter0_d_8864_14245)">
<rect x="2.5" y="1.5" width="555" height="49" rx="7.5" stroke="#3477E4"/>
<path d="M244.936 21.432H248.968C249.784 21.432 250.42 21.632 250.876 22.032C251.34 22.432 251.572 22.98 251.572 23.676C251.572 24.196 251.452 24.652 251.212 25.044C250.98 25.436 250.604 25.704 250.084 25.848V25.872C250.332 25.92 250.532 26 250.684 26.112C250.844 26.224 250.968 26.36 251.056 26.52C251.152 26.672 251.22 26.844 251.26 27.036C251.308 27.228 251.344 27.428 251.368 27.636C251.384 27.844 251.396 28.056 251.404 28.272C251.412 28.488 251.432 28.7 251.464 28.908C251.496 29.116 251.54 29.316 251.596 29.508C251.66 29.692 251.752 29.856 251.872 30H250.6C250.52 29.912 250.464 29.792 250.432 29.64C250.408 29.488 250.392 29.32 250.384 29.136C250.376 28.944 250.368 28.74 250.36 28.524C250.352 28.308 250.328 28.096 250.288 27.888C250.256 27.68 250.216 27.484 250.168 27.3C250.12 27.108 250.044 26.944 249.94 26.808C249.836 26.664 249.7 26.552 249.532 26.472C249.364 26.384 249.14 26.34 248.86 26.34H246.076V30H244.936V21.432ZM248.452 25.38C248.716 25.38 248.968 25.36 249.208 25.32C249.448 25.28 249.656 25.204 249.832 25.092C250.016 24.972 250.16 24.816 250.264 24.624C250.376 24.424 250.432 24.168 250.432 23.856C250.432 23.424 250.312 23.072 250.072 22.8C249.832 22.528 249.444 22.392 248.908 22.392H246.076V25.38H248.452ZM257.291 26.304C257.275 26.064 257.219 25.836 257.123 25.62C257.035 25.404 256.911 25.22 256.751 25.068C256.599 24.908 256.415 24.784 256.199 24.696C255.991 24.6 255.759 24.552 255.503 24.552C255.239 24.552 254.999 24.6 254.783 24.696C254.575 24.784 254.395 24.908 254.243 25.068C254.091 25.228 253.971 25.416 253.883 25.632C253.795 25.84 253.743 26.064 253.727 26.304H257.291ZM258.275 28.032C258.139 28.728 257.839 29.252 257.375 29.604C256.911 29.956 256.327 30.132 255.623 30.132C255.127 30.132 254.695 30.052 254.327 29.892C253.967 29.732 253.663 29.508 253.415 29.22C253.167 28.932 252.979 28.588 252.851 28.188C252.731 27.788 252.663 27.352 252.647 26.88C252.647 26.408 252.719 25.976 252.863 25.584C253.007 25.192 253.207 24.852 253.463 24.564C253.727 24.276 254.035 24.052 254.387 23.892C254.747 23.732 255.139 23.652 255.563 23.652C256.115 23.652 256.571 23.768 256.931 24C257.299 24.224 257.591 24.512 257.807 24.864C258.031 25.216 258.183 25.6 258.263 26.016C258.351 26.432 258.387 26.828 258.371 27.204H253.727C253.719 27.476 253.751 27.736 253.823 27.984C253.895 28.224 254.011 28.44 254.171 28.632C254.331 28.816 254.535 28.964 254.783 29.076C255.031 29.188 255.323 29.244 255.659 29.244C256.091 29.244 256.443 29.144 256.715 28.944C256.995 28.744 257.179 28.44 257.267 28.032H258.275ZM260.844 23.796H262.08V24.696H260.844V28.548C260.844 28.668 260.852 28.764 260.868 28.836C260.892 28.908 260.932 28.964 260.988 29.004C261.044 29.044 261.12 29.072 261.216 29.088C261.32 29.096 261.452 29.1 261.612 29.1H262.08V30H261.3C261.036 30 260.808 29.984 260.616 29.952C260.432 29.912 260.28 29.844 260.16 29.748C260.048 29.652 259.964 29.516 259.908 29.34C259.852 29.164 259.824 28.932 259.824 28.644V24.696H258.768V23.796H259.824V21.936H260.844V23.796ZM268.349 30H267.389V29.016H267.365C267.149 29.4 266.873 29.684 266.537 29.868C266.201 30.044 265.805 30.132 265.349 30.132C264.941 30.132 264.601 30.08 264.329 29.976C264.057 29.864 263.837 29.708 263.669 29.508C263.501 29.308 263.381 29.072 263.309 28.8C263.245 28.52 263.213 28.212 263.213 27.876V23.796H264.233V27.996C264.233 28.38 264.345 28.684 264.569 28.908C264.793 29.132 265.101 29.244 265.493 29.244C265.805 29.244 266.073 29.196 266.297 29.1C266.529 29.004 266.721 28.868 266.873 28.692C267.025 28.516 267.137 28.312 267.209 28.08C267.289 27.84 267.329 27.58 267.329 27.3V23.796H268.349V30ZM269.845 23.796H270.805V25.104H270.829C271.077 24.6 271.381 24.228 271.741 23.988C272.101 23.748 272.557 23.636 273.109 23.652V24.732C272.701 24.732 272.353 24.788 272.065 24.9C271.777 25.012 271.545 25.176 271.369 25.392C271.193 25.608 271.065 25.872 270.985 26.184C270.905 26.488 270.865 26.84 270.865 27.24V30H269.845V23.796ZM274.088 23.796H275.048V24.78H275.072C275.496 24.028 276.168 23.652 277.088 23.652C277.496 23.652 277.836 23.708 278.108 23.82C278.38 23.932 278.6 24.088 278.768 24.288C278.936 24.488 279.052 24.728 279.116 25.008C279.188 25.28 279.224 25.584 279.224 25.92V30H278.204V25.8C278.204 25.416 278.092 25.112 277.868 24.888C277.644 24.664 277.336 24.552 276.944 24.552C276.632 24.552 276.36 24.6 276.128 24.696C275.904 24.792 275.716 24.928 275.564 25.104C275.412 25.28 275.296 25.488 275.216 25.728C275.144 25.96 275.108 26.216 275.108 26.496V30H274.088V23.796ZM284.264 21.432H285.404V25.116H289.916V21.432H291.056V30H289.916V26.076H285.404V30H284.264V21.432ZM293.5 26.904C293.5 27.28 293.548 27.616 293.644 27.912C293.748 28.2 293.888 28.444 294.064 28.644C294.24 28.836 294.444 28.984 294.676 29.088C294.916 29.192 295.168 29.244 295.432 29.244C295.696 29.244 295.944 29.192 296.176 29.088C296.416 28.984 296.624 28.836 296.8 28.644C296.976 28.444 297.112 28.2 297.208 27.912C297.312 27.616 297.364 27.28 297.364 26.904C297.364 26.528 297.312 26.196 297.208 25.908C297.112 25.612 296.976 25.364 296.8 25.164C296.624 24.964 296.416 24.812 296.176 24.708C295.944 24.604 295.696 24.552 295.432 24.552C295.168 24.552 294.916 24.604 294.676 24.708C294.444 24.812 294.24 24.964 294.064 25.164C293.888 25.364 293.748 25.612 293.644 25.908C293.548 26.196 293.5 26.528 293.5 26.904ZM292.42 26.904C292.42 26.448 292.484 26.024 292.612 25.632C292.74 25.232 292.932 24.888 293.188 24.6C293.444 24.304 293.76 24.072 294.136 23.904C294.512 23.736 294.944 23.652 295.432 23.652C295.928 23.652 296.36 23.736 296.728 23.904C297.104 24.072 297.42 24.304 297.676 24.6C297.932 24.888 298.124 25.232 298.252 25.632C298.38 26.024 298.444 26.448 298.444 26.904C298.444 27.36 298.38 27.784 298.252 28.176C298.124 28.568 297.932 28.912 297.676 29.208C297.42 29.496 297.104 29.724 296.728 29.892C296.36 30.052 295.928 30.132 295.432 30.132C294.944 30.132 294.512 30.052 294.136 29.892C293.76 29.724 293.444 29.496 293.188 29.208C292.932 28.912 292.74 28.568 292.612 28.176C292.484 27.784 292.42 27.36 292.42 26.904ZM299.647 23.796H300.607V24.708H300.631C301.095 24.004 301.763 23.652 302.635 23.652C303.019 23.652 303.367 23.732 303.679 23.892C303.991 24.052 304.211 24.324 304.339 24.708C304.547 24.372 304.819 24.112 305.155 23.928C305.499 23.744 305.875 23.652 306.283 23.652C306.595 23.652 306.875 23.688 307.123 23.76C307.379 23.824 307.595 23.928 307.771 24.072C307.955 24.216 308.095 24.404 308.191 24.636C308.295 24.86 308.347 25.132 308.347 25.452V30H307.327V25.932C307.327 25.74 307.311 25.56 307.279 25.392C307.247 25.224 307.187 25.08 307.099 24.96C307.011 24.832 306.887 24.732 306.727 24.66C306.575 24.588 306.375 24.552 306.127 24.552C305.623 24.552 305.227 24.696 304.939 24.984C304.651 25.272 304.507 25.656 304.507 26.136V30H303.487V25.932C303.487 25.732 303.467 25.548 303.427 25.38C303.395 25.212 303.335 25.068 303.247 24.948C303.159 24.82 303.039 24.724 302.887 24.66C302.743 24.588 302.555 24.552 302.323 24.552C302.027 24.552 301.771 24.612 301.555 24.732C301.347 24.852 301.175 24.996 301.039 25.164C300.911 25.332 300.815 25.508 300.751 25.692C300.695 25.868 300.667 26.016 300.667 26.136V30H299.647V23.796ZM314.185 26.304C314.169 26.064 314.113 25.836 314.017 25.62C313.929 25.404 313.805 25.22 313.645 25.068C313.493 24.908 313.309 24.784 313.093 24.696C312.885 24.6 312.653 24.552 312.397 24.552C312.133 24.552 311.893 24.6 311.677 24.696C311.469 24.784 311.289 24.908 311.137 25.068C310.985 25.228 310.865 25.416 310.777 25.632C310.689 25.84 310.637 26.064 310.621 26.304H314.185ZM315.169 28.032C315.033 28.728 314.733 29.252 314.269 29.604C313.805 29.956 313.221 30.132 312.517 30.132C312.021 30.132 311.589 30.052 311.221 29.892C310.861 29.732 310.557 29.508 310.309 29.22C310.061 28.932 309.873 28.588 309.745 28.188C309.625 27.788 309.557 27.352 309.541 26.88C309.541 26.408 309.613 25.976 309.757 25.584C309.901 25.192 310.101 24.852 310.357 24.564C310.621 24.276 310.929 24.052 311.281 23.892C311.641 23.732 312.033 23.652 312.457 23.652C313.009 23.652 313.465 23.768 313.825 24C314.193 24.224 314.485 24.512 314.701 24.864C314.925 25.216 315.077 25.6 315.157 26.016C315.245 26.432 315.281 26.828 315.265 27.204H310.621C310.613 27.476 310.645 27.736 310.717 27.984C310.789 28.224 310.905 28.44 311.065 28.632C311.225 28.816 311.429 28.964 311.677 29.076C311.925 29.188 312.217 29.244 312.553 29.244C312.985 29.244 313.337 29.144 313.609 28.944C313.889 28.744 314.073 28.44 314.161 28.032H315.169Z" fill="#3477E4"/>
</g>
<defs>
<filter id="filter0_d_8864_14245" x="0" y="0" width="560" height="54" filterUnits="userSpaceOnUse" color-interpolation-filters="sRGB">
<feFlood flood-opacity="0" result="BackgroundImageFix"/>
<feColorMatrix in="SourceAlpha" type="matrix" values="0 0 0 0 0 0 0 0 0 0 0 0 0 0 0 0 0 0 127 0" result="hardAlpha"/>
<feOffset dy="1"/>
<feGaussianBlur stdDeviation="1"/>
<feColorMatrix type="matrix" values="0 0 0 0 0.0627451 0 0 0 0 0.0941176 0 0 0 0 0.156863 0 0 0 0.05 0"/>
<feBlend mode="normal" in2="BackgroundImageFix" result="effect1_dropShadow_8864_14245"/>
<feBlend mode="normal" in="SourceGraphic" in2="effect1_dropShadow_8864_14245" result="shape"/>
</filter>
</defs>
</svg>
