<svg width="22" height="22" viewBox="0 0 24 24" stroke="#f5801f" fill="#f5801f" xmlns="http://www.w3.org/2000/svg">
<path d="M13 9L7 9" stroke="#3477E4" stroke-width="1.5" stroke-linecap="round" stroke-linejoin="round"/>
<path d="M22.0002 10.9699L22.0002 13.03C22.0002 13.58 21.5602 14.0299 21.0002 14.0499L19.0402 14.0499C17.9602 14.0499 16.9702 13.2599 16.8802 12.1799C16.8202 11.5499 17.0602 10.9599 17.4802 10.5499C17.8502 10.1699 18.3602 9.94995 18.9202 9.94995L21.0002 9.94995C21.5602 9.96995 22.0002 10.4199 22.0002 10.9699Z" stroke="#071B7B" stroke-width="1.5" stroke-linecap="round" stroke-linejoin="round"/>
<path d="M2 8.5C2 5.78 3.64 3.88 6.19 3.56C6.45 3.52 6.72 3.5 7 3.5L16 3.5C16.26 3.5 16.51 3.50999 16.75 3.54999C19.33 3.84999 21 5.76 21 8.5L21 9.95001L18.92 9.95001C18.36 9.95001 17.85 10.17 17.48 10.55C17.06 10.96 16.82 11.55 16.88 12.18C16.97 13.26 17.96 14.05 19.04 14.05L21 14.05L21 15.5C21 18.5 19 20.5 16 20.5L7 20.5C4 20.5 2 18.5 2 15.5L2 12.26" stroke="#071B7B" stroke-width="1.5" stroke-linecap="round" stroke-linejoin="round"/>
</svg>
